<?xml version="1.0" encoding="utf-8"?>
<!-- Generator: Adobe Illustrator 21.0.0, SVG Export Plug-In . SVG Version: 6.00 Build 0)  -->
<svg version="1.1" id="图层_1" xmlns="http://www.w3.org/2000/svg" xmlns:xlink="http://www.w3.org/1999/xlink" x="0px" y="0px"
	 viewBox="0 0 18 10" style="enable-background:new 0 0 18 10;" xml:space="preserve">
<style type="text/css">
	.st0{fill:#999999;}
</style>
<g>
	<path class="st0" d="M17.4,8.5c0,0.1-0.1,0.3-0.2,0.4l-0.8,0.8c-0.1,0.1-0.3,0.2-0.4,0.2c-0.1,0-0.3-0.1-0.4-0.2L9,3.1L2.4,9.6
		C2.3,9.7,2.1,9.8,2,9.8c-0.1,0-0.3-0.1-0.4-0.2L0.8,8.8C0.7,8.7,0.6,8.5,0.6,8.4c0-0.1,0.1-0.3,0.2-0.4l7.8-7.7
		C8.7,0.2,8.9,0.1,9,0.1s0.3,0,0.4,0.1L17.2,8C17.3,8.1,17.4,8.4,17.4,8.5z"/>
</g>
</svg>
