<?xml version="1.0" encoding="utf-8"?>
<!-- Generator: Adobe Illustrator 21.0.0, SVG Export Plug-In . SVG Version: 6.00 Build 0)  -->
<svg version="1.1" id="图层_1" xmlns="http://www.w3.org/2000/svg" xmlns:xlink="http://www.w3.org/1999/xlink" x="0px" y="0px"
	 viewBox="0 0 18 10" style="enable-background:new 0 0 18 10;" xml:space="preserve">
<style type="text/css">
	.st0{fill:#999999;}
</style>
<g>
	<path class="st0" d="M17.2,2L9.4,9.8C9.3,9.9,9.1,9.9,9,9.9S8.7,9.8,8.6,9.7L0.8,2C0.7,1.9,0.6,1.7,0.6,1.6s0.1-0.3,0.2-0.4
		l0.8-0.8C1.7,0.3,1.9,0.2,2,0.2c0.1,0,0.3,0.1,0.4,0.2L9,6.9l6.6-6.6c0.1-0.1,0.3-0.2,0.4-0.2c0.1,0,0.3,0.1,0.4,0.2l0.8,0.8
		c0.1,0.1,0.2,0.3,0.2,0.4S17.3,1.9,17.2,2z"/>
</g>
</svg>
