<?xml version="1.0" encoding="utf-8"?>
<!-- Generator: Adobe Illustrator 21.0.0, SVG Export Plug-In . SVG Version: 6.00 Build 0)  -->
<svg version="1.1" id="图层_1" xmlns="http://www.w3.org/2000/svg" xmlns:xlink="http://www.w3.org/1999/xlink" x="0px" y="0px"
	 viewBox="0 0 32 32" style="enable-background:new 0 0 32 32;" xml:space="preserve">
<style type="text/css">
	.st0{fill:url(#SVGID_1_);}
	.st1{fill:url(#SVGID_2_);}
	.st2{fill:url(#SVGID_3_);}
</style>
<g>
	<linearGradient id="SVGID_1_" gradientUnits="userSpaceOnUse" x1="9.4427" y1="5.5" x2="11.9427" y2="5.5">
		<stop  offset="0" style="stop-color:#EE6F3C"/>
		<stop  offset="1" style="stop-color:#AF2930"/>
	</linearGradient>
	<path class="st0" d="M10.7,8.5L10.7,8.5c-0.7,0-1.3-0.6-1.3-1.2V3.7c0-0.7,0.6-1.2,1.2-1.2h0c0.7,0,1.2,0.6,1.2,1.2v3.5
		C11.9,7.9,11.4,8.5,10.7,8.5z"/>
	<linearGradient id="SVGID_2_" gradientUnits="userSpaceOnUse" x1="20.0885" y1="5.5" x2="22.5885" y2="5.5">
		<stop  offset="0" style="stop-color:#EE6F3C"/>
		<stop  offset="1" style="stop-color:#AF2930"/>
	</linearGradient>
	<path class="st1" d="M21.3,8.5L21.3,8.5c-0.7,0-1.3-0.6-1.3-1.2V3.7c0-0.7,0.6-1.2,1.2-1.2h0c0.7,0,1.3,0.6,1.3,1.2v3.5
		C22.6,7.9,22,8.5,21.3,8.5z"/>
	<linearGradient id="SVGID_3_" gradientUnits="userSpaceOnUse" x1="2" y1="17.5" x2="30" y2="17.5">
		<stop  offset="0" style="stop-color:#EE6F3C"/>
		<stop  offset="1" style="stop-color:#AF2930"/>
	</linearGradient>
	<path class="st2" d="M26,5.5h-2.7v1.6c0,1.1-0.9,2-2,2c-1.1,0-2-0.9-2-2V5.5h-6.7v1.6c0,1.1-0.9,2-2,2c-1.1,0-2-0.9-2-2V5.5H6
		c-2.2,0-4,1.8-4,4v16c0,2.2,1.8,4,4,4h20c2.2,0,4-1.8,4-4v-16C30,7.3,28.2,5.5,26,5.5z M8.3,21.9c-0.8,0-1.5-0.7-1.5-1.5
		c0-0.8,0.7-1.5,1.5-1.5s1.5,0.7,1.5,1.5C9.8,21.2,9.2,21.9,8.3,21.9z M8.3,16.6c-0.8,0-1.5-0.7-1.5-1.5s0.7-1.5,1.5-1.5
		s1.5,0.7,1.5,1.5S9.2,16.6,8.3,16.6z M16.2,21.9c-0.8,0-1.5-0.7-1.5-1.5c0-0.8,0.7-1.5,1.5-1.5s1.5,0.7,1.5,1.5
		C17.7,21.2,17,21.9,16.2,21.9z M16.2,16.6c-0.8,0-1.5-0.7-1.5-1.5s0.7-1.5,1.5-1.5s1.5,0.7,1.5,1.5S17,16.6,16.2,16.6z M24.1,21.9
		c-0.8,0-1.5-0.7-1.5-1.5c0-0.8,0.7-1.5,1.5-1.5s1.5,0.7,1.5,1.5C25.6,21.2,24.9,21.9,24.1,21.9z M24.1,16.6c-0.8,0-1.5-0.7-1.5-1.5
		s0.7-1.5,1.5-1.5s1.5,0.7,1.5,1.5S24.9,16.6,24.1,16.6z"/>
</g>
</svg>
