<?xml version="1.0" encoding="utf-8"?>
<!-- Generator: Adobe Illustrator 21.0.0, SVG Export Plug-In . SVG Version: 6.00 Build 0)  -->
<svg version="1.1" id="图层_1" xmlns="http://www.w3.org/2000/svg" xmlns:xlink="http://www.w3.org/1999/xlink" x="0px" y="0px"
	 viewBox="0 0 32 32" style="enable-background:new 0 0 32 32;" xml:space="preserve">
<style type="text/css">
	.st0{fill:#231815;}
</style>
<path class="st0" d="M24.2,30.8H7.8c-2.8,0-5-2.2-5-4.9V13.3L13.8,2.1c0.6-0.6,1.4-0.9,2.2-0.9c0,0,0,0,0,0c0.8,0,1.6,0.3,2.2,0.9
	l10.9,11.1v12.6C29.2,28.6,26.9,30.8,24.2,30.8z M5.6,14.4v11.5c0,1.2,1,2.2,2.3,2.2h16.3c1.3,0,2.3-1,2.3-2.2V14.4L16.3,4
	C16.2,4,16.1,3.9,16,3.9c0,0,0,0,0,0c-0.1,0-0.2,0-0.3,0.1L5.6,14.4z"/>
</svg>
