<?xml version="1.0" encoding="utf-8"?>
<!-- Generator: Adobe Illustrator 21.0.0, SVG Export Plug-In . SVG Version: 6.00 Build 0)  -->
<svg version="1.1" id="图层_1" xmlns="http://www.w3.org/2000/svg" xmlns:xlink="http://www.w3.org/1999/xlink" x="0px" y="0px"
	 viewBox="0 0 32 32" style="enable-background:new 0 0 32 32;" xml:space="preserve">
<style type="text/css">
	.st0{fill:#231815;}
</style>
<g>
	<g>
		<path class="st0" d="M16,17c-4.2,0-7.7-3.5-7.7-7.7s3.5-7.7,7.7-7.7s7.7,3.5,7.7,7.7S20.2,17,16,17z M16,4.3c-2.7,0-5,2.2-5,5
			s2.2,5,5,5s5-2.2,5-5S18.7,4.3,16,4.3z"/>
	</g>
	<g>
		<path class="st0" d="M23.4,30.4H8.6c-3.4,0-6.2-2.8-6.2-6.2s2.8-6.2,6.2-6.2h14.7c3.4,0,6.2,2.8,6.2,6.2S26.8,30.4,23.4,30.4z
			 M8.6,20.6c-1.9,0-3.5,1.6-3.5,3.5s1.6,3.5,3.5,3.5h14.7c1.9,0,3.5-1.6,3.5-3.5s-1.6-3.5-3.5-3.5H8.6z"/>
	</g>
</g>
</svg>
