<?xml version="1.0" encoding="utf-8"?>
<!-- Generator: Adobe Illustrator 21.0.0, SVG Export Plug-In . SVG Version: 6.00 Build 0)  -->
<svg version="1.1" id="图层_1" xmlns="http://www.w3.org/2000/svg" xmlns:xlink="http://www.w3.org/1999/xlink" x="0px" y="0px"
	 viewBox="0 0 32 32" style="enable-background:new 0 0 32 32;" xml:space="preserve">
<style type="text/css">
	.st0{fill:#231815;}
</style>
<g>
	<path class="st0" d="M25.2,29.5H6.8c-2.8,0-5-2.3-5-5V9.8c0-2.8,2.3-5,5-5h18.3c2.8,0,5,2.3,5,5v14.6
		C30.2,27.2,27.9,29.5,25.2,29.5z M6.8,7.5c-1.3,0-2.3,1-2.3,2.3v14.6c0,1.3,1,2.3,2.3,2.3h18.3c1.3,0,2.3-1,2.3-2.3V9.8
		c0-1.3-1-2.3-2.3-2.3H6.8z"/>
	<g>
		<path class="st0" d="M10.9,9.4L10.9,9.4c-0.8,0-1.4-0.6-1.4-1.4V3.9c0-0.8,0.6-1.4,1.4-1.4h0c0.8,0,1.4,0.6,1.4,1.4V8
			C12.2,8.7,11.6,9.4,10.9,9.4z"/>
	</g>
	<g>
		<path class="st0" d="M21.1,9.4L21.1,9.4c-0.8,0-1.4-0.6-1.4-1.4V3.9c0-0.8,0.6-1.4,1.4-1.4h0c0.8,0,1.4,0.6,1.4,1.4V8
			C22.5,8.7,21.9,9.4,21.1,9.4z"/>
	</g>
</g>
</svg>
