<?xml version="1.0" encoding="utf-8"?>
<!-- Generator: Adobe Illustrator 21.0.0, SVG Export Plug-In . SVG Version: 6.00 Build 0)  -->
<svg version="1.1" id="图层_1" xmlns="http://www.w3.org/2000/svg" xmlns:xlink="http://www.w3.org/1999/xlink" x="0px" y="0px"
	 viewBox="0 0 68 68" style="enable-background:new 0 0 68 68;" xml:space="preserve">
<style type="text/css">
	.st0{fill:#AF2930;}
	.st1{fill:#5A5A5A;}
	.st2{fill:none;}
</style>
<g>
	<g>
		<path class="st0" d="M48,43.9c0,0.4,0.3,0.7,0.7,0.7c0.4,0,0.7-0.3,0.7-0.7c0-0.4-0.3-0.7-0.7-0.7C48.3,43.2,48,43.5,48,43.9
			L48,43.9z M48,43.9"/>
		<path class="st0" d="M48.7,45.1c-0.6,0-1.2-0.5-1.2-1.2c0-0.6,0.5-1.2,1.2-1.2c0.6,0,1.2,0.5,1.2,1.2
			C49.9,44.5,49.4,45.1,48.7,45.1z M48.7,43.6c-0.1,0-0.3,0.1-0.3,0.3c0,0.1,0.1,0.3,0.3,0.3c0.1,0,0.3-0.1,0.3-0.3
			C49,43.8,48.9,43.6,48.7,43.6z"/>
	</g>
	<g>
		<path class="st1" d="M34,2.3H9.9v63.5h48.2V25L34,2.3z M53.8,25.2H33.9V6.5L53.8,25.2z M55,62.6H13V5.4h19.7l0,0v21h22.2l0,0
			L55,62.6L55,62.6z M55,62.6"/>
		<path class="st1" d="M58.3,66H9.7V2h24.5l0.1,0.1l24.2,22.9V66z M10.2,65.5h47.6V25.2L33.9,2.5H10.2V65.5z M55,62.9H12.8V5.1h20.1
			L33,5.3v20.8h22l0.2,0.2v36.3H55V62.9z M13.3,62.4h41.4V26.6H32.5v-21H13.3V62.4z M54.4,25.5H33.7V5.8L54.4,25.5z M34.2,25h18.9
			L34.2,7.1V25z"/>
	</g>
	<rect x="9.9" y="2.3" class="st2" width="48.2" height="63.6"/>
	<g>
		<rect x="17.6" y="35.3" class="st1" width="23.1" height="1.1"/>
		<path class="st1" d="M41.1,36.9h-24v-2h24V36.9z M18,36h22.2v-0.2H18V36z"/>
	</g>
	<g>
		<rect x="43" y="35.3" class="st0" width="6.4" height="1.1"/>
		<path class="st0" d="M49.9,36.9h-7.3v-2h7.3V36.9z M43.5,36H49v-0.2h-5.5V36z"/>
	</g>
	<g>
		<rect x="26.3" y="43.2" class="st1" width="19.6" height="1.1"/>
		<path class="st1" d="M46.4,44.8H25.9v-2h20.5V44.8z M26.8,43.9h18.7v-0.2H26.8V43.9z"/>
	</g>
	<g>
		<rect x="17.6" y="43.2" class="st0" width="6.5" height="1.1"/>
		<path class="st0" d="M24.5,44.8h-7.3v-2h7.3V44.8z M18.1,43.9h5.6v-0.2h-5.6V43.9z"/>
	</g>
	<g>
		<rect x="17.6" y="51.1" class="st1" width="23.1" height="1.1"/>
		<path class="st1" d="M41.1,52.7h-24v-2h24V52.7z M18,51.8h22.2v-0.2H18V51.8z"/>
	</g>
	<g>
		<rect x="44.2" y="51.1" class="st0" width="5.2" height="1.1"/>
		<path class="st0" d="M49.9,52.7h-6.1v-2h6.1V52.7z M44.6,51.8H49v-0.2h-4.3V51.8z"/>
	</g>
</g>
</svg>
