<?xml version="1.0" encoding="utf-8"?>
<!-- Generator: Adobe Illustrator 21.0.0, SVG Export Plug-In . SVG Version: 6.00 Build 0)  -->
<svg version="1.1" id="图层_1" xmlns="http://www.w3.org/2000/svg" xmlns:xlink="http://www.w3.org/1999/xlink" x="0px" y="0px"
	 viewBox="0 0 68 68" style="enable-background:new 0 0 68 68;" xml:space="preserve">
<style type="text/css">
	.st0{fill:#5A5A5A;}
	.st1{fill:#AF2930;}
</style>
<g>
	<g>
		<path class="st0" d="M50.3,8.4V3h-3.5v5.4H21.3V3h-3.5v5.4H0.5V65h67V8.4H50.3z M4,11.9h13.7v5.5h3.5v-5.5h25.5v5.5h3.5v-5.5H64
			V24H4V11.9z M64,61.5H4V25.2h60V61.5z M64,61.5"/>
		<path class="st0" d="M67.8,65.3H0.2V8.1h17.2V2.7h4.1v5.4h24.9V2.7h4.1v5.4h17.2V65.3z M0.8,64.7h66.4V8.7H50V3.3h-2.9v5.4H21V3.3
			H18v5.4H0.8V64.7z M64.3,61.8H3.7V24.9h60.6V61.8z M4.3,61.2h59.4V25.5H4.3V61.2z M64.3,24.3H3.7V11.6H18v5.5H21v-5.5h26.1v5.5H50
			v-5.5h14.3V24.3z M4.3,23.7h59.4V12.2H50.6v5.5h-4.1v-5.5H21.6v5.5h-4.1v-5.5H4.3V23.7z"/>
	</g>
	<g>
		<path class="st1" d="M16,38.3c0,1.5,1.2,2.6,2.6,2.6c1.5,0,2.6-1.2,2.6-2.6c0-1.5-1.2-2.6-2.6-2.6C17.2,35.7,16,36.8,16,38.3
			L16,38.3z M16,38.3"/>
		<path class="st1" d="M18.6,41.4c-1.7,0-3.1-1.4-3.1-3.1c0-1.7,1.4-3.1,3.1-3.1c1.7,0,3.1,1.4,3.1,3.1C21.8,40,20.3,41.4,18.6,41.4
			z M18.6,36.2c-1.2,0-2.1,1-2.1,2.1c0,1.2,1,2.1,2.1,2.1c1.2,0,2.1-1,2.1-2.1C20.8,37.1,19.8,36.2,18.6,36.2z"/>
	</g>
	<g>
		<path class="st1" d="M31.2,38.3c0,1.5,1.2,2.6,2.6,2.6c1.5,0,2.6-1.2,2.6-2.6c0-1.5-1.2-2.6-2.6-2.6
			C32.4,35.7,31.2,36.8,31.2,38.3L31.2,38.3z M31.2,38.3"/>
		<path class="st1" d="M33.9,41.4c-1.7,0-3.1-1.4-3.1-3.1c0-1.7,1.4-3.1,3.1-3.1c1.7,0,3.1,1.4,3.1,3.1C37,40,35.6,41.4,33.9,41.4z
			 M33.9,36.2c-1.2,0-2.1,1-2.1,2.1c0,1.2,1,2.1,2.1,2.1c1.2,0,2.1-1,2.1-2.1C36,37.1,35,36.2,33.9,36.2z"/>
	</g>
	<g>
		<path class="st1" d="M46.5,38.3c0,1.5,1.2,2.6,2.6,2.6c1.5,0,2.6-1.2,2.6-2.6c0-1.5-1.2-2.6-2.6-2.6
			C47.7,35.7,46.5,36.8,46.5,38.3L46.5,38.3z M46.5,38.3"/>
		<path class="st1" d="M49.1,41.4c-1.7,0-3.1-1.4-3.1-3.1c0-1.7,1.4-3.1,3.1-3.1c1.7,0,3.1,1.4,3.1,3.1C52.2,40,50.8,41.4,49.1,41.4
			z M49.1,36.2c-1.2,0-2.1,1-2.1,2.1c0,1.2,1,2.1,2.1,2.1c1.2,0,2.1-1,2.1-2.1C51.2,37.1,50.3,36.2,49.1,36.2z"/>
	</g>
	<g>
		<path class="st1" d="M16,48.5c0,1.5,1.2,2.6,2.6,2.6c1.5,0,2.6-1.2,2.6-2.6c0-1.5-1.2-2.6-2.6-2.6C17.2,45.8,16,47,16,48.5
			L16,48.5z M16,48.5"/>
		<path class="st1" d="M18.6,51.6c-1.7,0-3.1-1.4-3.1-3.1c0-1.7,1.4-3.1,3.1-3.1c1.7,0,3.1,1.4,3.1,3.1
			C21.8,50.2,20.3,51.6,18.6,51.6z M18.6,46.3c-1.2,0-2.1,1-2.1,2.1c0,1.2,1,2.1,2.1,2.1c1.2,0,2.1-1,2.1-2.1
			C20.8,47.3,19.8,46.3,18.6,46.3z"/>
	</g>
	<g>
		<path class="st1" d="M31.2,48.5c0,1.5,1.2,2.6,2.6,2.6c1.5,0,2.6-1.2,2.6-2.6c0-1.5-1.2-2.6-2.6-2.6C32.4,45.8,31.2,47,31.2,48.5
			L31.2,48.5z M31.2,48.5"/>
		<path class="st1" d="M33.9,51.6c-1.7,0-3.1-1.4-3.1-3.1c0-1.7,1.4-3.1,3.1-3.1c1.7,0,3.1,1.4,3.1,3.1C37,50.2,35.6,51.6,33.9,51.6
			z M33.9,46.3c-1.2,0-2.1,1-2.1,2.1c0,1.2,1,2.1,2.1,2.1c1.2,0,2.1-1,2.1-2.1C36,47.3,35,46.3,33.9,46.3z"/>
	</g>
	<g>
		<path class="st1" d="M46.5,48.5c0,1.5,1.2,2.6,2.6,2.6c1.5,0,2.6-1.2,2.6-2.6c0-1.5-1.2-2.6-2.6-2.6C47.7,45.8,46.5,47,46.5,48.5
			L46.5,48.5z M46.5,48.5"/>
		<path class="st1" d="M49.1,51.6c-1.7,0-3.1-1.4-3.1-3.1c0-1.7,1.4-3.1,3.1-3.1c1.7,0,3.1,1.4,3.1,3.1
			C52.2,50.2,50.8,51.6,49.1,51.6z M49.1,46.3c-1.2,0-2.1,1-2.1,2.1c0,1.2,1,2.1,2.1,2.1c1.2,0,2.1-1,2.1-2.1
			C51.2,47.3,50.3,46.3,49.1,46.3z"/>
	</g>
</g>
</svg>
