<?xml version="1.0" encoding="utf-8"?>
<!-- Generator: Adobe Illustrator 21.0.0, SVG Export Plug-In . SVG Version: 6.00 Build 0)  -->
<svg version="1.1" id="图层_1" xmlns="http://www.w3.org/2000/svg" xmlns:xlink="http://www.w3.org/1999/xlink" x="0px" y="0px"
	 viewBox="0 0 68 68" style="enable-background:new 0 0 68 68;" xml:space="preserve">
<style type="text/css">
	.st0{fill:#5A5A5A;}
	.st1{fill:#AF2930;}
</style>
<g>
	<g>
		<path class="st0" d="M57.3,9.5h-0.7v-4h1.7V2.3H9.7v3.2h1.7v4h-0.7C5.4,9.5,1,13.9,1,19.2v0c0,5.3,4.4,9.7,9.7,9.7h0.7
			c0,0.1,0,0.2,0,0.3c0,1.3,0.2,2.6,0.5,3.9c1.3,6.3,5.3,11.8,10.9,15c0.4,0.2,0.7,0.4,1.1,0.6c1.1,0.6,2.3,1,3.5,1.4
			c0.3,0.1,0.5,0.1,0.8,0.2v12.2H14.7v3.2h37.7v-3.2H39.9V50.3c0.3-0.1,0.5-0.2,0.8-0.2c1.2-0.4,2.4-0.9,3.5-1.4
			c0.4-0.2,0.7-0.4,1.1-0.6c5.6-3.2,9.5-8.7,10.8-14.9c0.3-1.3,0.4-2.6,0.5-3.9c0-0.1,0-0.2,0-0.3h0.7c5.3,0,9.7-4.4,9.7-9.7v0
			C67,13.9,62.7,9.5,57.3,9.5L57.3,9.5z M11.4,25.7h-0.7c-1.7,0-3.3-0.7-4.5-1.9c-1.2-1.2-1.9-2.8-1.9-4.5v0c0-1.7,0.7-3.3,1.9-4.5
			c1.2-1.2,2.8-1.9,4.5-1.9h0.7V25.7z M38.7,62.5h-9.4V50.6c1.5,0.3,3.1,0.5,4.7,0.5c1.6,0,3.2-0.2,4.7-0.5V62.5z M53.4,28.5
			c0,0.2,0,0.4,0,0.7c0,1.1-0.2,2.2-0.4,3.3c-1.1,5.4-4.5,10-9.3,12.8c-0.3,0.2-0.6,0.3-0.9,0.5c-1,0.5-2,0.9-3,1.2
			c-1.9,0.6-3.8,0.9-5.7,0.9c-1.9,0-3.8-0.3-5.7-0.9c-1-0.3-2-0.7-3-1.2c-0.3-0.2-0.6-0.3-0.9-0.5c-4.8-2.8-8.2-7.5-9.4-12.9
			c-0.2-1.1-0.4-2.2-0.4-3.3c0-0.2,0-0.4,0-0.6v-23h38.7L53.4,28.5L53.4,28.5z M63.8,19.2c0,1.7-0.7,3.3-1.9,4.5
			c-1.2,1.2-2.8,1.9-4.5,1.9h-0.7V12.8h0.7c1.7,0,3.3,0.7,4.5,1.9C63.1,15.9,63.8,17.5,63.8,19.2L63.8,19.2z M63.8,19.2"/>
		<path class="st0" d="M52.7,66H14.5v-3.8h13.4V50.5c-0.2-0.1-0.4-0.1-0.5-0.2l0,0c-1.2-0.4-2.4-0.9-3.5-1.4
			c-0.4-0.2-0.8-0.4-1.1-0.6c-5.7-3.3-9.7-8.8-11.1-15.2c-0.3-1.3-0.4-2.6-0.5-3.9c0,0,0,0,0,0h-0.4c-5.5,0-10-4.5-10-10
			c0-5.5,4.5-10,10-10h0.4V5.8H9.4V2h49.2v3.8h-1.7v3.5h0.5c2.7,0,5.2,1,7,2.9c1.9,1.9,2.9,4.4,2.9,7c0,5.5-4.5,10-10,10h-0.5
			c0,0,0,0,0,0.1c0,1.3-0.2,2.6-0.5,3.9c-1.3,6.3-5.3,11.8-11,15.1c-0.4,0.2-0.8,0.4-1.1,0.6c-1.1,0.6-2.3,1.1-3.5,1.4
			c-0.2,0.1-0.4,0.1-0.6,0.2v11.7h12.6V66z M15,65.4h37.2v-2.7H39.6V50.1l0.2-0.1c0.3-0.1,0.5-0.1,0.8-0.2c1.2-0.4,2.4-0.9,3.4-1.4
			c0.3-0.2,0.7-0.3,1.1-0.6c5.5-3.2,9.4-8.6,10.7-14.8c0.3-1.3,0.4-2.6,0.5-3.8l0,0c0-0.1,0-0.2,0-0.3v-0.3h1c5.2,0,9.4-4.2,9.4-9.4
			c0-2.5-1-4.9-2.8-6.6c-1.8-1.8-4.1-2.8-6.7-2.8h-1V5.2H58V2.6H10v2.7h1.7v4.6h-1c-5.2,0-9.4,4.2-9.4,9.4c0,5.2,4.2,9.4,9.4,9.4h1
			v0.3c0,0,0,0.1,0,0.1c0,0,0,0.1,0,0.1c0,1.2,0.2,2.5,0.5,3.8c1.3,6.2,5.2,11.6,10.8,14.8c0.3,0.2,0.7,0.4,1.1,0.6
			c1.1,0.6,2.3,1,3.4,1.4l0,0c0.2,0.1,0.5,0.1,0.7,0.2l0.2,0.1v12.7H15V65.4z M39,62.8H29V50.3l0.3,0.1c3.1,0.7,6.3,0.7,9.3,0
			l0.3-0.1V62.8z M29.6,62.2h8.9V50.9c-2.9,0.6-6,0.6-8.9,0V62.2z M34,48.1c-2,0-3.9-0.3-5.8-0.9c-1-0.3-2.1-0.7-3-1.2
			c-0.3-0.2-0.7-0.3-0.9-0.5c-4.9-2.8-8.3-7.6-9.5-13.1c-0.2-1.1-0.4-2.2-0.4-3.4c0-0.2,0-0.4,0-0.6V5.2h39.3v23.5h0
			c0,0.1,0,0.3,0,0.4c0,1.1-0.2,2.3-0.4,3.4c-1.1,5.4-4.6,10.2-9.4,13c-0.3,0.2-0.6,0.3-0.9,0.5c-1,0.5-2,0.9-3,1.2
			C37.9,47.8,36,48.1,34,48.1z M14.9,5.8v22.7c0,0.2,0,0.4,0,0.6c0,1.1,0.2,2.2,0.4,3.3c1.1,5.3,4.5,9.9,9.2,12.7
			c0.3,0.2,0.6,0.3,0.9,0.5c1,0.5,1.9,0.9,2.9,1.2c1.8,0.6,3.7,0.8,5.6,0.8c1.9,0,3.8-0.3,5.7-0.9c1-0.3,2-0.7,2.9-1.2
			c0.4-0.2,0.7-0.3,0.9-0.5c4.7-2.7,8-7.3,9.2-12.6c0.2-1.1,0.4-2.2,0.4-3.3l0,0c0-0.2,0-0.4,0-0.6v-0.3h0V5.8H14.9z M11.7,26h-1
			c-1.8,0-3.5-0.7-4.7-2c-1.3-1.3-2-3-2-4.7c0-1.8,0.7-3.5,2-4.7c1.3-1.3,3-2,4.7-2h1V26z M10.7,13.1c-1.6,0-3.2,0.6-4.4,1.8
			c-1.2,1.2-1.8,2.7-1.8,4.4c0,1.6,0.6,3.2,1.8,4.4c1.2,1.2,2.7,1.8,4.4,1.8h0.4V13.1H10.7z M57.3,26h-1V12.5h1c1.8,0,3.5,0.7,4.7,2
			c1.3,1.3,2,3,2,4.7v0c0,1.8-0.7,3.5-2,4.7C60.8,25.3,59.1,26,57.3,26z M56.9,25.4h0.5c1.6,0,3.2-0.6,4.4-1.8
			c1.2-1.2,1.8-2.7,1.8-4.4v0c0-1.6-0.6-3.2-1.8-4.4c-1.2-1.2-2.7-1.8-4.4-1.8h-0.5V25.4z"/>
	</g>
	<g>
		<path class="st1" d="M19.7,16.5l5.2-5.2l1,1l-5.2,5.2L19.7,16.5z M19.6,22.2l10.3-10.3l1,1L20.6,23.3L19.6,22.2z M37.2,44.9
			l-0.4-1.4c0,0,2-0.5,4.1-1.7c2.8-1.6,4.6-3.7,5.3-6.1l1.4,0.4c-0.8,2.8-2.9,5.2-6,7C39.3,44.3,37.3,44.9,37.2,44.9L37.2,44.9z
			 M37.2,44.9"/>
		<path class="st1" d="M36.9,45.4l-0.6-2.3l0.4-0.1c0,0,0,0,0,0c0.3-0.1,2.1-0.6,4-1.7c2.7-1.6,4.4-3.5,5.1-5.8l0.1-0.4l2.3,0.7
			l-0.1,0.4c-0.9,2.9-3,5.4-6.2,7.2c-2.3,1.4-4.5,1.9-4.5,1.9L36.9,45.4z M37.4,43.8l0.1,0.5c0.7-0.2,2.2-0.7,3.9-1.7
			c2.8-1.6,4.8-3.8,5.7-6.3l-0.5-0.2c-0.8,2.4-2.6,4.3-5.4,5.9C39.6,43,38.1,43.5,37.4,43.8z M20.6,23.9l-1.7-1.7l11-11l1.7,1.7
			L20.6,23.9z M20.2,22.2l0.4,0.4l9.7-9.7l-0.4-0.4L20.2,22.2z M20.7,18.2L19,16.5l5.8-5.8l1.7,1.7L20.7,18.2z M20.3,16.5l0.4,0.4
			l4.5-4.5L24.8,12L20.3,16.5z"/>
	</g>
</g>
</svg>
