<?xml version="1.0" encoding="utf-8"?>
<!-- Generator: Adobe Illustrator 21.0.0, SVG Export Plug-In . SVG Version: 6.00 Build 0)  -->
<svg version="1.1" id="图层_1" xmlns="http://www.w3.org/2000/svg" xmlns:xlink="http://www.w3.org/1999/xlink" x="0px" y="0px"
	 viewBox="0 0 28 28" style="enable-background:new 0 0 28 28;" xml:space="preserve">
<style type="text/css">
	.st0{fill:#EE6F3C;}
	.st1{fill:#FFFFFF;}
</style>
<circle class="st0" cx="14" cy="14" r="14"/>
<g>
	<path class="st1" d="M7.3,7h5.3V5h1.4V7h4.5v1.1c0.9-0.9,1.6-1.8,2.3-2.7L22,6.3c-1.2,1.6-2.5,3-3.9,4.3H23v1.4h-6.6
		c-1,0.7-2.1,1.4-3.1,2h8.6v1.3h-9.9l-0.7,2.1h9.6c-0.1,2.8-0.4,4.4-0.9,5c-0.5,0.5-1.4,0.8-2.7,0.8c-0.9,0-1.8,0-2.5-0.1l-0.5-1.3
		c1.1,0.1,2,0.1,2.7,0.1c1,0,1.7-0.2,2-0.5c0.2-0.3,0.4-1.2,0.5-2.7H9.5l0.9-3.2c-1.6,0.7-3.2,1.3-4.8,1.8L5,15.9
		c3.3-1,6.3-2.3,8.9-3.9h-8v-1.4h6.8V8.4H7.3V7z M15.9,10.5c0.9-0.7,1.8-1.4,2.5-2.2h-4.3v2.2H15.9z"/>
</g>
</svg>
