<?xml version="1.0" encoding="utf-8"?>
<!-- Generator: Adobe Illustrator 21.0.0, SVG Export Plug-In . SVG Version: 6.00 Build 0)  -->
<svg version="1.1" id="图层_1" xmlns="http://www.w3.org/2000/svg" xmlns:xlink="http://www.w3.org/1999/xlink" x="0px" y="0px"
	 viewBox="0 0 28 28" style="enable-background:new 0 0 28 28;" xml:space="preserve">
<style type="text/css">
	.st0{fill:#AF2930;}
	.st1{fill:#FFFFFF;}
</style>
<circle class="st0" cx="14" cy="14" r="14"/>
<g>
	<path class="st1" d="M4.8,10.9h4.2v8.6c0.5-0.5,1.1-1,1.8-1.7l0.4,1.5c-1.1,1.1-2.2,2-3.5,2.9l-0.6-1.3c0.3-0.2,0.4-0.5,0.4-0.8
		v-7.7H4.8V10.9z M7.2,5c1.3,1,2.4,2,3.3,3l-1,1C8.7,8,7.6,7,6.2,5.9L7.2,5z M11.9,5.5h9.9v7.6h-4.3V15h5.3v1.3h-4
		c0.9,1.7,2.4,3.3,4.5,4.7l-0.9,1.1c-2.2-1.8-3.8-3.7-4.7-5.9h-0.2V23h-1.3v-6.7h-0.2c-1,2.4-2.6,4.4-4.9,5.9l-0.7-1.2
		c2.1-1.2,3.5-2.8,4.5-4.7h-3.9V15h5.2v-1.9h-4.2V5.5z M13.2,8.8h2.9v-2h-2.9V8.8z M16.1,11.9v-2h-2.9v2H16.1z M17.5,6.8v2h3v-2
		H17.5z M20.4,11.9v-2h-3v2H20.4z"/>
</g>
</svg>
