<?xml version="1.0" encoding="utf-8"?>
<!-- Generator: Adobe Illustrator 21.0.0, SVG Export Plug-In . SVG Version: 6.00 Build 0)  -->
<svg version="1.1" id="图层_1" xmlns="http://www.w3.org/2000/svg" xmlns:xlink="http://www.w3.org/1999/xlink" x="0px" y="0px"
	 viewBox="0 0 48 48" style="enable-background:new 0 0 48 48;" xml:space="preserve">
<style type="text/css">
	.st0{fill:#18C295;}
</style>
<g>
	<path class="st0" d="M38.1,7.9H10.3l-4.6,9.3v23.1h37.1V17.1L38.1,7.9z M31,28.7l-6,7.1c-0.4,0.5-1.1,0.5-1.6,0l-6-7.1
		c-0.4-0.5-0.2-0.9,0.4-0.9h3.1c0.3,0,0.8,0,1.2,0V21c0-0.7,0.6-1.2,1.2-1.2H25c0.7,0,1.2,0.6,1.2,1.2v6.7c0.4,0,0.9,0,1.2,0h3.1
		C31.2,27.7,31.4,28.1,31,28.7z M10.6,15.7l2.5-5.2l22.2,0l2.6,5.2H10.6z"/>
</g>
</svg>
