<?xml version="1.0" encoding="utf-8"?>
<!-- Generator: Adobe Illustrator 21.0.0, SVG Export Plug-In . SVG Version: 6.00 Build 0)  -->
<svg version="1.1" id="图层_1" xmlns="http://www.w3.org/2000/svg" xmlns:xlink="http://www.w3.org/1999/xlink" x="0px" y="0px"
	 viewBox="0 0 48 48" style="enable-background:new 0 0 48 48;" xml:space="preserve">
<style type="text/css">
	.st0{fill-rule:evenodd;clip-rule:evenodd;fill:#F2735E;}
</style>
<path class="st0" d="M20.1,43.4c-0.8-0.8-0.8-2.1,0-2.9c0.3-0.3,0.3-0.7,0-1c-0.3-0.3-0.7-0.3-1,0c-0.8,0.8-2.1,0.8-2.9,0
	s-0.8-2.1,0-2.9c0.3-0.3,0.3-0.7,0-1c-0.3-0.3-0.7-0.3-1,0c-0.8,0.8-2.1,0.8-2.9,0c-0.8-0.8-0.8-2.1,0-2.9c0.3-0.3,0.3-0.7,0-1
	c-0.3-0.3-0.7-0.3-1,0c-0.8,0.8-2.1,0.8-2.9,0c-0.8-0.8-0.8-2.1,0-2.9c0.3-0.3,0.3-0.7,0-1c-0.3-0.3-0.7-0.3-1,0l0,0
	c-0.8,0.8-2.1,0.8-2.9,0c-0.8-0.8-0.8-2.1,0-2.9l8.2-8.2l1,1l16.3,16.3l1,1L23,43.4C22.2,44.2,20.9,44.2,20.1,43.4L20.1,43.4z
	 M15.2,16.3l-1-1l0,0l1-1l0,0l4.4-4.3c0.5-0.5,1.4-0.5,1.9,0l6.1,6.1L37,5.2l0,0c1.6-1.6,4.2-1.6,5.8,0c1.6,1.6,1.6,4.2,0,5.8
	c-0.1,0.1-0.3,0.3-0.4,0.4l-10.5,9l6.1,6.1c0.5,0.5,0.5,1.4,0,1.9l-5.3,5.3L15.2,16.3L15.2,16.3z M41.8,6.2c-1.1-1.1-2.8-1.1-3.9,0
	s-1.1,2.8,0,3.9c1.1,1.1,2.8,1.1,3.9,0C42.9,9,42.9,7.3,41.8,6.2L41.8,6.2z"/>
</svg>
