<?xml version="1.0" encoding="utf-8"?>
<!-- Generator: Adobe Illustrator 21.0.0, SVG Export Plug-In . SVG Version: 6.00 Build 0)  -->
<svg version="1.1" id="图层_1" xmlns="http://www.w3.org/2000/svg" xmlns:xlink="http://www.w3.org/1999/xlink" x="0px" y="0px"
	 viewBox="0 0 750 294" style="enable-background:new 0 0 750 294;" xml:space="preserve">
<style type="text/css">
	.st0{clip-path:url(#SVGID_2_);}
	.st1{opacity:0.1;fill:#33b679;}
</style>
<g>
	<defs>
		<rect id="SVGID_1_" x="1" width="750" height="294"/>
	</defs>
	<clipPath id="SVGID_2_">
		<use xlink:href="#SVGID_1_"  style="overflow:visible;"/>
	</clipPath>
	<g class="st0">
		<path class="st1" d="M0,95c0,0,168-34,306,43s231,159,266,166s113,22,178-28s66,36,66,36l-16,124L-7,489l-56-134L0,95z"/>
		<path class="st1" d="M-15,251c0,0,132,25,320-28S572,51,788,110s111,279,111,279l-213,84l-738-11L-15,251z"/>
		<path class="st1" d="M-38,199c0,0,397,260,825-29s81,221,81,221L394,511l-535-74L-38,199z"/>
	</g>
</g>
</svg>
