<?xml version="1.0" encoding="utf-8"?>
<!-- Generator: Adobe Illustrator 21.0.0, SVG Export Plug-In . SVG Version: 6.00 Build 0)  -->
<svg version="1.1" id="图层_1" xmlns="http://www.w3.org/2000/svg" xmlns:xlink="http://www.w3.org/1999/xlink" x="0px" y="0px"
	 viewBox="0 0 240 240" style="enable-background:new 0 0 240 240;" xml:space="preserve">
<style type="text/css">
	.st0{fill:none;stroke:#FFFFFF;stroke-width:2;stroke-miterlimit:10;}
</style>
<g>
	<g>
		<path class="st0" d="M124.3,103.6c3.6-4.7,7.4-9.6,9.5-15.2c1.2-3.1,1.2-7.1,0.6-10.4c-0.5-3.2-1.8-6.6-5.3-7.5
			c-2.7-0.7-6.4,0.9-5.9,4.1c1.4,8.6,13.5,4.5,17.3,0.4c3.9-4.2-0.6-14.2-6.6-13.2c-0.8,0.1-1.4,0.4-2.1,0.8
			c-0.3,0.1-0.4,0.5-0.3,0.8c2.4,7.1,10.5,4.5,15,1.1c2.4-1.8,4.7-4.4,5.3-7.5c0.2-1.3,0-2.5-0.6-3.7c-0.8-1.5-2-1.9-3.4-2.5
			c-0.4-0.2-0.8,0.4-0.4,0.7c10.7,6-11.1,22.4-14.7,11.4c-0.1,0.3-0.2,0.5-0.3,0.8c5.3-2.9,10.3,6.3,7,10.3c-2,2.5-5.7,3.9-8.8,4.3
			c-2.9,0.4-6.2-1.1-6.3-4.3c-0.1-1.9,2.3-2.4,3.7-2.3c1.6,0,2.8,1.2,3.6,2.5c1.5,2.4,1.7,5.7,1.6,8.5c-0.1,7.8-5.5,14.4-9.8,20.4
			C123.3,103.5,124,104,124.3,103.6L124.3,103.6z"/>
	</g>
	<g>
		<path class="st0" d="M139.8,158.2c0.5-2.3,0.8-5-0.5-6.9c-1.1,0-2.3-0.8-3.2-1.2c-2.2-1-4.2-1.9-6.4-1.2c-0.4,0.5-0.9,1-1.4,1.5
			c-1.4,1.1-3.2,2.2-5,2.7c0.9,0.8,1.7,1.8,2.1,3c0.5,1.5,0.5,3.1,0,4.5c2.7,0,6.2,1.7,7.7,2.4C136.9,164.7,139,161.8,139.8,158.2z"
			/>
		<path class="st0" d="M136.4,138.9c-1-1.6-1.7-3.3-2.1-5c-1.2,2.2-3.1,4.2-5.4,4.2c0.7,0.9,1.3,1.9,1.7,2.8c0.8,2,0.8,4,0.2,5.9
			c0.6,0,1.2,0,1.8,0.1c0.1,0,0.1-0.1,0.2-0.1c1.2-0.4,2.3-0.5,3.1-1.6c0.3-0.5,0.6-0.9,0.8-1.4c0-1.5,0.1-3-0.3-4.5
			C136.4,139.1,136.4,139,136.4,138.9z"/>
		<path class="st0" d="M135.6,127.2C135.6,127.2,135.6,127.2,135.6,127.2C135.6,127.2,135.6,127.2,135.6,127.2
			C135.6,127.2,135.6,127.2,135.6,127.2z"/>
		<path class="st0" d="M124.9,191.1c2.2-1.5,5.2-5.2,3.4-7.9c0,0,0,0,0-0.1c0,0,0,0,0,0c-3-0.1-6.3-1.6-8.6-3.9c-0.1,0-0.1,0-0.2,0
			c-1.1-0.1-1.8-0.5-2.8,0.5c-0.8,0.8-1.6,1.6-2.1,2.6c-1.3,2.4-0.8,5-0.1,7.5c0.7,0.7,1.5,1.2,2.3,1.6
			C119.3,192.5,122.5,192.8,124.9,191.1z"/>
		<path class="st0" d="M112.8,202.9c1-0.9,2.1-1.6,3.2-1.8c0,0,0-0.1,0-0.1c0.2-0.8,0.8-1.4,1-2.2c0.1-0.7,0-1.4-0.1-2
			c-0.1-0.7-0.3-1.4-0.4-2.1c0,0,0,0,0,0c0,0,0,0,0,0c-0.3,2.9-2.1,5.2-4.5,6.6c0.1,0.1,0.2,0.2,0.3,0.3
			C112.5,202.1,112.8,202.5,112.8,202.9z"/>
		<path class="st0" d="M105.7,200.6c5.8,1.2,8.4-3.2,9.1-8.2c-2.7-1.8-4.4-4.5-4.8-7.5c-0.3,0.8-0.7,1.6-1.2,2.3
			c-2,2.7-5.1,4.1-8.3,3.6c-1.5,1.4-1.2,4.6-0.2,6.1C101.6,198.7,103.5,200.2,105.7,200.6z"/>
		<path class="st0" d="M135.5,174.7c1-3.3,0.6-5.6-0.9-8.3c-0.2-0.3-0.4-0.6-0.6-0.9c0,0,0,0,0-0.1c0,0-0.1-0.1-0.1-0.1c0,0,0,0,0,0
			c-1.8-0.5-3.2-1.9-5.1-2.3c-1-0.2-3.3-0.8-4.6-0.3c-0.4,0.6-0.9,1.2-1.4,1.7c-0.9,1-2.2,2.3-3.6,3.2c-3.9,5.7,3.9,15.3,10.3,13.4
			C132.5,180.2,134.6,177.7,135.5,174.7z"/>
		<path class="st0" d="M105.8,115.2c0.5,1.5,0,2.6-0.8,3.6c1.3-0.6,2.6-1,3.7-1.1c-1-2.5,0.8-5.4,2.7-7.1c0.3-0.3,0.6-0.5,1-0.8
			c-0.2-0.3-0.3-0.6,0-1c1.1-1.5,1-2.8-0.8-3.8c-1.2-0.7-2.7-1.3-4.1-1.4c-4.1-0.4-6.1,3.4-5.6,7
			C103.7,111.6,105.2,113.1,105.8,115.2z"/>
		<path class="st0" d="M139.7,114.2c0,0,0,0.1-0.1,0.1C139.7,114.3,139.8,114.3,139.7,114.2C139.8,114.2,139.8,114.2,139.7,114.2z"
			/>
		<path class="st0" d="M110,117.7c0.1,0,0.2,0,0.3,0.1c2.9,0.8,6.1,3.2,7.6,6.1c1.2-2.3,3.5-3.8,6-4.3c0,0,0.1-0.1,0.1-0.1
			c2.1-1.8,1-5.3-0.7-6.9c-1.4-1.3-3.3-2.3-5.2-2.3C113.7,110.1,110.3,113.3,110,117.7z"/>
		<path class="st0" d="M100.8,116.8c0-0.2,0-0.5,0-0.7c-0.1-0.3-0.1-0.6-0.3-0.9c0.1,0.4,0.2,0.9,0.2,1.3
			C100.8,116.6,100.8,116.7,100.8,116.8z"/>
		<path class="st0" d="M126.3,113.1c0.8,1.9,1.3,4.3,0.4,6.2c2.5,0.1,4.9,1.1,6.6,3.1c-0.1-1.1,0-2.1,0.4-3.1
			c-2.7-0.1-4.8-2.5-5.9-4.9c-0.9-1.9-0.8-4.2,0-6.1c-0.4-0.4-0.7-0.9-1.3-1.1c-2.1-0.6-3.6,0.5-5,1.8
			C123.6,109.8,125.4,111.2,126.3,113.1z"/>
		<path class="st0" d="M134.5,117.9c0.6-0.8,1.4-1.4,2.3-1.9c0-0.1,0-0.1,0.1-0.2c1.5-2,2.1-4.4,1.4-6.8c-0.3-1.2-0.8-2.4-1.8-3.2
			c-0.7-0.6-1.6-0.5-2.3-0.9c-2.8,0.8-5,3.1-4.9,6.2C129.2,113.7,131.2,117.9,134.5,117.9z"/>
		<path class="st0" d="M96.2,163.1c-2.6,5,0.3,8.9,4.2,11.4c0.9,0.2,1.8,0.4,2.4,0.5c3,0.6,6.9,1.4,8.2-2.3
			c1.1-3.2,0.9-7.1-0.4-10.3c-0.3-0.7-0.6-1.4-1-2c-2.3-0.9-4.3-2.1-7-1.5C100.1,159.4,97.4,160.6,96.2,163.1z"/>
		<path class="st0" d="M111.9,139c1,0.9,1.8,1.8,2.4,2.6c2.1,2.7,3.3,6,2.5,9c0.9,0,1.9,0.2,2.8,0.5c3,0.1,5.6-0.2,7.9-2.8
			c1.9-2.2,2.4-4.9,0.9-7.5c-1.4-2.3-3.4-4.3-5.9-5.4c-2.7-1.3-4.6-1.2-7-0.3C114.5,136.5,113.1,137.7,111.9,139z"/>
		<path class="st0" d="M123.2,133.5c1.1-0.2,2.3,0.1,3.4-0.3c1.6-0.5,2.9-1.6,3.8-3c0.9-1.5,1.7-3.5,1.1-5.2c-0.3-1-0.9-1.7-1.2-2.6
			c-1.9-1.2-4.3-1.8-6.4-1.1c-3.8,1.3-4.3,4.3-5,7.8c0,0.1,0,0.1-0.1,0.2c-0.2,1.2-0.7,2.4-1.4,3.5
			C119.2,132.2,121.3,132.6,123.2,133.5z"/>
		<path class="st0" d="M131.8,200.9c0-0.1-0.1-0.1-0.1-0.2c-0.1,0-0.1,0.1-0.2,0.1C131.7,200.9,131.8,200.9,131.8,200.9z"/>
		<path class="st0" d="M132.3,190c0-0.1-0.1-0.1-0.1-0.2c-1-0.3-1.9-0.8-2.4-1.5c-0.8,1.6-2.1,3.1-3.4,4c-2.2,1.5-4.8,2.1-7.4,1.8
			c0.4,4.1,5.5,7.7,9.6,6.2C132.3,199,134.9,193.3,132.3,190z"/>
		<path class="st0" d="M150.4,118c0.1,0,0.2,0,0.3,0c5.7,2.1,10.1-7.4,6-11.2c-4.3-4.1-10.5,1.2-11.9,5.6
			C147.1,113.2,149.3,115.4,150.4,118z"/>
		<path class="st0" d="M135,122.4c1.2,4.9,6.8,6.7,11,4c2.8-1.8,4.6-5.3,2.6-8.4c-1.3-2-4-4.5-6.4-3.5c-0.4,0.4-0.8,0.8-1.3,1.2
			C138.6,117.3,134.1,118.8,135,122.4z"/>
		<path class="st0" d="M117.7,176.6c0-0.1-0.1-0.1-0.1-0.2c-0.9-2.1-1.7-5.3-0.9-7.6c-0.7,0.2-1.5,0.1-2.2-0.1
			c-0.2-0.1-0.4-0.2-0.6-0.4c0.5,2.5,0,6.4-1.2,9.4C114.2,176.6,116.1,176.2,117.7,176.6z"/>
		<path class="st0" d="M100.4,155.7c0.1,0,0.2,0,0.3,0c-0.1-0.1-0.2-0.1-0.3-0.2C100.4,155.6,100.4,155.7,100.4,155.7z"/>
		<path class="st0" d="M121.5,163c0.3-0.3,0.6-0.7,0.8-1c0.1-0.2,0.2-0.4,0.4-0.6c0.1-0.2,0.3-0.5,0.4-0.7c-1-2.6-5-5.1-7.8-4.8
			c-2,0.2-3.7,1.8-5.7,1.4c0,0,0,0-0.1,0c-0.1,0-0.3,0.1-0.4,0.1c1.6,1.2,2.9,2.8,3.6,5.1c0.1,0.3,0.2,0.7,0.3,1
			c0.9,1.9,2.2,4.1,3.8,3.2C118.5,165.7,120.2,164.5,121.5,163z"/>
		<path class="st0" d="M95.5,121.1c0.8,0.3,1.6,0.8,2.3,1.3c0.1,0.1,0.3,0.2,0.4,0.3c-0.1-2.3,1-4.5,0.5-6.9
			c-0.4-1.5-1.1-2.5-2.6-2.9c-0.2-0.1-0.4-0.2-0.5-0.3c-0.8,0.1-1.5,0.4-2.1,0.8c-0.4,0.4-0.7,0.8-1,1.2c-1.2,1.7-2,3.7-1.2,5.6
			C92.6,120,94.4,120.7,95.5,121.1z"/>
		<path class="st0" d="M102.8,156.9c-0.1,0-0.2-0.1-0.3-0.1c0,0.1,0,0.1-0.1,0.2C102.5,156.9,102.7,156.9,102.8,156.9z"/>
		<path class="st0" d="M93,183.1c1,2.8,3.7,4.9,6.6,5.6c6.9,1.6,11.4-5.7,7.1-11.4c0,0,0,0,0,0c-1.7,0-3.5-0.4-5.1-0.8
			c-1.5-0.4-3.8-0.9-5.6-1.9c0,0.1-0.1,0.2-0.2,0.2C93.2,176,92.1,180.5,93,183.1z"/>
		<path class="st0" d="M112,120.6c-0.5-0.2-0.9-0.4-1.3-0.6c-2.7,0.9-5.2,1.3-6.8,4.1c-0.9,1.6-1.5,3.5-1.7,5.4
			c0.6,1.8,1.3,3.8,0.9,5.6c2.4-0.6,5.2,0.7,7.5,2.5c1.9-2.3,4.4-4.1,5.7-6.8C118,127,115.8,122.6,112,120.6z"/>
		<path class="st0" d="M98.7,150.9c0.7,0.9,1.3,1.7,1.9,2.1c3.6,3.2,9.3,3.9,12.7-0.1c0.4-0.5,0.7-0.9,1-1.4c-0.2-1-0.2-2-0.4-3
			c-0.6-2.2-1.7-3.9-3.7-5.1c-3.3-2-7-1.9-10.2,0.2C98.8,145.9,98.1,148.5,98.7,150.9z"/>
		<path class="st0" d="M90.6,159.5c1.6-0.5,2.9-1.4,4.3-2.3c1.7-1.1,3.5-2.7,2.6-4.8c-0.5-0.6-0.9-1.2-1.3-1.9
			c-0.4-0.5-0.7-1-0.9-1.5c-0.2-0.4-0.4-0.8-0.5-1.3c-1.3-0.2-2.6-0.6-3.9-0.8c-0.1,0-0.1,0.1-0.2,0.1c-2.2,0.7-3.9,1.1-5.3,3.2
			c-1.2,1.9-1.4,3.6-1.5,5.8c0,0.1,0,0.1,0,0.2C85.4,158,88.1,160.3,90.6,159.5z"/>
		<path class="st0" d="M119.5,218.8c3.2-0.8,4.7-3.5,4.9-6.5c-0.1-0.1-0.2-0.2-0.3-0.3c-1.3-3.1-3.2-4.7-6.8-4.5
			c-3,0.2-6.1,1.6-7.1,4.5C110.4,216.9,114.5,220.1,119.5,218.8z"/>
		<path class="st0" d="M144.9,178.6c0.1,0.6,0.2,1.3,0.2,1.9c0.9-0.7,1.7-1.6,2-2.9c0.3-1.7,0.1-4-1.2-5.3c-0.9-0.9-2-1.5-3-1.7
			c0.4,1.2,0,3.3-0.4,4.3C143.6,176,144.6,177.3,144.9,178.6z"/>
		<path class="st0" d="M130.7,201.7c0-0.1,0-0.1,0-0.2c-0.7,0.4-1.4,0.6-2.1,0.7c-2,0.3-4.9-0.3-7.2-1.6c-0.2,0.3-0.5,0.6-0.7,0.9
			c-0.2,0.2-0.2,0.5-0.3,0.7c1.7,0.5,3.3,1.3,4.3,2.9c1.1,1.9,1.7,4.2,1.7,6.4c2.2,1.8,6.4,1.7,7.4-1.5c0.5-1.7,0.6-3.6-0.3-5.1
			C132.7,203.7,131.2,203,130.7,201.7z"/>
		<path class="st0" d="M117,229.1c-2.3-0.5-4.4-1.5-5.8-3.3c-1.7,1-1.4,4.9-0.6,6.2c1.2,1.9,3,3.6,5.4,3.8c4.3,0.3,9.8-3.4,8-8.3
			C122.1,229.2,119.3,229.6,117,229.1z"/>
		<path class="st0" d="M122.4,219.4c-1.9,1.2-4.3,1.7-7.1,1c-1-0.2-1.9-0.6-2.7-1.1c-0.1,0.1-0.1,0.2-0.3,0.3
			c-4.1,2.6,2.5,7.1,5.1,7.6c3.9,0.6,8.3-2.5,6.1-6.7c0,0,0-0.1,0-0.1C123.1,220.2,122.7,219.9,122.4,219.4z"/>
		<path class="st0" d="M123.8,218.2c0.5,0.3,0.9,0.5,1.5,0.3c0.7-0.2,1.3-0.6,1.8-1.1c0.5-0.5,1-1.1,1.3-1.8
			c0.1-0.2,0.2-0.5,0.2-0.8c-1-0.1-2-0.5-2.7-1.1C125.7,215.5,124.9,217.1,123.8,218.2z"/>
		<path class="st0" d="M130.2,182.9c0.5,1,0.6,2,0.4,3.1c0,0,0.1,0.1,0.1,0.1c1.5,3.3,6.9,2.1,9.2,0.2c1.7-1.5,3.6-3.8,3.3-6.2
			c-0.3-2.8-3-4.8-5.7-5.2C136.4,178.6,133.7,182,130.2,182.9z"/>
		<path class="st0" d="M135.4,190.1c2.8,2.2,3.1,9.1,0.3,11.6c2.3,1,5.8,0.9,7.3-0.1c5-3.5,2.9-12.3-3.3-12.9
			C138.4,189.5,136.9,190,135.4,190.1z"/>
		<path class="st0" d="M157.4,120.4c-2-0.3-4.1,0.1-6.1,0.3c0,0-0.1,0-0.1,0c0.1,1.1,0,2.3-0.5,3.3c-0.6,1.1-1.4,2.2-2.4,3
			c0.2,0,0.4,0.2,0.5,0.4c0.2,0.3,0.4,0.6,0.6,0.9c1.2,0.6,2,1.6,2.6,2.8c1.6,1.3,3.4,2,5.5,1.6c2.6-0.6,5.1-2.6,4.9-5.5
			C162.3,124.1,160.6,120.9,157.4,120.4z"/>
		<path class="st0" d="M140.6,143.2c0,0.1,0.1,0.2,0.1,0.3c0-0.1,0-0.1,0-0.2C140.7,143.3,140.6,143.2,140.6,143.2z"/>
		<path class="st0" d="M86.3,125.8c-2.4,4.1-2.5,9.8,2.4,12.2c2.2,1.1,4.9,1.7,7.3,1.1c2.3-0.6,5.3-2.2,5.2-4.9
			c-0.1-1.9-1.1-3.5-1.4-5.3c-0.1-1-0.1-2.2-0.4-3.3c0,0-0.1-0.1-0.1-0.1c-0.1-0.2-0.1-0.3-0.2-0.5c-0.1-0.2-0.3-0.4-0.5-0.6
			c-1-0.4-1.8-1-2.8-1.4C92.4,121.9,88.2,122.4,86.3,125.8z"/>
		<path class="st0" d="M147.7,144c-1.5,0.6-2.9,0.7-4.4,0.4c1.3,1.2,2.3,2.4,4.2,2.8c1.6,0.3,3.4,0,4.7-1c1.5-1.1,2.6-2.8,2.6-4.6
			c0.1-2.3-0.8-3.9-2-5.7C152.6,139.2,150.8,142.7,147.7,144z"/>
		<path class="st0" d="M141.5,158.2c0,0,0,0.1,0,0.2c-0.1,1.5-0.5,2.9,0.5,4.3c1,1.3,2,0.3,2.9-0.5c0,0,0,0,0,0
			c0.1-0.1,0.1-0.3,0.2-0.4c0.9-2,1.6-4.6,0.9-6.8c-0.8-2.5-2.5-3.2-4.6-3.7C142,153.2,141.9,156,141.5,158.2z"/>
		<path class="st0" d="M146.3,142.5c2.8-0.9,4.9-3.7,4.8-6.7c-0.1-4.1-2.2-5.7-5.7-7c-0.1,0-0.1,0-0.1-0.1c-3.1,1.2-6.7,1.1-9.3-1.1
			c-0.2,3.5-0.2,6.9,1.8,10c0.9,1.4,2.3,3,3.9,4.1c0.3,0,0.6,0.2,0.8,0.4C143.6,142.7,145,142.9,146.3,142.5z"/>
		<path class="st0" d="M82.9,131.4c0-2.4,0.8-5,2.3-7.2c1.1-1.5,2.5-2.5,4.1-3c-2.8-3.4-7.5-2.3-11.3-1.6c-3.2,1.6-4.5,5.2-2.7,8.5
			c1.2,2.2,5.5,8.5,7.5,3.5C82.8,131.5,82.8,131.4,82.9,131.4z"/>
		<path class="st0" d="M82.8,137.2C82.8,137.2,82.8,137.2,82.8,137.2c-0.1,0.2-0.1,0.3-0.2,0.4C82.7,137.5,82.8,137.4,82.8,137.2z"
			/>
		<path class="st0" d="M80,140.8c0.1-0.1,0.2-0.1,0.3-0.2c-0.1,0-0.1,0-0.2-0.1C80.1,140.6,80,140.7,80,140.8z"/>
		<path class="st0" d="M73.9,129.4c-0.1,0-0.1,0-0.2,0c-2.9,0.1-5.5,4-5.3,6.7c0.3,2.8,2.4,5.4,5.2,5.9c0.9,0.2,1.8,0.2,2.7,0.1
			c0.9-0.4,1.6-1.1,2-2.4c0.5-1.8,0.5-3.4,0.1-5.1C76.5,133.5,74.9,131.3,73.9,129.4z"/>
		<path class="st0" d="M85,144.7c1.2,0,2.5-0.3,3.4-0.2c0.6,0,1.2,0.1,1.8,0.2c0.9,0,1.8,0.1,2.6,0.3c2.1-0.1,4.3-1.8,2.8-4
			c0,0,0-0.1-0.1-0.1c-2.9,0.4-6.1-0.3-8.5-1.8c-0.8-0.6-1.5-1.2-2.1-1.9c-0.4,1.6-1.4,3.1-2.6,4.2c-0.1,0.7-0.1,1.3,0.1,1.9
			c0.3,0.7,0.8,1.1,1.4,1.3C84.3,144.5,84.6,144.5,85,144.7z"/>
		<path class="st0" d="M96.6,146.5C96.6,146.5,96.6,146.5,96.6,146.5c-0.1,0.1,0,0.1,0,0.2C96.6,146.6,96.6,146.6,96.6,146.5z"/>
		<path class="st0" d="M78.6,117.6c0.6-0.1,1.2-0.3,1.8-0.4c1.8-0.3,6.2-0.4,8.6,1c0-0.1,0-0.2,0-0.3c0,0,0-0.1,0-0.1
			c0.2-3.8-5.2-5.6-8.6-5.2c-0.9,0.4-1.6,1.4-2,2.2c-0.3,0.5-0.6,1.4-0.4,2C78.1,117.1,78.5,117.2,78.6,117.6z"/>
		<path class="st0" d="M87.7,173.9c1,0.4,2.1,0.6,3.2,0.5c1.6-0.1,3-0.3,3-1.6c-0.3-0.5-0.5-1-0.5-1.6c-1.3-2.6-2.9-5.8-2.4-8.6
			c-0.8,0.2-1.6,0.5-2.4,1.3c-0.9,0.9-1.9,2-2.3,3.2C85.6,169.3,85.9,172.4,87.7,173.9z"/>
		<path class="st0" d="M97.7,193.3c0-0.3,0.1-0.6,0.1-0.9c-0.3,0.2-0.7,0.5-1,0.6C97.1,193.1,97.4,193.1,97.7,193.3z"/>
		<path class="st0" d="M111.2,203.4c-0.1-0.2-0.2-0.4-0.3-0.6c-0.2-0.3-0.4-0.4-0.7-0.6c-1.4,0.5-2.9,0.6-4.4,0.4
			c0,0.3-0.4,0.5-0.7,0.4c-1.8-0.5-2.6,0.3-3.3,2c-0.7,1.5-1.2,3.2-1.3,4.9c-0.2,3.6,5.3,6.4,8.5,5.1c-0.8-2.2-0.7-4.9,0.3-7.4
			c0.4-0.9,1.3-2.3,2.4-3.5C111.5,203.9,111.3,203.7,111.2,203.4z"/>
		<path class="st0" d="M100.3,213.9c-0.3,1.8-0.6,3.5,0.4,5.2c0.9,1.6,2.4,2.4,3.6,3.6c1.3,0.2,2.5,0.1,3.6-0.2
			c-0.1-0.2-0.1-0.5,0.1-0.8c1.1-1.4-0.9-3.2-1.9-4.6C103.9,216.8,101.7,215.6,100.3,213.9z"/>
		<path class="st0" d="M102.6,201.4c-2.5-1.4-4.9-3.8-5-6.8c-0.5,0.2-1,0.4-1.6,0.6c-1.6,1.8-3.8,3.4-3.5,6c0.4,3.7,3.9,3.2,6.4,4.2
			c0.1,0,0.2,0.1,0.2,0.2c0.1,0,0.2-0.1,0.3-0.1c0.1-0.1,0.2-0.1,0.3-0.1c0.4-1.2,1-2.3,1.8-3.1
			C101.8,201.9,102.2,201.6,102.6,201.4z"/>
		<path class="st0" d="M89,176.6c-1.1,0.5-2.2,1.3-1.5,2.6c0.6,1.2,1.7,1.8,3,2c0.2,0,0.3,0.1,0.4,0.2c0-1.5,0.3-3.5,1-5.2
			c-0.9,0.1-1.8,0-2.7-0.2C89.3,176.3,89.2,176.5,89,176.6z"/>
		<path class="st0" d="M97.8,190c-2.8-1.2-5.5-3.3-6.5-6.1c-1.3,0.6-2.7,0.6-4,0.2c-0.7,0.8-1,2.5-0.9,3.3c0.2,1.9,2.2,3.2,3.9,3.7
			c1.4,0.4,4.3,1.2,5.7,0.3C96.7,191.1,97.3,190.5,97.8,190z"/>
		<path class="st0" d="M161.1,120c-1.3-0.9-2.7-1.4-4.2-1.5c0.9-0.8,1.7-1.7,2.2-2.6c1.7-3,1.7-7-0.3-9.8c-3.5-4.9-12.9-1.8-15,3.4
			c0-0.1,0-0.1,0-0.2c-1.1-5.7-8.4-8.7-13.1-5c-0.7,0.6-1.3,1.3-1.9,2.1c-2.2-2.5-8-1.1-8.9,2.1c-0.2-0.1-0.4-0.1-0.7-0.1
			c-1.5-0.3-3-0.1-4.4,0.3c1.6-3.6-3.6-6.4-6.9-6.8c-2.5-0.3-4.8,0.4-6.3,2.5c-1.1,1.5-2,3.8-1.6,5.7c-0.7-0.2-1.5-0.3-2.2-0.3
			c-2.5-0.1-5.9,2.3-7.6,5.1c-1.2-1.7-3.6-2.9-5.2-3.5c-4.4-1.6-8.7,0-10.9,3.9c-1.3,2.3-0.4,3.9,1.3,4.4c-0.9,0.7-1.6,1.7-2.2,2.7
			c-1.1,1.9-0.7,3.8,0,5.7c-2.8-0.4-5.5,3.1-6.2,5.4c-1.2,4.1,0.8,8,4.6,9.9c2.8,1.4,6.2,0.9,8.9-0.6c0,0.6,0.1,1.1,0.3,1.6
			c0.3,0.7,0.7,1.3,1.2,1.6c-1,1.3-1.8,3.1-2.1,4c-1.3,3.6,1.7,7.8,4.9,9.9c-1.7,0.9-3,3.1-3.5,4.8c-1,3.6,0.6,8,3.8,10.1
			c-2.1,0.8-3.4,3.2-2.4,5.6c0.5,1.3,1.5,2.3,2.7,3.1c-0.4,0.5-0.6,1.2-0.8,1.9c-0.5,2.2-0.3,4,1.3,5.7c1.8,2,4.8,2.6,7.3,2.8
			c0.5,0,0.9,0,1.3,0c-0.6,0.3-1.2,0.7-1.5,1c-2.3,1.7-4,4.5-3.8,7.5c0.3,3.6,6.1,7.1,9.7,5.7c-0.1,0.5-0.2,1-0.3,1.5
			c-0.1,0.8,0,1.6,0.3,2.4c-3.7,1.2-2.6,7.3-0.8,9.8c2.1,2.9,8.5,4.3,11.6,2.1c0.1,0.2,0.1,0.4,0.2,0.6c0.1,0.1,0.1,0.3,0.2,0.4
			c-1.6,0.5-2.1,3.1-2.2,4.6c-0.3,3.3,2.7,6.6,5.6,7.6c6.3,2.2,14.9-3.4,11.5-10.6c0-0.1-0.1-0.1-0.1-0.1c0.9-1.6,1.6-4.2,0.6-5.6
			c0.9-0.2,1.7-0.7,2.3-1.1c0.9-0.7,2.9-3,2.6-4.6c1.7-0.3,3.4-1.2,4.3-2.5c1.4-2.1,1.5-4.6,0.8-6.9c-0.2-0.6-0.5-1.4-1-2
			c0.2,0.1,0.5,0.2,0.7,0.3c3,1.1,6.6,1.2,9.2-0.7c3.1-2.2,3.8-6.3,2.8-9.7c-0.7-2.3-3-5.1-5.5-5.9c1.2-1.1,2.2-2.5,2.7-4
			c4.6-1.4,5.6-7.8,3.1-11.5c-1.3-1.9-4.6-3.4-7.4-3.3c2.7-0.8,5.3-3.2,6.6-5.7c1.4-2.7,1.8-5.9,0.9-8.8c-0.8-2.6-3.3-4.5-5.9-4.8
			c0.4-0.8,0.6-1.8,0.7-2.8c2.1,3.2,7.5,3.5,10.6,1.5c5.4-3.4,3.8-10.2,0.3-14.2c4,1.4,8.5,0.4,10.4-4.3
			C165.2,126.3,163.6,121.9,161.1,120z M156.8,106.8c4.1,3.8-0.3,13.3-6,11.2c-0.1,0-0.2-0.1-0.3,0c-1.1-2.5-3.3-4.8-5.5-5.5
			C146.3,108.1,152.5,102.8,156.8,106.8z M142.2,114.6c2.4-1.1,5.1,1.4,6.4,3.5c2,3.1,0.2,6.6-2.6,8.4c-4.2,2.7-9.8,0.9-11-4
			c-0.9-3.6,3.6-5,5.9-6.6C141.4,115.4,141.8,115,142.2,114.6z M128.7,200.3c-4.1,1.5-9.2-2.1-9.6-6.2c2.6,0.3,5.2-0.3,7.4-1.8
			c1.3-0.9,2.6-2.4,3.4-4c0.5,0.8,1.4,1.3,2.4,1.5c0,0.1,0.1,0.1,0.1,0.2C134.9,193.3,132.3,199,128.7,200.3z M131.8,200.9
			c-0.1,0-0.2,0-0.3,0c0.1,0,0.1-0.1,0.2-0.1C131.8,200.8,131.8,200.9,131.8,200.9z M122.7,135.4c2.4,1.1,4.5,3.1,5.9,5.4
			c1.5,2.6,1,5.3-0.9,7.5c-2.3,2.6-4.9,2.9-7.9,2.8c-0.9-0.3-1.9-0.5-2.8-0.5c0.8-3-0.4-6.3-2.5-9c-0.6-0.8-1.5-1.7-2.4-2.6
			c1.3-1.2,2.6-2.5,3.8-3.8C118.1,134.3,120,134.2,122.7,135.4z M117.4,132.8c0.7-1.1,1.2-2.2,1.4-3.5c0,0,0.1-0.1,0.1-0.2
			c0.7-3.5,1.2-6.5,5-7.8c2.2-0.8,4.6-0.1,6.4,1.1c0.3,0.9,0.9,1.6,1.2,2.6c0.6,1.8-0.2,3.8-1.1,5.2c-0.9,1.4-2.2,2.5-3.8,3
			c-1.1,0.4-2.3,0.1-3.4,0.3C121.3,132.6,119.2,132.2,117.4,132.8z M113.9,168.2c0.2,0.1,0.4,0.3,0.6,0.4c0.7,0.3,1.4,0.3,2.2,0.1
			c-0.9,2.3,0,5.5,0.9,7.6c0,0.1,0.1,0.1,0.1,0.2c-1.7-0.4-3.5,0.1-5,1.1C114,174.6,114.5,170.7,113.9,168.2z M116.8,166.7
			c-1.5,0.9-2.9-1.3-3.8-3.2c-0.1-0.4-0.2-0.7-0.3-1c-0.7-2.3-2-3.9-3.6-5.1c0.1,0,0.3-0.1,0.4-0.1c0,0,0,0,0.1,0
			c2,0.4,3.7-1.3,5.7-1.4c2.8-0.2,6.8,2.2,7.8,4.8c-0.1,0.2-0.3,0.5-0.4,0.7c-0.2,0.2-0.3,0.4-0.4,0.6c-0.3,0.4-0.5,0.7-0.8,1
			C120.2,164.5,118.5,165.7,116.8,166.7z M116.2,130.9c-1.3,2.8-3.9,4.5-5.7,6.8c-2.3-1.8-5.1-3.2-7.5-2.5c0.4-1.8-0.2-3.9-0.9-5.6
			c0.2-1.9,0.8-3.9,1.7-5.4c1.6-2.8,4.1-3.2,6.8-4.1c0.4,0.1,0.9,0.3,1.3,0.6C115.8,122.6,118,127,116.2,130.9z M110.1,143.4
			c2,1.2,3.2,2.9,3.7,5.1c0.3,1,0.2,2,0.4,3c-0.3,0.5-0.6,0.9-1,1.4c-3.4,4-9.1,3.3-12.7,0.1c-0.5-0.5-1.2-1.2-1.9-2.1
			c-0.6-2.4,0.1-5,1.2-7.3C103,141.6,106.8,141.4,110.1,143.4z M102.8,156.9c-0.1,0-0.3,0-0.4,0c0-0.1,0-0.1,0.1-0.2
			C102.6,156.8,102.7,156.8,102.8,156.9z M100.7,155.7c-0.1,0-0.2,0-0.3,0c0-0.1,0-0.1,0-0.2C100.5,155.6,100.6,155.7,100.7,155.7z
			 M102.6,158.9c2.7-0.5,4.7,0.6,7,1.5c0.4,0.6,0.8,1.2,1,2c1.3,3.2,1.5,7,0.4,10.3c-1.3,3.8-5.2,2.9-8.2,2.3
			c-0.6-0.1-1.4-0.3-2.4-0.5c-3.9-2.5-6.8-6.4-4.2-11.4C97.4,160.6,100.1,159.4,102.6,158.9z M95.8,174.8c0.1,0,0.2-0.1,0.2-0.2
			c1.8,1,4.2,1.5,5.6,1.9c1.5,0.4,3.3,0.8,5.1,0.8c0,0,0,0,0,0c4.3,5.6-0.2,13-7.1,11.4c-2.9-0.7-5.6-2.9-6.6-5.6
			C92.1,180.5,93.2,176,95.8,174.8z M100.5,190.8c3.2,0.5,6.3-0.9,8.3-3.6c0.5-0.7,0.9-1.5,1.2-2.3c0.4,3.1,2.2,5.7,4.8,7.5
			c-0.6,5.1-3.3,9.5-9.1,8.2c-2.2-0.5-4.1-1.9-5.3-3.7C99.4,195.5,99,192.2,100.5,190.8z M116.5,194.8
			C116.5,194.8,116.5,194.8,116.5,194.8C116.5,194.8,116.5,194.8,116.5,194.8c0,0.7,0.3,1.4,0.4,2.1c0.1,0.7,0.3,1.4,0.1,2
			c-0.1,0.8-0.7,1.4-1,2.2c0,0,0,0.1,0,0.1c-1.1,0.2-2.2,0.9-3.2,1.8c-0.1-0.4-0.3-0.8-0.6-1.2c-0.1-0.1-0.2-0.2-0.3-0.3
			C114.4,200,116.2,197.7,116.5,194.8z M116.8,191.4c-0.9-0.4-1.7-0.9-2.3-1.6c-0.7-2.5-1.2-5.1,0.1-7.5c0.6-1,1.3-1.9,2.1-2.6
			c1-0.9,1.6-0.5,2.8-0.5c0.1,0,0.1,0,0.2,0c2.3,2.3,5.7,3.9,8.6,3.9c0,0,0,0,0,0c0,0,0,0,0,0.1c1.8,2.7-1.2,6.4-3.4,7.9
			C122.5,192.8,119.3,192.5,116.8,191.4z M129.5,181.1c-6.5,1.9-14.2-7.7-10.3-13.4c1.4-1,2.7-2.3,3.6-3.2c0.5-0.5,1-1.1,1.4-1.7
			c1.3-0.5,3.6,0.1,4.6,0.3c1.9,0.4,3.3,1.8,5.1,2.3c0,0,0,0,0,0c0,0,0.1,0.1,0.1,0.1c0,0,0,0,0,0.1c0.2,0.3,0.4,0.6,0.6,0.9
			c1.5,2.7,1.9,5,0.9,8.3C134.6,177.7,132.5,180.2,129.5,181.1z M132.9,162.8c-1.4-0.7-5-2.4-7.7-2.4c0.5-1.4,0.5-2.9,0-4.5
			c-0.4-1.2-1.1-2.2-2.1-3c1.8-0.5,3.6-1.5,5-2.7c0.6-0.4,1-0.9,1.4-1.5c2.2-0.7,4.2,0.2,6.4,1.2c0.9,0.4,2.1,1.2,3.2,1.2
			c1.3,1.8,1,4.6,0.5,6.9C139,161.8,136.9,164.7,132.9,162.8z M136.8,143.6c-0.2,0.5-0.5,1-0.8,1.4c-0.8,1.1-1.9,1.2-3.1,1.6
			c-0.1,0-0.1,0.1-0.2,0.1c-0.6-0.1-1.2-0.2-1.8-0.1c0.6-1.9,0.6-3.9-0.2-5.9c-0.4-0.9-0.9-1.8-1.7-2.8c2.3,0.1,4.2-1.9,5.4-4.2
			c0.3,1.7,1.1,3.5,2.1,5c0,0.1,0,0.2,0,0.3C136.8,140.7,136.8,142.1,136.8,143.6z M135.6,127.2
			C135.6,127.2,135.6,127.2,135.6,127.2C135.6,127.2,135.6,127.2,135.6,127.2C135.6,127.2,135.6,127.2,135.6,127.2z M139.7,114.2
			C139.8,114.2,139.8,114.2,139.7,114.2c0,0.1,0,0.1-0.1,0.1C139.7,114.3,139.7,114.3,139.7,114.2z M134.1,104.8
			c0.7,0.4,1.6,0.3,2.3,0.9c1,0.8,1.5,2.1,1.8,3.2c0.7,2.5,0.1,4.8-1.4,6.8c0,0.1-0.1,0.1-0.1,0.2c-0.9,0.5-1.7,1.1-2.3,1.9
			c-3.2,0-5.2-4.2-5.3-6.9C129.1,108,131.4,105.6,134.1,104.8z M126.5,107.2c0.6,0.2,0.9,0.7,1.3,1.1c-0.8,2-0.9,4.2,0,6.1
			c1.1,2.5,3.2,4.9,5.9,4.9c-0.4,1-0.5,2.1-0.4,3.1c-1.7-2-4.2-3-6.6-3.1c0.9-1.9,0.5-4.3-0.4-6.2c-0.9-2-2.8-3.4-4.8-4.2
			C122.9,107.6,124.5,106.6,126.5,107.2z M118.2,110.2c2,0,3.8,1,5.2,2.3c1.7,1.6,2.8,5.1,0.7,6.9c0,0-0.1,0.1-0.1,0.1
			c-2.6,0.6-4.9,2.1-6,4.3c-1.6-2.9-4.8-5.2-7.6-6.1c-0.1,0-0.2-0.1-0.3-0.1C110.3,113.3,113.7,110.1,118.2,110.2z M107.5,103.7
			c1.5,0.1,2.9,0.7,4.1,1.4c1.7,1,1.9,2.2,0.8,3.8c-0.2,0.3-0.2,0.7,0,1c-0.3,0.2-0.7,0.5-1,0.8c-1.9,1.7-3.7,4.7-2.7,7.1
			c-1.1,0.2-2.4,0.6-3.7,1.1c0.8-1,1.2-2.1,0.8-3.6c-0.7-2.1-2.1-3.7-4-4.6C101.3,107.1,103.4,103.3,107.5,103.7z M100.9,116.1
			c0,0.2,0,0.5,0,0.7c0-0.1,0-0.2,0-0.3c0-0.5-0.1-0.9-0.2-1.3C100.7,115.5,100.8,115.8,100.9,116.1z M92.5,114.7
			c0.3-0.5,0.6-0.9,1-1.2c0.7-0.4,1.4-0.7,2.1-0.8c0.1,0.2,0.3,0.3,0.5,0.3c1.6,0.4,2.3,1.4,2.6,2.9c0.6,2.4-0.6,4.6-0.5,6.9
			c-0.1-0.1-0.3-0.2-0.4-0.3c-0.7-0.5-1.5-1-2.3-1.3c-1.1-0.5-2.9-1.2-4.2-0.8C90.5,118.4,91.3,116.5,92.5,114.7z M95.9,123
			c0.9,0.5,1.8,1,2.8,1.4c0.2,0.2,0.3,0.4,0.5,0.6c0,0.2,0.1,0.3,0.2,0.5c0,0,0,0.1,0.1,0.1c0.3,1,0.3,2.3,0.4,3.3
			c0.3,1.9,1.3,3.4,1.4,5.3c0.1,2.7-2.9,4.4-5.2,4.9c-2.4,0.6-5.1-0.1-7.3-1.1c-4.9-2.4-4.8-8.1-2.4-12.2
			C88.2,122.4,92.4,121.9,95.9,123z M96.6,146.5c0,0.1,0,0.1,0,0.2C96.6,146.6,96.6,146.6,96.6,146.5
			C96.6,146.5,96.6,146.5,96.6,146.5z M78.4,114.7c0.4-0.8,1.1-1.7,2-2.2c3.4-0.4,8.7,1.4,8.6,5.2c0,0,0,0.1,0,0.1
			c0,0.1,0,0.2,0,0.3c-2.4-1.4-6.8-1.3-8.6-1c-0.6,0.1-1.2,0.2-1.8,0.4c-0.1-0.4-0.5-0.5-0.6-0.9C77.8,116.1,78.1,115.3,78.4,114.7z
			 M78.4,139.7c-0.4,1.3-1,2-2,2.4c-0.9,0.1-1.8,0.1-2.7-0.1c-2.8-0.5-4.9-3.1-5.2-5.9c-0.3-2.7,2.4-6.6,5.3-6.7c0.1,0,0.1,0,0.2,0
			c1,1.9,2.6,4.1,4.5,5.2C78.8,136.3,78.9,137.9,78.4,139.7z M80,140.8c0-0.1,0.1-0.2,0.1-0.3c0.1,0,0.1,0.1,0.2,0.1
			C80.2,140.6,80.1,140.7,80,140.8z M75.3,128.1c-1.8-3.3-0.5-6.9,2.7-8.5c3.8-0.7,8.5-1.8,11.3,1.6c-1.6,0.5-3.1,1.5-4.1,3
			c-1.5,2.2-2.4,4.7-2.3,7.2c0,0.1-0.1,0.1-0.1,0.2C80.8,136.6,76.5,130.3,75.3,128.1z M82.8,137.2c0,0.1-0.1,0.3-0.2,0.4
			C82.7,137.5,82.8,137.4,82.8,137.2C82.8,137.2,82.8,137.2,82.8,137.2z M82.5,143.2c-0.2-0.6-0.2-1.2-0.1-1.9
			c1.1-1.1,2.2-2.6,2.6-4.2c0.6,0.7,1.3,1.3,2.1,1.9c2.3,1.6,5.5,2.2,8.5,1.8c0,0,0,0.1,0.1,0.1c1.5,2.2-0.7,4-2.8,4
			c-0.8-0.2-1.7-0.3-2.6-0.3c-0.6-0.1-1.2-0.2-1.8-0.2c-0.9,0-2.2,0.3-3.4,0.2c-0.4-0.2-0.7-0.2-1.1-0.1
			C83.3,144.3,82.8,143.9,82.5,143.2z M83.8,156.2c0-0.1,0-0.1,0-0.2c0.1-2.2,0.3-3.9,1.5-5.8c1.4-2.1,3.1-2.5,5.3-3.2
			c0.1,0,0.2-0.1,0.2-0.1c1.3,0.3,2.5,0.6,3.9,0.8c0.1,0.4,0.3,0.8,0.5,1.3c0.3,0.5,0.6,1,0.9,1.5c0.4,0.7,0.8,1.3,1.3,1.9
			c1,2.1-0.9,3.7-2.6,4.8c-1.4,0.9-2.7,1.8-4.3,2.3C88.1,160.3,85.4,158,83.8,156.2z M86.3,167.2c0.4-1.3,1.4-2.3,2.3-3.2
			c0.8-0.8,1.5-1.1,2.4-1.3c-0.5,2.8,1.1,5.9,2.4,8.6c0,0.6,0.2,1.1,0.5,1.6c0,1.2-1.4,1.5-3,1.6c-1.1,0-2.2-0.1-3.2-0.5
			C85.9,172.4,85.6,169.3,86.3,167.2z M92,176.3c-0.8,1.6-1,3.7-1,5.2c-0.1-0.1-0.3-0.2-0.4-0.2c-1.3-0.2-2.4-0.8-3-2
			c-0.7-1.4,0.4-2.1,1.5-2.6c0.2-0.1,0.3-0.3,0.3-0.5C90.2,176.2,91.1,176.3,92,176.3z M90.3,191.2c-1.7-0.5-3.7-1.8-3.9-3.7
			c-0.1-0.8,0.2-2.5,0.9-3.3c1.3,0.4,2.8,0.4,4-0.2c1,2.8,3.7,4.9,6.5,6.1c-0.6,0.5-1.1,1.1-1.8,1.5
			C94.6,192.4,91.8,191.6,90.3,191.2z M97.8,192.4c-0.1,0.3-0.1,0.6-0.1,0.9c-0.3-0.2-0.6-0.3-0.9-0.3
			C97.1,192.9,97.5,192.6,97.8,192.4z M99.4,205.5c-0.1,0.1-0.2,0.1-0.3,0.1c-0.1-0.1-0.1-0.1-0.2-0.2c-2.6-1.1-6-0.5-6.4-4.2
			c-0.3-2.6,2-4.2,3.5-6c0.5-0.2,1.1-0.4,1.6-0.6c0.1,3,2.5,5.4,5,6.8c-0.4,0.2-0.8,0.5-1.1,0.8c-0.8,0.8-1.4,1.9-1.8,3.1
			C99.6,205.4,99.5,205.4,99.4,205.5z M108,221.7c-0.2,0.3-0.2,0.5-0.1,0.8c-1.1,0.3-2.4,0.4-3.6,0.2c-1.2-1.2-2.7-2-3.6-3.6
			c-1-1.7-0.6-3.4-0.4-5.2c1.4,1.7,3.6,2.9,5.8,3.2C107.1,218.4,109.1,220.3,108,221.7z M109.3,207.5c-1,2.6-1.1,5.2-0.3,7.4
			c-3.2,1.3-8.7-1.5-8.5-5.1c0.1-1.7,0.6-3.4,1.3-4.9c0.7-1.6,1.5-2.4,3.3-2c0.3,0.1,0.6-0.1,0.7-0.4c1.5,0.2,3,0.1,4.4-0.4
			c0.2,0.2,0.5,0.3,0.7,0.6c0.1,0.2,0.2,0.4,0.3,0.6c0.1,0.3,0.3,0.4,0.6,0.6C110.6,205.2,109.7,206.5,109.3,207.5z M110.3,212
			c1-2.9,4.1-4.3,7.1-4.5c3.6-0.2,5.5,1.4,6.8,4.5c0.1,0.2,0.2,0.3,0.3,0.3c-0.2,3-1.7,5.8-4.9,6.5
			C114.5,220.1,110.4,216.9,110.3,212z M123.6,220.5c2.2,4.3-2.2,7.3-6.1,6.7c-2.6-0.4-9.2-4.9-5.1-7.6c0.1-0.1,0.2-0.2,0.3-0.3
			c0.8,0.5,1.7,0.8,2.7,1.1c2.8,0.6,5.2,0.2,7.1-1c0.3,0.5,0.7,0.8,1.1,1C123.6,220.4,123.6,220.5,123.6,220.5z M115.9,235.8
			c-2.4-0.1-4.2-1.9-5.4-3.8c-0.8-1.2-1.1-5.2,0.6-6.2c1.4,1.8,3.6,2.8,5.8,3.3c2.3,0.5,5.2,0.1,7-1.6
			C125.8,232.4,120.2,236,115.9,235.8z M128.5,215.6c-0.3,0.7-0.7,1.3-1.3,1.8c-0.5,0.5-1.1,0.9-1.8,1.1c-0.7,0.2-1,0-1.5-0.3
			c1.1-1.2,1.8-2.7,2.2-4.6c0.7,0.7,1.7,1,2.7,1.1C128.6,215,128.6,215.3,128.5,215.6z M133.6,210.1c-1,3.2-5.2,3.3-7.4,1.5
			c0-2.2-0.6-4.5-1.7-6.4c-0.9-1.6-2.6-2.4-4.3-2.9c0.1-0.3,0.2-0.5,0.3-0.7c0.2-0.3,0.5-0.6,0.7-0.9c2.3,1.3,5.2,1.9,7.2,1.6
			c0.8-0.1,1.5-0.4,2.1-0.7c0,0.1,0,0.1,0,0.2c0.6,1.3,2,2,2.7,3.2C134.2,206.6,134.2,208.5,133.6,210.1z M143,201.6
			c-1.5,1.1-5,1.1-7.3,0.1c2.8-2.5,2.5-9.4-0.3-11.6c1.5-0.1,3-0.6,4.4-1.4C145.9,189.2,148,198.1,143,201.6z M142.8,170.7
			c1.1,0.3,2.1,0.8,3,1.7c1.3,1.3,1.6,3.6,1.2,5.3c-0.3,1.3-1.1,2.2-2,2.9c0-0.6,0-1.3-0.2-1.9c-0.3-1.3-1.2-2.6-2.5-3.6
			C142.8,174,143.3,171.9,142.8,170.7z M143.2,180.1c0.3,2.5-1.6,4.7-3.3,6.2c-2.2,1.9-7.7,3.1-9.2-0.2c0-0.1-0.1-0.1-0.1-0.1
			c0.2-1.1,0.1-2.1-0.4-3.1c3.5-0.9,6.2-4.3,7.3-8C140.2,175.3,142.9,177.3,143.2,180.1z M140.6,143.2c0,0,0.1,0.1,0.1,0.1
			c0,0.1,0,0.1,0,0.2C140.7,143.4,140.6,143.3,140.6,143.2z M146.1,154.9c0.7,2.2,0.1,4.7-0.9,6.8c-0.1,0.1-0.1,0.3-0.2,0.4
			c0,0,0,0,0,0c-0.9,0.8-2,1.8-2.9,0.5c-1-1.3-0.6-2.8-0.5-4.3c0-0.1,0-0.1,0-0.2c0.3-2.2,0.4-5-0.1-7
			C143.6,151.7,145.3,152.4,146.1,154.9z M142.4,142c-0.1-0.3-0.4-0.4-0.8-0.4c-1.6-1-2.9-2.7-3.9-4.1c-2-3.1-2-6.4-1.8-10
			c2.5,2.2,6.1,2.4,9.3,1.1c0,0,0.1,0.1,0.1,0.1c3.6,1.2,5.7,2.9,5.7,7c0.1,3-2,5.8-4.8,6.7C145,142.9,143.6,142.7,142.4,142z
			 M154.9,141.5c0,1.9-1.1,3.6-2.6,4.6c-1.3,1-3.1,1.3-4.7,1c-1.9-0.3-2.9-1.6-4.2-2.8c1.4,0.3,2.9,0.3,4.4-0.4
			c3.1-1.4,4.9-4.8,5.2-8.2C154,137.5,154.9,139.2,154.9,141.5z M157.5,132.5c-2.1,0.5-3.9-0.3-5.5-1.6c-0.6-1.2-1.4-2.2-2.6-2.8
			c-0.2-0.3-0.4-0.6-0.6-0.9c-0.1-0.2-0.3-0.3-0.5-0.4c1-0.8,1.8-1.8,2.4-3c0.5-1,0.6-2.1,0.5-3.3c0,0,0.1,0,0.1,0
			c2-0.2,4.1-0.6,6.1-0.3c3.1,0.5,4.9,3.7,5,6.6C162.6,129.9,160.1,131.9,157.5,132.5z"/>
	</g>
	<g>
		<path class="st0" d="M184.5,66.6c0.1,0,0.1,0,0.2,0c0-0.1,0.1-0.1,0.1-0.2C184.7,66.4,184.6,66.5,184.5,66.6z"/>
		<path class="st0" d="M95.1,73.6c-1.7,2-2.7,4-3.3,6.5c-0.5,2.2-0.8,4.6-1.7,6.8c-1.7,4.4-4.8,7.6-7.4,11.4c-0.1,0.2-0.3,0-0.2-0.1
			c2.6-4.7,6-9.1,7.2-14.4c0.8-3.7,1.4-7.7,4-10.5c0,0,0,0,0,0c-1.1,0.3-2.2,0.5-3.3,0.8c-2.2,0.6-4.3,1.6-6.4,2.6
			c-3.5,1.6-7.1,2.9-10.7,4.1c-3.9,1.4-7.8,2.6-11.9,3.1c-3.9,0.5-7.9,0.1-11.9,0.7c-0.2,0-0.3-0.3-0.1-0.4
			c3.7-0.6,7.4-0.9,11.1-1.3c4.3-0.4,8.5-1.8,12.5-3.3c4-1.5,7.9-3,11.7-4.8c1.7-0.8,3.4-1.7,5.3-2.1c0.8-0.2,1.6-0.4,2.4-0.6
			c-3.6-1.6-6.9-4-10.3-5.9c-5.2-3-10.6-5.6-15.8-8.6c-10.5-5.9-20.5-13.1-30-20.5c-0.4-0.3,0-1.1,0.5-0.8
			c10,6.8,19.7,14.3,30.2,20.2c5,2.8,10.1,5.4,15.1,8.2c3.9,2.2,7.6,4.9,11.8,6.6c0-0.1,0-0.1,0.1-0.2c-2.2-1.7-2.6-5.4-2.9-7.9
			c-0.5-3.6-0.9-7.2-1.7-10.8c-1.4-5.7-2.4-11.5-4.6-16.9c-2-4.7-3-9.8-5-14.5c-0.1-0.2,0.1-0.4,0.3-0.2c2.8,3.8,3.6,8.8,5.2,13.1
			c1.9,5.1,3.3,10.1,4.5,15.3c0.9,3.9,1.7,7.6,2.2,11.6c0.3,2.7,0.5,6.9,2.6,9c0.4-0.8,0.9-1.6,1.5-2.3c1.6-2.2,3.5-4.3,5.4-6.3
			c5-5.5,8-12.4,9.4-19.6c0.1-0.4,0.7-0.3,0.6,0.1c-1,6.7-3.2,13.3-7.6,18.6c-1.7,2-3.5,3.8-5.2,5.9c-0.9,1.1-2.2,2.5-2.9,4
			c0.5,0.2,0.5,1.1,0.4,1.6c0,0.1-0.1,0.2-0.1,0.4c0.1,0.1,0.2,0.1,0.3,0.3c1.6-1.8,3.3-3.4,5.4-4.8c2.1-1.5,4.2-3.7,6.6-4.7
			c2.1-0.9,4-0.3,6.2-0.3c0.9,0,1.7-0.1,2.6-0.3c1.1-0.3,2.7-0.6,0.7-1.4c-0.6-0.3-0.6-1.1,0-1.3c1.1-0.4,1.9-1,2.4-1.9
			c0,0-0.1-0.1-0.1-0.1c-0.3-0.3-0.2-0.8,0.2-1c0.5-0.3,4.5-4.2,3.2-4.5c-0.5-0.1-0.5-0.6-0.4-1c0.3-0.7,0.7-1.3,1.2-1.9
			c-1,0.4-2,1-3.1,1.2c-0.5,0.1-1-0.3-0.8-0.8c0.6-1.7-1.2-2.7-0.7-4.5c0.3-1.1,1.3-1.6,2-2.4c-0.4,0.1-0.8,0.1-1.2,0.3
			c-0.4,0.2-0.9,0-1-0.4c-0.4-1.8-2-2.3-1.7-4.3c0.1-0.9,0.6-1.7,1.2-2.4c-0.3,0.1-0.7,0.1-1,0.1c-0.3,0-0.5-0.3-0.5-0.6
			c0-1,0.1-2,0.3-3c-0.3,0-0.6-0.1-0.8-0.1c-0.3,0-0.5-0.4-0.5-0.6c0-0.4,0-0.8,0-1.2c-2.8,0.4-2.7-4-2.8-7
			c-1.2,3.1-2.7,6.9-6.1,7.3c-0.9,0.1-1.5-0.4-1.7-1.3c-0.3-1.5-0.3-2.4-2.3-1.8c-0.5,0.2-0.9-0.4-0.8-0.8c0.6-1.8-0.9-3.5-1.7-5.2
			c-0.1,0-0.2,0.1-0.3,0.1c-0.4,0.3-1-0.1-1-0.6c0-0.8,0-1.7,0.1-2.5c-0.9,0.9-1.7,2.1-2.6,3c-0.2,0.2-0.7,0.3-0.9,0
			c-1.1-1.3-3.2-2.1-4-3.7c-0.3-0.5-0.6-1.1-0.6-1.7c0-0.5,0.4-1.8,0-2.5c-1.3,1.1-2.9,1-4.1-0.1c-0.4,0.3-0.9,0.5-1.4,0.6
			c-0.3,0.1-0.7-0.1-0.8-0.5c-0.2-0.5-0.3-1-0.5-1.5c0,0.5-0.1,0.9-0.1,1.4c0.2,0.2,0.4,0.4,0.5,0.6c0.4,0.6-0.3,1.3-0.8,0.8
			c-0.2-0.2-0.4-0.4-0.6-0.6c-0.1,0-0.3-0.1-0.3-0.2c-1-0.6-2.2-0.8-3.2-1.6c-1.2-1-2.2-0.2-3.4-1.1c-2.1-1.4-2.7-4-4-6
			c-0.3,4-0.2,8,1.1,11.8c0.1,0.4-0.3,0.8-0.6,0.8c-2,0.1-0.5,2.3-0.2,3.1c0.2,0.7,0.4,1.3,0.2,2c-0.1,0.3-0.5,0.5-0.8,0.4
			c-0.5-0.2-1.1-0.2-1.6-0.3c1.7,3,6.7,10.1,1.6,9.7c-0.1,0.4-0.1,0.7-0.1,1.1c0,0.6-0.7,0.7-1,0.4c-0.1,0-0.1-0.1-0.2-0.1
			c0,0.8-0.1,1.6-1,1.7c-1.3,0.2-2.6-0.8-3.6-1.6c-1.1-0.9-2.1-1.8-3.2-2.8c-2.1-1.9-4.6-3.3-6.7-5.1c0.2,1.3,0.3,2.8-0.5,3.5
			c-0.5,0.5-1.1,0.6-1.8,0.4c-0.9-0.3-1.4-1.8-2.3-0.3c-0.2,0.3-0.6,0.4-0.9,0.2c-1.6-0.8-3.3-1.1-4.9-1.6c0.2,0.5,0.3,0.9,0.6,1.4
			c0.2,0.4,0,0.8-0.4,0.9c-3,1-6,0-8.2-2c0.2,0.8,0.3,1.6,0.4,2.5c0,0.4-0.4,0.6-0.8,0.6c-1.5-0.2-2.9-0.5-4.4-0.8
			c0.1,0.5,0.1,1,0.1,1.5c0,0.3-0.4,0.6-0.7,0.5c-1.7-0.6-3.3-1.9-4.7-3.3c0.7,1.4,1.6,2.8,2.2,4.3c0.2,0.6,0.8,1.6,0.6,2.2
			c-0.1,0.4-1,1.5-0.5,1.8c2.2,1.4,1.9,4.1-0.1,5.3c1.3,0.6,3.2,0.6,3.9,1.9c0.3,0.5,0.1,1.3,0.4,1.7c0.7,0.6,1.6,1.1,2.2,1.8
			c1.7,1.9-1.1,3.1-3.4,3.7c1.6,0.6,3.3,1.1,4.9,1.7c0.1,0,0.1-0.1,0.2-0.1c0.5-0.3,0.8,0.4,0.5,0.7c-0.4,0.4-0.7,0.8-1.1,1.2
			c1,0.8,2.2,1.9,1.4,3c-0.5,0.7-1.6,1-2.6,1.2c0.4,0.2,0.7,0.3,1.1,0.4c0.3,0.1,0.5,0.4,0.4,0.7c1.3,0.3,2.6,0.7,3.9,1.3
			c0.1-0.2,0.2-0.3,0.5-0.6c0.3-0.3,0.8,0,0.7,0.4c-0.1,0.5-0.3,0.9-0.5,1.3c2.4,1.2,5,1.8,7.6,2.5c1.5,0.4,3.7,0.7,4.9,1.9
			c1.8,1.7-0.7,2.8-2.6,3.3c0.3,0.2,0.6,0.5,0.9,0.8c0.1-0.3,0.5-0.5,0.7-0.2c3.1,3.2-2.3,4.1-4.4,4.1c-2,0-4.1-0.3-5.8,0.8
			c-2.2,1.4-4,3.5-6.4,4.4c0.1,0.1,0.2,0.3,0.3,0.4c0.1,0.2,0.1,0.4,0,0.6c-1.1,1.7-3.3,2.3-5.6,2.7c1.7,0.2,3.4,0.6,5.1,1.1
			c0.2-0.6,1.1-0.3,1,0.3c-0.2,1-0.5,1.8-1,2.6c1.7,0.5,2.6,1.6,2.8,3.3c1.8-0.7,3.1,0,2.6,2c1.2,0.2,2.5,0.6,3.2,1.7
			c0.4,0.6,0.1,1.2-0.4,1.7c1.8-0.1,3.5-0.4,5.3-0.2c1.6,0.2,2.2,1.4,3.7,1.7c2.6,0.5,1.8,2.8,0.8,4.6c2.1-0.9,3.8-2.3,6.4-1.6
			c0.3,0.1,0.5,0.3,0.4,0.6c0,0.5-0.1,1-0.1,1.5c1,0.1,1.9,0.4,2.8,0.6c0.4,0.1,0.5,0.6,0.3,0.9c-0.2,0.2-0.2,0.6-0.2,0.9
			c0.4,0,0.7,0.1,1.1,0.3c0-0.2,0.1-0.5,0.4-0.5c1.7,0.1,3.4,1.3,3.6,3.2c0.1,1.6-0.5,3.1-1.2,4.6c1.2-0.5,2.3-1.3,3.5-2
			c0.4-0.2,1,0.1,0.9,0.5c0,0.1,0,0.1,0,0.2c0.2-0.1,0.4-0.1,0.6-0.2c0.6-0.3,1.2-0.5,1.8-0.8c1.2-0.5,2.4-1.1,3.7-1.4
			c1.2-0.3,2.5-0.2,2.9,0.7c1.3-0.7,2.9-0.8,4.3-0.4c0.7,0.2,1.4,0.5,2,1c0.2,0.1,0.5,0.7,0.8,1.1c0.8-1.6,1.8-3.1,2.5-4.8
			c0.1-0.3,0.4-0.3,0.6-0.2c-0.1-0.1-0.1-0.2-0.2-0.3c-0.2-0.4,0.2-0.8,0.6-0.6c0.3,0.2,0.5,0.4,0.8,0.6c0.4-0.4,0.8-0.9,1-1.4
			c0.1-0.3,0.5-0.6,0.9-0.3c0.8,0.6,1.9,1.1,2.9,0.7c0.1-0.4,0.3-0.8,0.3-1.2c0.2-1,0.4-2,0.5-3c0.4-2.2,0.6-4.4,0.5-6.6
			c0-0.3,0.2-0.5,0.5-0.5c0.4,0,0.8,0,1.2,0.1c-1.1-4.2-6.3-6.3-7.2-10.8C94.1,81.4,94.1,77.2,95.1,73.6z"/>
		<path class="st0" d="M121.5,106c0.3-0.7,0.7-1.3,1.1-1.9c0.2-3.1,1-6.1,1.3-9.2c0.3-3.3,0.5-6.6,0.6-10c0.1-3.2,0-6.3,0.1-9.5
			c0.1-1.7,0.7-5.4-1-6.5c0,0,0,0,0,0c-0.5,0.2-1,0.4-1.4,0.6c-0.8,0.4-1.6,0.8-2.5,1.2c0,0.2-0.1,0.4-0.1,0.6
			c2.5,5.3,3,12,3.1,17.7c0,4.8-0.5,9.6-1,14.4c0,0.9-0.1,1.8-0.2,2.8c0,0.1-0.1,0.2-0.1,0.2c0,0.1,0,0.3,0,0.4
			c0.1-0.1,0.2-0.3,0.3-0.4C121.4,106.3,121.4,106.1,121.5,106z"/>
		<path class="st0" d="M128.2,100.8c-0.8,0.4-1.5,0.9-2.1,1.5c1.4-1,3-1.8,4.5-2.5C129.7,100,128.9,100.4,128.2,100.8z"/>
		<path class="st0" d="M207.2,101.8c-0.4-0.1-0.5-0.6-0.2-0.9c0.2-0.2,0.4-0.5,0.6-0.7c-1-0.4-2-0.9-3-1.4c-0.4-0.2-0.3-0.7-0.1-1
			c0.3-0.3,0.6-0.7,1-1c-2.2,0.1-4.2-0.7-5.6-2.6c-0.2-0.3,0-0.7,0.2-0.8c0.3-0.1,0.5-0.3,0.7-0.4c-1.1-0.4-2.2-0.9-3.4-1.1
			c-0.3,0-0.5-0.4-0.5-0.6c0.1-1.1-2.7-0.3-2.5-2c0.1-0.8,0.6-1.5,1.1-2.1c-2.1,0.1-4.1-0.2-6.2,0.1c-1.2,0.1-2.4,0.3-3.6,0.3
			c-1.8-0.1-3-0.9-2.3-2.1c0,0,0,0,0,0c-0.6,0-0.7-0.7-0.4-1c0.1-0.2,0.2-0.3,0.3-0.5c-3.1-2.1,2.5-4.1,5.1-5.3
			c-0.2-0.1-0.5-0.3-0.8-0.4c-0.4-0.2-0.6-0.6-0.4-0.9c0.3-0.5,0.7-0.9,1.1-1.1c0.7-0.4,2-0.9,1-1.7c-0.3-0.3-0.2-0.8,0.2-1
			c2.2-1.5,3.9-3.7,5.4-5.9c-1.7,0.8-3.7,2.1-5.1,1.5c-0.8-0.4-0.9-0.8-1.9-0.9c-1,0-1.8-0.4-2.7-0.5c-0.1,0-0.2,0-0.4,0
			c-0.2,0-0.3,0-0.5,0.1c-0.7,0.1-0.9-0.7-0.4-1c-0.2,0-0.3-0.1-0.5-0.3c-0.2-0.3-0.4-0.6-0.5-0.9c-1.1,0.1-2.1-0.5-2.5-1.6
			c-0.5,0.5-1.2,1.7-1.7,1.9c-1.4,0.6-2.9,0.3-4.4,0.6c-0.3,0.1-0.8-0.1-0.8-0.5c-0.1-0.8-0.1-1.7-0.2-2.5c-0.2,0.4-0.5,0.7-0.7,1.1
			c-0.4,0.5-1,0.4-1.2-0.1c-1.1,0.6-2.7,1-3.1,2.2c-0.2,0.6-0.9,0.6-1.2,0.1c-1.3-1.8-2.4,2-3.8,0.1c-1.5-2-1-4.3-0.5-6.6
			c-1.3,1.7-2.9,3.9-4.4,2.6c-0.1,0.2-0.3,0.4-0.4,0.6c-0.2,0.3-0.6,0.4-0.9,0.2c-0.1-0.1-0.2-0.1-0.3-0.2c-0.3,0.6-0.6,1.2-1.1,1.8
			c-0.2,0.3-0.6,0.3-0.9,0.1c-0.1-0.1-0.1-0.1-0.2-0.2c0,0.6-0.1,1.1-0.3,1.6c-0.8,1.4-1.9,1.2-3.1,2.1c-0.3,0.2-0.7,0-0.9-0.3
			c0-0.1-0.1-0.1-0.1-0.2c0.1,0.8,0.2,1.6-0.2,2.2c-0.6,0.8-1.9,0.9-2.2,1.9c-0.2,0.5-0.8,0.7-1.1,0.3c-0.4-0.5-0.8-1.1-1.1-1.7
			c0,0.4-0.1,0.8-0.1,1.2c-0.1,0.3-0.5,0.6-0.8,0.4c0,0,0,0-0.1,0c-0.4,1.3-0.3,2.7,0.2,4c0.1,0.3-0.2,0.7-0.5,0.8c0,0,0,0-0.1,0
			c0,0.8,0.2,1.5,0.6,2.1c0.3,0.5-0.2,1.1-0.8,1c-1.6-0.4-0.2,0.8,0.4,1.3c0.6,0.6,1.2,1,1.9,1.4c1.1,0.7,2.2,1.4,2.8,2.6
			c1.5,3.3,2.5,7.2,2.8,10.8c0,0,0.1,0,0.1,0c0.2-0.4,0.4-0.8,0.8-1c0.1,0,0.1-0.1,0.2-0.1c0.2-1.3,0.1-2.7,0-3.8
			c-0.1-1.9-0.4-3.8-0.5-5.7c-0.2-5.2,1.3-10.1,3.8-14.6c0.2-0.3,0.8-0.1,0.6,0.3c-2.3,5.2-3.6,10.7-2.9,16.4
			c0.2,2.1,0.8,5.2,0.4,7.6c2.4-0.6,4.5-3.3,6-5c2-2.1,4.3-3.9,6.5-5.8c3-2.5,6-4.7,9.2-6.9c2.7-1.9,5.3-4.2,8.5-5.2
			c0.2-0.1,0.3,0.2,0.1,0.3c-7.1,4.4-13.6,9.6-20,14.9c-2.2,1.8-3.9,3.9-5.9,5.9c-1.1,1.1-2.7,2.7-4.4,3.1c3.3,0.7,6.7,0.8,10,1.3
			c4.3,0.6,8.5,1.3,12.8,1.8c8.8,1,17.7,0.9,26.5,1.3c0.6,0,0.6,0.9,0,0.9c-9,0.3-18.4,0.1-27.4-1c-4.6-0.6-9.1-1.4-13.7-1.9
			c-2.6-0.3-5.4-0.3-8-0.8c1.2,1.5,2.3,2.9,3.2,4.6c1.4,2.6,2.9,5,4.5,7.5c1.8,2.8,3.6,5.7,6.1,7.9c2.2,2,4.4,4,6.4,6.1
			c0.2,0.2-0.1,0.4-0.3,0.3c-2.3-2.2-5.2-3.9-7.5-6.2c-2.1-2.1-3.8-4.5-5.4-6.9c-1.8-2.6-3.5-5.3-5-8c-0.8-1.5-1.7-2.9-2.8-4.2
			c-0.2-0.3-0.4-0.5-0.6-0.8c0.1,2.5-1.1,4.9-2.1,7.2c-1.8,3.9-1.8,8.1-2.5,12.3c0,0.2-0.3,0.2-0.3,0c0-3.5-0.6-7.3,0.7-10.7
			c1.2-3.1,2.7-5.7,2.8-9c-1.1,2.6-3.1,5.1-5.2,6.9c-2.4,1.9-6.1,1.1-8.5,2.8c0.2,0.1,0.4,0.2,0.6,0.3c0.2,0.1,0.3,0.5,0.2,0.7
			c-0.9,1.1-1.6,2.3-2.3,3.5c-0.7,1.3-2.9,4.1,0.2,4.2c0.4,0,0.6,0.4,0.5,0.8c-0.1,0.3-0.1,0.7,0,1.1c0.1,0,0.3,0,0.6,0
			c0.4,0,0.6,0.6,0.2,0.8c0,0,0,0-0.1,0c0.1,0.1,0.2,0.2,0.1,0.4c-0.2,1.2-0.3,2.5-0.5,3.7c0.5-0.2,1.2-0.2,1.7-0.1
			c1.4,0.4,2.5,1.1,3.1,2.3c1.6-0.9,3.7,3.3,4.6,4.9c0.3-0.2,0.8-0.2,0.9,0.2c0.4,0.9,0.6,1.7,1.1,2.5c0.7-2.4,2.1-5.3,5-3.3
			c0.2,0.1,0.2,0.3,0.2,0.5c0.2,0.1,0.4,0.1,0.6,0.2c0.1-0.1,0.2-0.3,0.2-0.5c0.1-0.5,0.5-0.7,0.9-0.5c0.6,0.3,1.2,0.5,1.7,0.8
			c0.1-0.3,0.3-0.5,0.5-0.8c0.1-0.2,0.4-0.4,0.7-0.3c1.8,0.7,2.3,2.1,3.1,3.6c0.3-1.4,0.9-2.9,2.6-2.2c1,0.4,1.9,0,2.9,0.6
			c1.2,0.7,2.1,1.6,3.2,2.5c0.1-1.3,1.7-1.3,3.2-0.7c0.7-1.3,1.7-1.3,2.6-0.1c0.9-0.8,1.8-1.1,3-0.7c0.1-0.7,0.3-1.3,0.6-1.9
			c0.2-0.5,1.1-0.2,1,0.3c0.9,0.3,1.9,0.7,2.8,1.2c-1-1.1-1.7-2.3-1.7-3.6c0-0.3,0.2-0.5,0.5-0.6c0,0,0.1,0,0.1,0
			c-0.9-1.6-1-3.4-1.7-5.1c-0.7-1.8-2.2-2.5-3.6-3.7c-1.4-1.1-3.5-3.9-0.4-4.3c0.3,0,0.5,0.2,0.5,0.4c0.2,0,0.3,0,0.5,0
			c-0.8-1.1-1.7-2.7-0.3-3.1c1.1-0.3,2.3,0.2,3.3,0.5c2.1,0.9,4.3,1.9,6.6,2.3c0-0.2,0.1-0.4,0.3-0.8c0.2-0.5,0.8-0.4,0.8,0.1
			c0,0.2,0,0.3,0,0.5c0.9,0.2,1.8,0.5,2.7,0.8c0.1-0.2,0.4-0.3,0.6-0.2c0.2,0.1,0.3,0.1,0.5,0.2c-0.4-0.6-0.8-1.1-0.8-1.8
			c0-1,1.2-1.2,2.1-1.2c-0.1-0.4-0.1-0.8-0.1-1.2c0-0.4,0.6-0.6,0.8-0.2c0,0,0,0.1,0.1,0.1c1.1,0.3,2.2,0.6,3.3,1
			c-1-1.5-2-3.4-0.1-3.6c0.5-0.1,2.4,0,2.5-0.3c0.1-0.3,0.4-0.5,0.7-0.6c1.1-0.3,2.1,0.3,3.1,0.5c-0.3-0.8-0.2-1.5,0.4-2.3
			c0.3-0.4,2.3-1.2,2.4-1.3c0.1-1.1,0.9-1.5,1.8-2.1c0.7-0.4,1.5-0.7,2.2-1.1C209.5,102.1,208.3,102.1,207.2,101.8z"/>
		<path class="st0" d="M118,94.1c-1-1.7-2.3-3.2-3.7-4.7c2.7,3.6,4.6,7.8,5.7,12.1C119.9,99,119.4,96.5,118,94.1z"/>
		<path class="st0" d="M214,100c-1.7,0.7-3.7,1.2-5.6,0.9c0.2-0.3,0.5-0.5,0.8-0.7c0.5-0.4-0.1-1.2-0.7-0.9
			c-0.1,0.1-0.2,0.1-0.2,0.2c-0.8-0.5-1.6-0.9-2.4-1.3c0.6-0.6,1.2-1.1,1.8-1.7c0.4-0.4,0-1.1-0.5-1c-2,0.6-4.4,0.3-5.8-1.3
			c0.4-0.3,0.8-0.6,1.3-0.7c0.5-0.2,0.7-1.1,0-1.2c-1.6-0.3-2.9-1.1-4.5-1.4c0-0.7-0.3-1.3-1.1-1.4c-0.4-0.1-1.7,0.3-1-0.7
			c0.4-0.7,1.1-1.2,1.7-1.7c0.5-0.5,0-1.2-0.6-1.1c-2.8,0.4-5.7,0-8.5,0.3c-0.8,0.1-1.6,0.2-2.5,0.2c-1,0-2.3,0.2-1.1-0.9
			c0.4-0.4,0.1-1-0.4-1c-0.1,0-0.1,0-0.2,0c0.1-0.1,0.1-0.3,0.2-0.5c0.1-0.2,0-0.6-0.3-0.7c-1.7-1,1.5-2.1,2.4-2.5
			c1.1-0.5,2.4-0.8,3.4-1.5c0.5-0.3,0.4-1-0.1-1.2c-0.4-0.2-0.8-0.4-1.2-0.6c1.1-1.1,3.4-1.8,2.1-3.4c2.6-2,4.6-4.7,6.3-7.5
			c0.3-0.5-0.2-1.1-0.7-1c-1.1,0.2-2,0.6-3,1.1c-1.2,0.6-2.7,1.5-3.7,0.3c-0.4-0.6-2.1-0.2-2.8-0.4c-0.3-0.1-0.6-0.2-0.9-0.2
			c0.4-0.6,0.8-1.3,1.2-1.9c0.3-0.5-0.3-1.2-0.8-0.9c-0.8,0.4-1.5,1-2.2,1.5c-0.1-0.2-0.1-0.3-0.2-0.5c0-0.3-0.5-0.6-0.8-0.4
			c-1,0.3-1.3-0.1-1.7-0.7c0.2-0.3,0.2-0.9-0.3-1c-0.7-0.3-1.4-0.1-1.9,0.6c-0.7,1.1-1,1.8-2.5,1.9c-0.7,0-1.4,0-2,0.1
			c-0.1-1.2-0.1-2.4-0.5-3.6c-0.2-0.5-0.9-0.7-1.2-0.2c-0.3,0.6-0.6,1.2-1,1.8c-0.2-0.2-0.5-0.2-0.7-0.1c-1.3,0.9-2.9,1.2-3.8,2.4
			c-0.7-0.6-1.5-0.9-2.4-0.1c-0.9,0.8-1,1.1-1.5-0.5c-0.6-2,0.5-4.5,0.9-6.4c0.1-0.5-0.4-1.1-0.9-0.7c-0.9,0.6-3.9,5.3-4.8,4.1
			c-0.3-0.4-0.8-0.4-1.1,0c-0.2,0.3-0.4,0.5-0.6,0.8c-0.1-0.1-0.3-0.2-0.4-0.2c-0.4-0.2-0.8-0.1-0.9,0.4c-0.2,0.6-0.5,1.1-0.8,1.7
			c-0.2-0.2-0.4-0.4-0.6-0.5c0-0.4-0.1-0.7-0.1-1c0-0.8-1.2-0.8-1.2,0c-0.1,0.9,0.1,1.9,0.1,2.8c0.1,1.4-1.2,1.6-2.2,2.1
			c-0.3-0.4-0.7-0.7-1-1.2c-0.3-0.5-1.1-0.4-1.2,0.1c-0.3,1,0.3,3.4-0.6,3.8c-0.5,0.2-0.9,0.5-1.2,0.8c-0.6-0.9-1.1-1.9-1.9-2.7
			c-0.5-0.5-1.2,0-1.1,0.6c0.2,0.8,0.2,1.5,0.2,2.3c0,0-0.1,0-0.1,0c-0.3,0-0.5,0.2-0.7,0.5c-0.6,1.5-0.7,3-0.3,4.6
			c-0.1,0.1-0.2,0.2-0.3,0.4c-0.1,0.9-0.1,1.7,0.2,2.4c-0.7,0-1.3,0.2-1.2,1c0.1,1.4,1.4,2.6,2.4,3.5c0.8,0.6,1.7,1.1,2.5,1.6
			c1.3,0.9,1.6,2.5,2,3.9c0.8,2.6,2.1,5.3,2.5,8c-2.6,0-5.2,0.2-7.7,0.4c-0.4,0-0.7,0-1.1,0c-2.8,0.1-5.5,0-8.3,0.4
			c-4.2,0.5-8.1,2.2-10.8,5.3c1.4-6.8,2.1-13.7,2.4-20.7c0.1-3.2,0.2-6.3,0.3-9.5c0-1.7,0-3.9-1.4-5.1c0-0.1,0-0.3-0.2-0.4
			c-0.7-0.5-1.7,0-2.5,0.4c-1,0.5-2,1.1-3.1,1.5c-0.4,0.1-0.6,0.4-0.5,0.8c0,0.2,0.1,0.3,0.1,0.5c0,0.1,0,0.1,0,0.2
			c0.6,2.9,1.6,5.8,2.1,8.7c0.6,3.3,0.7,6.7,0.8,10c0,3.1-0.1,6.3-0.3,9.4c-1-4.6-3.6-8.6-7.3-11.9c-2.7-2.5-5.7-4.5-8.5-6.8
			c-0.4-0.3-0.8-0.7-1.3-1c-1.1-0.9-2.2-1.7-3.3-2.5c-1.6-1.2-2.9-2.7-4.5-3.9c2.3-2.4,5.6-4.3,8.3-6.2c1.4-1,2.7-2.2,4.3-2.9
			c1.6-0.6,3.5-0.2,5.2,0c1.5,0.1,4.2-0.3,5.4-1.3c1.1-0.9,0.5-1.7-0.4-2.3c1-0.6,1.7-1.3,2.2-2.4c0.1-0.2,0.1-0.5,0-0.7
			c1.7-1.3,2.9-3,3.4-5.2c0-0.2,0-0.5-0.2-0.7c-0.2-0.1-0.3-0.2-0.4-0.3c0.6-1,1.3-1.8,2.2-2.6c0.4-0.4,0.2-1.2-0.4-1.2
			c-1.6,0.1-3,1-4.5,1.5c0-0.8-0.3-1.5-0.8-2.4c-0.6-1.1,0.9-2,1.5-2.5c0.6-0.5,0.9-1.2,1.1-2c0.2-0.6-0.4-1-1-0.8
			c-0.7,0.3-1.4,0.3-2.1,0.5c-0.5-0.9-1.4-1.7-1.5-2.7c-0.2-1.6,2.3-3.2,3.1-4.5c0.4-0.7-0.6-1.3-1.1-0.7c-0.3,0.3-0.6,0.7-0.9,1
			c-0.5,0.1-1,0.2-1.5,0.2c0.1-0.9,0.2-1.8,0.5-2.7c0.1-0.3-0.1-0.7-0.4-0.8c-0.3-0.1-0.7-0.1-1-0.2c0-0.5,0-1,0-1.5
			c0-0.4-0.4-0.8-0.8-0.6c-2.8,1.1-1.7-6.5-2.3-8.1c-0.2-0.5-0.9-0.7-1.2-0.2c-0.9,1.8-1.6,3.8-2.5,5.6c-0.3,0.7-3.4,4.5-3.8,2.7
			c-0.4-2-1.1-3-2.8-2.8c0.1-2-1.5-3.6-2.1-5.6c-0.1-0.3-0.4-0.6-0.8-0.5c0,0-0.1,0-0.1,0c0-1,0.2-1.9,0.4-2.9
			c0.1-0.5-0.4-1.1-1-0.8c-1.5,1-2.5,2.4-3.6,3.7c-1.6-1.5-3.9-2.4-3.7-5c0.1-1.4,0.3-2.6-1.3-3.1c-0.6-0.2-0.9,0.4-0.8,0.8
			c-1,0.3-1.9,0.7-2.7-0.5c-0.2-0.3-0.7-0.5-1-0.1c-0.3,0.3-0.5,0.4-0.8,0.6c-0.4-1.2-0.7-2.5-1.3-3.6C84.8,8.6,84,9,83.9,9.5
			c-0.1,1.1-0.2,2.2-0.3,3.2c-0.3-0.2-0.7-0.3-1.1-0.5c-1.1-0.3-2.5-2.2-3.7-1.8c-2.6,0.8-4.4-5.5-6-7c-0.4-0.4-1.1-0.1-1.1,0.4
			c-0.4,4.3-0.5,8.9,0.8,13.1c-0.8,0.2-1.5,0.5-1.5,1.5c0,1.3,1.1,2.6,1.2,3.9c-0.7-0.1-1.4-0.1-2.1-0.3c-0.5-0.1-0.9,0.3-0.8,0.8
			c0.5,1.5,1.7,3,2.5,4.3c0.6,1,1.2,2.1,1.7,3.2c0.5,1.3,0.1,1.8-1.3,1.6c-0.3,0-0.5,0.2-0.6,0.4c-0.1,0.3-0.2,0.6-0.2,0.9
			c-0.2-0.1-0.3-0.2-0.5-0.3c-0.5-0.3-1,0.1-0.9,0.7c0.4,2-0.4,1.6-1.7,0.7c-1-0.7-2-1.6-2.9-2.4c-2.8-2.6-6.4-4.5-9.1-7.3
			c-0.5-0.5-1.2,0-1.1,0.6c0.2,1,0.3,2,0.4,3.1c0.1,1.6-1,0.9-1.7,0.4c-0.9-0.7-1.8-0.2-2.4,0.6c-1.9-0.8-4.1-1.1-5.9-2
			c-0.6-0.3-1.2,0.4-0.8,1c0.5,0.6,0.7,1.4,0.9,2.1c-3,0.7-5.9-0.9-7.8-3.3c-0.3-0.4-1-0.1-1,0.4c0.1,1.2,0.5,2.4,0.6,3.6
			c-1.3-0.2-2.7-0.4-4.1-0.6c0-0.1-0.1-0.2-0.1-0.4c-0.2-0.7-1.3-0.4-1.1,0.3c0.2,0.6,0.2,1.2,0.3,1.7c-2.3-1.1-4.3-3.5-5.6-5.6
			c-0.3-0.5-1.2-0.2-1,0.4c0.4,1.6,1,3,1.8,4.5c0.7,1.2,3,4.2,2.1,5.6c-0.4,0.7-0.8,1.2-0.3,1.9c0.2,0.3,0.6,0.5,0.9,0.7
			c1.7,1,0.1,3.2-1.1,3.6c-0.3,0.1-0.5,0.6-0.2,0.8c0.8,0.7,1.7,1,2.7,1.4c0.6,0.2,2,0.5,1.6,1.5c-0.1,0.3,0.1,0.6,0.3,0.8
			c0.7,0.8,3.5,2.2,1.8,3c-1.2,0.7-2.8,1-4.2,1.3c-0.7,0.1-0.5,1,0,1.2c2.1,0.9,4.2,1.5,6.3,2c-0.2,0.2-0.5,0.4-0.7,0.5
			c-0.4,0.2-0.3,0.7,0,0.9c0.8,0.6,2.6,1.7,0.9,2.3c-0.9,0.3-1.9,0.5-2.9,0.8c-0.5,0.1-0.5,0.9,0,1c0.7,0.2,1.4,0.6,2.1,0.8
			c-0.2,0.3,0,0.7,0.3,0.8c1.5,0.3,3,0.7,4.6,1.1c-0.1,0.1-0.1,0.2-0.2,0.4c-0.2,0.3-0.1,0.6,0.2,0.8c2.4,1.4,5,2,7.7,2.7
			c1.5,0.4,3.1,0.7,4.5,1.4c2.3,1-2,2-2.8,2.2c-0.4,0.1-0.6,0.8-0.2,1c1.1,0.5,2,1.3,2.9,2.1c-0.3,0.8-1.5,0.9-2.7,0.9
			c-1.5,0.1-2.9,0-4.4,0.1c-4.2,0.1-6.4,4.5-10.2,5.6c-0.3,0.1-0.6,0.6-0.4,0.9c1.3,1.8-2.8,2.3-4,2.5c-1.8,0.4-3.7,0.5-5.5,0.9
			c-0.6,0.2-0.5,1.1,0.1,1.1c3.6-0.2,7,0.7,10.5,1c-0.2,0.7-0.6,1.4-1.1,2.1c-0.2,0.3-0.2,0.8,0.2,0.9c1.9,0.4,2.8,1.3,2.8,3.3
			c0,0.4,0.5,0.7,0.8,0.5c1.1-0.6,2.2-0.7,1.6,0.9c-0.1,0.3,0.1,0.7,0.4,0.7c1.5,0.3,4.2,1,1.7,2.5c-0.5,0.3-0.3,1.1,0.3,1.1
			c2.2,0.1,6.8-1.4,8.4,0.5c0.5,0.6,1,0.7,1.8,0.8c2.3,0.3,0.3,3.1-0.3,4.2c-0.3,0.5,0.1,1,0.7,0.9c2.4-0.5,4.2-2.5,6.7-2.1
			c0,0.5-0.1,0.9-0.3,1.4c-0.2,0.4,0.2,0.8,0.6,0.8c0.9,0,1.8,0.2,2.7,0.4c-0.1,0.5-0.1,1.1-0.1,1.6c0,0.5,0.5,0.7,0.9,0.5
			c0.4-0.2,0.9-0.2,1.4-0.1c0.3,0.1,0.6-0.2,0.6-0.4c1.4,1,2.6,1.6,2.2,3.7c-0.2,1.3-0.9,2.6-1.5,3.8c-0.2,0.5,0.1,1,0.6,0.9
			c1.6-0.3,2.9-1.2,4.2-2c0.4,0.8,1.6,0.3,2.6-0.1c0.8-0.3,6.5-3.1,6.4-1.5c0,0.6,0.6,0.7,1,0.4c1.5-1.2,3.7-1.1,5.3-0.2
			c1,0.5,1,1.8,2.1,1.9c0.2,0,0.4-0.2,0.5-0.4c0.7-2,2-3.6,2.6-5.6c0-0.1,0-0.1,0-0.2c0.2,0.2,0.4,0.5,0.6,0.7
			c0.2,0.2,0.6,0.3,0.8,0c0.5-0.6,1-1.1,1.4-1.7c1.1,0.7,2.3,0.8,3.7,0.3c0.2-0.1,0.4-0.2,0.4-0.4c0.6-3.5,1.4-7.2,1.2-10.8
			c0.4,0,0.7,0.1,1.1,0.2c0.3,0.1,0.6-0.2,0.5-0.5c-0.7-4.7-5.4-6.5-6.8-10.7c-1.2-3.6-0.9-7.8-0.3-11.6c1.6,2.3,4.3,4,6.5,5.6
			c2.9,2.3,5.7,4.8,8.3,7.5c2.7,2.7,5.1,5.9,6.4,9.5c1.3,3.4,1.8,7.1,2.9,10.5c-0.3-0.2-0.6-0.5-0.9-0.8c0.2,0.5,0.4,1,0.6,1.5
			c0.2,0.1,0.4,0.2,0.7,0.3c0.2,0.3,0.8,0.3,0.8-0.1c0-0.1,0-0.1,0-0.2c0.1,0,0.1,0,0.2,0c2.5-1.6,4.6-3.8,7.1-5.4
			c2.3-1.5,4.9-2.3,7.6-2.8c2.7-0.5,5.5-0.7,8.3-0.9c2.2-0.1,4.6,0.2,6.7-0.5c-1.5,2.6-3.3,5.4-5.9,6.9c-1.3,0.8-3.2,0.8-4.7,1.1
			c-1.4,0.3-2.5,0.9-3.5,2c-0.2,0.2-0.1,0.6,0.2,0.7c0.2,0.1,0.4,0.2,0.6,0.3c-1.7,2.1-2.7,4.5-4,6.9c-0.1,0.2-0.1,0.4,0,0.6
			c0.7,0.9,1.4,1.4,2.4,1.5c0,0.5,0,0.9,0.1,1.5c0,0.4,0.3,0.7,0.7,0.6c0.2,0,0.3-0.1,0.4-0.1c-0.5,1.4-0.5,3-0.9,4.4
			c-0.1,0.2,0,0.5,0.2,0.6c0.2,0.1,0.4,0.2,0.6,0.2c1.1-0.3,1.3-0.5,2.3-0.2c1,0.3,1.9,1.3,2.2,2.3c0.2,0.5,0.8,0.6,1.1,0.2
			c0.4-0.6,3.3,4.4,3.8,5c0.2,0.2,0.5,0.2,0.7,0.1c0.4,1.1,0.9,2.1,1.7,3c0.3,0.3,0.9,0.2,1-0.2c0.2-0.9,0.4-1.8,0.7-2.7
			c0.5-1.5,1.5-1.5,2.8-1.5c0,0.2,0,0.4,0.2,0.5c0.3,0.2,0.6,0.4,0.8,0.7c0.2,0.4,0.8,0.4,1,0c0.2-0.3,0.4-0.6,0.5-0.9
			c0.6,0.3,1.2,0.5,1.7,0.9c0.3,0.2,0.8,0,0.9-0.3c0.1-0.3,0.2-0.5,0.3-0.8c1.5,0.9,1.8,2.9,3,4.2c0.4,0.4,1,0.1,1-0.4
			c0.1-0.5,0.1-3.3,1.5-2.5c0.5,0.3,0.9,0.4,1.5,0.3c2-0.2,3.7,2.3,5.2,3.4c0.4,0.3,1-0.2,0.9-0.6c-0.6-1.7,1-1.2,1.8-0.7
			c0.3,0.2,0.7,0.1,0.8-0.3c0.6-0.6,1-0.5,1.1,0.2c0.2,0.4,0.7,0.3,1,0c1.1-1.4,1.8-1.2,3-0.6c0.3,0.1,0.7-0.2,0.7-0.5
			c0-0.6,0.1-1.1,0.2-1.6c2.1,1.4,4.5,2.3,6.5,3.9c0.5,0.4,1.2-0.2,0.8-0.8c-1.3-1.7-4.5-3.6-4.8-5.9l0.4-0.1c0.5-0.2,0.6-0.6,0.3-1
			c-1.7-2.2-1.1-5.7-3.2-7.6c-0.7-0.6-1.4-1.1-2.1-1.6c-0.8-0.6-2.1-1.4-1.9-2.3c0.8-0.1,1.6-0.1,2.4,0.1c0.6,0.1,1-0.5,0.6-0.9
			c-0.1-0.2-1.8-2.3-1.3-2.3c1-0.1,2.1,0.5,3,0.9c2.2,0.9,4.3,1.9,6.7,2.2c0.3,0,0.6-0.3,0.6-0.6c0,0,0-0.1,0-0.1c1,0.4,2,0.8,3,1.3
			c0.3,0.1,0.6,0,0.8-0.2c0.5,0.1,1,0.2,1.5,0.4c0.6,0.2,0.8-0.5,0.5-0.9c-0.4-0.6-0.9-1.1-1.4-1.7c-0.7-1,0.8-0.8,1.5-0.8
			c0.4,0,0.7-0.4,0.5-0.8c-0.1-0.1-0.1-0.2-0.1-0.3c1.4,0.7,3,1.1,4.5,1.5c0.6,0.1,1.1-0.6,0.6-1c-0.6-0.6-1.1-1.4-1.6-2.1
			c-1-1.6,0.4-1,1.6-1.2c0.5-0.1,1.6-0.9,2-0.8c1,0.2,1.9,0.6,2.9,0.6c0.4,0,0.7-0.4,0.5-0.8c-1.1-1.7,0.1-2.6,1.4-2.5
			c0.2,0,0.5-0.1,0.7-0.2c0.5-0.3,0.5-0.9,0.5-1.3c0.1-1,3.1-2,3.8-2.3c1.1-0.5,2.1-1.1,3-1.9C215,100.6,214.6,99.8,214,100z
			 M95.7,72.1c0-0.1,0.1-0.2,0.1-0.4c0.1-0.5,0.2-1.3-0.4-1.6c0.8-1.5,2.1-2.9,2.9-4c1.7-2,3.5-3.9,5.2-5.9
			c4.4-5.3,6.6-11.9,7.6-18.6c0.1-0.4-0.6-0.5-0.6-0.1c-1.5,7.2-4.4,14.1-9.4,19.6c-1.9,2-3.7,4.1-5.4,6.3c-0.5,0.7-1,1.5-1.5,2.3
			c-2.1-2.1-2.3-6.3-2.6-9c-0.5-4-1.3-7.7-2.2-11.6C88.3,44.1,86.9,39.1,85,34c-1.6-4.4-2.4-9.3-5.2-13.1c-0.1-0.2-0.3,0-0.3,0.2
			c2,4.7,3,9.8,5,14.5c2.2,5.4,3.3,11.2,4.6,16.9c0.9,3.6,1.2,7.1,1.7,10.8c0.3,2.5,0.7,6.2,2.9,7.9c0,0.1,0,0.1-0.1,0.2
			c-4.1-1.7-7.9-4.5-11.8-6.6c-5-2.8-10.1-5.4-15.1-8.2c-10.6-5.9-20.2-13.4-30.2-20.2c-0.5-0.3-0.9,0.4-0.5,0.8
			c9.5,7.4,19.5,14.6,30,20.5c5.2,2.9,10.6,5.6,15.8,8.6c3.4,1.9,6.7,4.3,10.3,5.9c-0.8,0.2-1.6,0.4-2.4,0.6
			c-1.9,0.4-3.6,1.3-5.3,2.1c-3.8,1.8-7.7,3.3-11.7,4.8c-4,1.5-8.2,2.9-12.5,3.3c-3.7,0.3-7.4,0.7-11.1,1.3c-0.3,0-0.2,0.4,0.1,0.4
			c4-0.5,8-0.2,11.9-0.7c4.1-0.5,8-1.7,11.9-3.1c3.6-1.3,7.2-2.6,10.7-4.1c2.1-0.9,4.1-2,6.4-2.6c1.1-0.3,2.2-0.5,3.3-0.8
			c0,0,0,0,0,0c-2.6,2.8-3.2,6.9-4,10.5c-1.2,5.4-4.5,9.7-7.2,14.4c-0.1,0.2,0.1,0.3,0.2,0.1c2.6-3.8,5.7-7.1,7.4-11.4
			c0.8-2.2,1.1-4.6,1.7-6.8c0.6-2.5,1.7-4.6,3.3-6.5c-1,3.6-1,7.8-0.3,11.5c0.9,4.5,6.1,6.6,7.2,10.8c-0.4-0.1-0.7-0.1-1.2-0.1
			c-0.3,0-0.5,0.2-0.5,0.5c0.1,2.2-0.1,4.4-0.5,6.6c-0.2,1-0.4,2-0.5,3c-0.1,0.4-0.2,0.8-0.3,1.2c-1,0.4-2.1-0.1-2.9-0.7
			c-0.3-0.2-0.7,0-0.9,0.3c-0.2,0.6-0.6,1-1,1.4c-0.2-0.2-0.5-0.4-0.8-0.6c-0.4-0.2-0.8,0.2-0.6,0.6c0.1,0.1,0.1,0.2,0.2,0.3
			c-0.2-0.1-0.5-0.1-0.6,0.2c-0.7,1.7-1.8,3.1-2.5,4.8c-0.3-0.4-0.7-1-0.8-1.1c-0.6-0.5-1.3-0.8-2-1c-1.4-0.4-3-0.3-4.3,0.4
			c-0.4-1-1.7-1-2.9-0.7c-1.3,0.3-2.5,0.9-3.7,1.4c-0.6,0.3-1.2,0.5-1.8,0.8c-0.2,0.1-0.4,0.1-0.6,0.2c0,0,0-0.1,0-0.2
			c0.1-0.5-0.5-0.8-0.9-0.5c-1.2,0.7-2.3,1.5-3.5,2c0.7-1.4,1.3-2.9,1.2-4.6c-0.1-1.8-1.9-3.1-3.6-3.2c-0.3,0-0.4,0.2-0.4,0.5
			c-0.4-0.2-0.8-0.3-1.1-0.3c0-0.4,0.1-0.7,0.2-0.9c0.2-0.3,0-0.8-0.3-0.9c-1-0.2-1.9-0.5-2.8-0.6c0.1-0.5,0.1-0.9,0.1-1.5
			c0-0.3-0.2-0.5-0.4-0.6c-2.6-0.8-4.3,0.7-6.4,1.6c1-1.8,1.8-4.1-0.8-4.6c-1.4-0.3-2.1-1.5-3.7-1.7c-1.8-0.2-3.5,0.1-5.3,0.2
			c0.5-0.5,0.7-1.1,0.4-1.7c-0.7-1.1-2-1.5-3.2-1.7c0.5-2-0.8-2.7-2.6-2c-0.2-1.7-1.1-2.8-2.8-3.3c0.5-0.8,0.8-1.6,1-2.6
			c0.1-0.6-0.8-1-1-0.3c-1.6-0.5-3.4-0.8-5.1-1.1c2.3-0.3,4.5-1,5.6-2.7c0.1-0.2,0.1-0.4,0-0.6c-0.1-0.1-0.2-0.3-0.3-0.4
			c2.4-1,4.2-3,6.4-4.4c1.8-1.1,3.8-0.8,5.8-0.8c2.2,0,7.5-0.9,4.4-4.1c-0.3-0.3-0.7-0.1-0.7,0.2c-0.3-0.3-0.6-0.5-0.9-0.8
			c1.8-0.6,4.4-1.6,2.6-3.3c-1.2-1.1-3.4-1.5-4.9-1.9c-2.6-0.6-5.2-1.2-7.6-2.5c0.2-0.4,0.4-0.8,0.5-1.3c0.1-0.4-0.4-0.7-0.7-0.4
			c-0.3,0.3-0.4,0.4-0.5,0.6c-1.2-0.6-2.5-1-3.9-1.3c0.1-0.3-0.1-0.6-0.4-0.7c-0.4-0.1-0.8-0.3-1.1-0.4c1-0.2,2.1-0.5,2.6-1.2
			c0.8-1.1-0.4-2.2-1.4-3c0.4-0.3,0.8-0.8,1.1-1.2c0.3-0.4-0.1-1-0.5-0.7c-0.1,0-0.1,0.1-0.2,0.1c-1.6-0.6-3.2-1.1-4.9-1.7
			c2.2-0.6,5-1.8,3.4-3.7c-0.6-0.7-1.5-1.2-2.2-1.8c-0.4-0.3-0.2-1.2-0.4-1.7c-0.7-1.3-2.6-1.2-3.9-1.9c2-1.2,2.3-3.9,0.1-5.3
			c-0.5-0.3,0.4-1.4,0.5-1.8c0.2-0.6-0.3-1.6-0.6-2.2c-0.6-1.5-1.5-2.9-2.2-4.3c1.3,1.4,2.9,2.7,4.7,3.3c0.3,0.1,0.7-0.2,0.7-0.5
			c0-0.5-0.1-1-0.1-1.5c1.5,0.3,2.9,0.6,4.4,0.8c0.4,0.1,0.8-0.1,0.8-0.6c-0.1-0.8-0.2-1.6-0.4-2.5c2.2,2,5.2,3,8.2,2
			c0.4-0.1,0.6-0.5,0.4-0.9c-0.2-0.5-0.4-1-0.6-1.4c1.6,0.5,3.3,0.8,4.9,1.6c0.3,0.2,0.7,0.1,0.9-0.2c0.9-1.5,1.4,0.1,2.3,0.3
			c0.6,0.2,1.3,0.1,1.8-0.4c0.8-0.8,0.7-2.2,0.5-3.5c2.2,1.8,4.7,3.2,6.7,5.1c1,1,2.1,1.9,3.2,2.8c1,0.8,2.3,1.8,3.6,1.6
			c0.8-0.1,1-0.9,1-1.7c0.1,0,0.1,0.1,0.2,0.1c0.4,0.3,1.1,0.2,1-0.4c0-0.4,0-0.7,0.1-1.1c5.1,0.3,0.1-6.7-1.6-9.7
			c0.5,0.1,1.1,0.1,1.6,0.3c0.3,0.1,0.7-0.1,0.8-0.4c0.1-0.7,0-1.3-0.2-2c-0.3-0.8-1.7-3,0.2-3.1c0.4,0,0.8-0.4,0.6-0.8
			c-1.3-3.7-1.4-7.8-1.1-11.8c1.3,2,2,4.6,4,6c1.2,0.8,2.2,0,3.4,1.1c1,0.8,2.2,1,3.2,1.6c0.1,0.1,0.2,0.2,0.3,0.2
			c0.2,0.2,0.4,0.3,0.6,0.6c0.5,0.6,1.2-0.2,0.8-0.8c-0.2-0.2-0.4-0.5-0.5-0.6c0.1-0.5,0.1-0.9,0.1-1.4c0.2,0.5,0.3,1,0.5,1.5
			c0.1,0.3,0.4,0.6,0.8,0.5c0.5-0.2,1-0.3,1.4-0.6c1.2,1.1,2.8,1.2,4.1,0.1c0.3,0.6,0,2,0,2.5c0,0.6,0.3,1.2,0.6,1.7
			c0.8,1.5,2.9,2.3,4,3.7c0.2,0.3,0.7,0.3,0.9,0c0.9-0.9,1.7-2,2.6-3c-0.1,0.8-0.2,1.6-0.1,2.5c0,0.5,0.5,0.9,1,0.6l0.3-0.1
			c0.8,1.7,2.2,3.4,1.7,5.2c-0.1,0.5,0.3,1,0.8,0.8c1.9-0.6,1.9,0.2,2.3,1.8c0.2,0.9,0.8,1.4,1.7,1.3c3.4-0.4,4.8-4.2,6.1-7.3
			c0.1,3-0.1,7.4,2.8,7c0,0.4,0,0.8,0,1.2c0,0.3,0.2,0.6,0.5,0.6c0.3,0,0.6,0.1,0.8,0.1c-0.2,1-0.3,2-0.3,3c0,0.3,0.2,0.6,0.5,0.6
			c0.3,0,0.7-0.1,1-0.1c-0.6,0.7-1.1,1.5-1.2,2.4c-0.3,2,1.3,2.5,1.7,4.3c0.1,0.4,0.6,0.6,1,0.4c0.4-0.2,0.8-0.3,1.2-0.3
			c-0.7,0.8-1.7,1.3-2,2.4c-0.5,1.7,1.3,2.8,0.7,4.5c-0.2,0.5,0.3,1,0.8,0.8c1.1-0.2,2.1-0.8,3.1-1.2c-0.5,0.6-0.8,1.2-1.2,1.9
			c-0.2,0.4-0.1,0.9,0.4,1c1.3,0.3-2.7,4.2-3.2,4.5c-0.4,0.2-0.5,0.7-0.2,1c0,0.1,0.1,0.1,0.1,0.1c-0.6,0.9-1.4,1.5-2.4,1.9
			c-0.6,0.2-0.7,1,0,1.3c1.9,0.8,0.4,1.1-0.7,1.4c-0.8,0.2-1.7,0.3-2.6,0.3c-2.2,0-4-0.5-6.2,0.3c-2.4,1-4.6,3.2-6.6,4.7
			c-2,1.5-3.7,3-5.4,4.8C96,72.3,95.9,72.2,95.7,72.1z M114.4,89.4c1.4,1.4,2.6,2.9,3.7,4.7c1.4,2.4,1.9,4.9,2.1,7.5
			C119,97.2,117.1,93,114.4,89.4z M121.5,106c-0.1,0.1-0.1,0.2,0,0.3c-0.1,0.1-0.2,0.3-0.3,0.4c0-0.1,0-0.3,0-0.4
			c0.1-0.1,0.1-0.1,0.1-0.2c0.1-0.9,0.2-1.9,0.2-2.8c0.5-4.8,1-9.6,1-14.4c0-5.8-0.5-12.4-3.1-17.7c0-0.2,0.1-0.4,0.1-0.6
			c0.9-0.3,1.7-0.7,2.5-1.2c0.4-0.2,0.9-0.4,1.4-0.6c0,0,0,0,0,0c1.7,1.1,1.1,4.8,1,6.5c-0.1,3.2,0,6.3-0.1,9.5
			c-0.1,3.3-0.2,6.7-0.6,10c-0.3,3.1-1.1,6.1-1.3,9.2C122.2,104.7,121.8,105.3,121.5,106z M126.1,102.3c0.6-0.6,1.3-1.1,2.1-1.5
			c0.8-0.4,1.6-0.7,2.4-1C129,100.5,127.5,101.3,126.1,102.3z M184.8,66.3c0,0.1-0.1,0.1-0.1,0.2c-0.1,0-0.1,0-0.2,0
			C184.6,66.5,184.7,66.4,184.8,66.3z M208.4,103.1c-0.9,0.5-1.7,1-1.8,2.1c0,0.1-2,0.9-2.4,1.3c-0.6,0.8-0.7,1.5-0.4,2.3
			c-1-0.2-2-0.9-3.1-0.5c-0.3,0.1-0.5,0.4-0.7,0.6c-0.1,0.3-2,0.2-2.5,0.3c-1.8,0.2-0.9,2.1,0.1,3.6c-1.1-0.3-2.2-0.7-3.3-1
			c0,0,0-0.1-0.1-0.1c-0.2-0.4-0.8-0.2-0.8,0.2c0,0.4,0,0.8,0.1,1.2c-0.9,0-2.2,0.2-2.1,1.2c0,0.7,0.4,1.2,0.8,1.8
			c-0.2,0-0.3-0.1-0.5-0.2c-0.2-0.1-0.5,0-0.6,0.2c-0.9-0.4-1.8-0.7-2.7-0.8c0-0.2,0-0.3,0-0.5c0-0.5-0.7-0.6-0.8-0.1
			c-0.2,0.4-0.2,0.6-0.3,0.8c-2.3-0.4-4.4-1.4-6.6-2.3c-1-0.4-2.2-0.9-3.3-0.5c-1.4,0.4-0.5,2,0.3,3.1c-0.2,0-0.3,0-0.5,0
			c0-0.2-0.2-0.5-0.5-0.4c-3.1,0.4-1,3.3,0.4,4.3c1.4,1.1,2.9,1.9,3.6,3.7c0.7,1.7,0.8,3.5,1.7,5.1c0,0-0.1,0-0.1,0
			c-0.3,0.1-0.5,0.3-0.5,0.6c0,1.4,0.7,2.5,1.7,3.6c-0.9-0.5-1.8-0.9-2.8-1.2c0.1-0.5-0.7-0.8-1-0.3c-0.3,0.7-0.5,1.3-0.6,1.9
			c-1.2-0.4-2.2-0.1-3,0.7c-0.8-1.2-1.9-1.3-2.6,0.1c-1.5-0.6-3.1-0.6-3.2,0.7c-1-0.9-2-1.8-3.2-2.5c-1-0.6-1.9-0.2-2.9-0.6
			c-1.7-0.7-2.3,0.7-2.6,2.2c-0.8-1.4-1.3-2.8-3.1-3.6c-0.3-0.1-0.6,0-0.7,0.3c-0.2,0.3-0.3,0.5-0.5,0.8c-0.6-0.3-1.1-0.5-1.7-0.8
			c-0.4-0.2-0.9,0-0.9,0.5c0,0.2-0.1,0.3-0.2,0.5c-0.2-0.1-0.4-0.2-0.6-0.2c0.1-0.2,0-0.4-0.2-0.5c-2.9-2-4.3,0.9-5,3.3
			c-0.4-0.8-0.7-1.7-1.1-2.5c-0.2-0.4-0.7-0.4-0.9-0.2c-1-1.6-3-5.9-4.6-4.9c-0.7-1.2-1.7-1.9-3.1-2.3c-0.5-0.1-1.2-0.1-1.7,0.1
			c0.2-1.2,0.3-2.5,0.5-3.7c0-0.2,0-0.3-0.1-0.4c0,0,0,0,0.1,0c0.4-0.2,0.2-0.8-0.2-0.8c-0.3,0-0.4,0-0.6,0c0-0.4,0-0.8,0-1.1
			c0.1-0.4-0.2-0.7-0.5-0.8c-3.2-0.1-0.9-2.9-0.2-4.2c0.7-1.3,1.4-2.4,2.3-3.5c0.2-0.2,0-0.5-0.2-0.7c-0.2-0.1-0.4-0.3-0.6-0.3
			c2.4-1.7,6.1-0.9,8.5-2.8c2.1-1.7,4.1-4.2,5.2-6.9c-0.1,3.3-1.6,5.9-2.8,9c-1.3,3.4-0.7,7.2-0.7,10.7c0,0.2,0.3,0.2,0.3,0
			c0.7-4.2,0.7-8.3,2.5-12.3c1.1-2.3,2.2-4.7,2.1-7.2c0.2,0.3,0.4,0.5,0.6,0.8c1.1,1.3,2,2.7,2.8,4.2c1.5,2.8,3.3,5.4,5,8
			c1.6,2.4,3.3,4.8,5.4,6.9c2.3,2.3,5.1,3.9,7.5,6.2c0.2,0.2,0.5-0.1,0.3-0.3c-2-2.1-4.2-4.1-6.4-6.1c-2.5-2.2-4.3-5.2-6.1-7.9
			c-1.6-2.4-3.1-4.9-4.5-7.5c-0.9-1.7-2-3.2-3.2-4.6c2.6,0.6,5.4,0.6,8,0.8c4.6,0.5,9.1,1.3,13.7,1.9c9,1.2,18.3,1.3,27.4,1
			c0.6,0,0.6-0.9,0-0.9c-8.8-0.4-17.7-0.3-26.5-1.3c-4.3-0.5-8.5-1.2-12.8-1.8c-3.3-0.4-6.7-0.6-10-1.3c1.7-0.4,3.3-1.9,4.4-3.1
			c2-2,3.8-4.1,5.9-5.9c6.4-5.3,12.9-10.5,20-14.9c0.2-0.1,0.1-0.4-0.1-0.3c-3.2,1-5.8,3.3-8.5,5.2c-3.2,2.2-6.3,4.3-9.2,6.9
			c-2.2,1.9-4.5,3.7-6.5,5.8c-1.6,1.7-3.6,4.4-6,5c0.5-2.5-0.1-5.6-0.4-7.6c-0.6-5.7,0.7-11.1,2.9-16.4c0.2-0.3-0.4-0.6-0.6-0.3
			c-2.5,4.5-4,9.4-3.8,14.6c0.1,1.9,0.4,3.8,0.5,5.7c0.1,1.1,0.2,2.5,0,3.8c-0.1,0-0.1,0-0.2,0.1c-0.4,0.2-0.6,0.6-0.8,1
			c-0.1,0-0.1,0-0.1,0c-0.3-3.6-1.3-7.5-2.8-10.8c-0.5-1.2-1.7-2-2.8-2.6c-0.7-0.4-1.3-0.8-1.9-1.4c-0.6-0.6-2-1.8-0.4-1.3
			c0.5,0.1,1.1-0.4,0.8-1c-0.5-0.6-0.7-1.3-0.6-2.1c0,0,0,0,0.1,0c0.3-0.1,0.6-0.5,0.5-0.8c-0.5-1.4-0.6-2.7-0.2-4c0,0,0,0,0.1,0
			c0.3,0.1,0.8-0.1,0.8-0.4c0.1-0.4,0.1-0.8,0.1-1.2c0.3,0.6,0.7,1.2,1.1,1.7c0.3,0.4,1,0.2,1.1-0.3c0.3-1,1.6-1.1,2.2-1.9
			c0.5-0.6,0.3-1.4,0.2-2.2c0,0.1,0.1,0.1,0.1,0.2c0.2,0.3,0.6,0.5,0.9,0.3c1.2-0.9,2.4-0.6,3.1-2.1c0.2-0.5,0.3-1,0.3-1.6
			c0.1,0.1,0.1,0.1,0.2,0.2c0.3,0.3,0.7,0.2,0.9-0.1c0.4-0.6,0.8-1.2,1.1-1.8c0.1,0.1,0.2,0.1,0.3,0.2c0.3,0.2,0.7,0.1,0.9-0.2
			c0.1-0.2,0.3-0.4,0.4-0.6c1.5,1.2,3.1-0.9,4.4-2.6c-0.5,2.3-1,4.6,0.5,6.6c1.4,1.8,2.5-1.9,3.8-0.1c0.3,0.5,1,0.4,1.2-0.1
			c0.4-1.2,2-1.6,3.1-2.2c0.2,0.5,0.8,0.6,1.2,0.1c0.3-0.4,0.5-0.7,0.7-1.1c0.1,0.8,0.1,1.7,0.2,2.5c0.1,0.4,0.5,0.6,0.8,0.5
			c1.5-0.3,3,0,4.4-0.6c0.5-0.2,1.2-1.5,1.7-1.9c0.3,1.1,1.3,1.8,2.5,1.6c0.1,0.3,0.3,0.6,0.5,0.9c0.1,0.2,0.3,0.3,0.5,0.3
			c-0.5,0.3-0.2,1.2,0.4,1c0.2,0,0.3-0.1,0.5-0.1c0.1,0,0.2,0,0.4,0c0.9,0.1,1.7,0.5,2.7,0.5c1,0,1.1,0.5,1.9,0.9
			c1.4,0.6,3.4-0.6,5.1-1.5c-1.5,2.2-3.2,4.4-5.4,5.9c-0.3,0.2-0.5,0.7-0.2,1c1,0.8-0.3,1.3-1,1.7c-0.5,0.3-0.9,0.6-1.1,1.1
			c-0.2,0.4,0,0.8,0.4,0.9c0.3,0.1,0.5,0.2,0.8,0.4c-2.6,1.1-8.2,3.1-5.1,5.3c-0.1,0.2-0.2,0.3-0.3,0.5c-0.3,0.4-0.2,1,0.4,1h0
			c-0.7,1.3,0.5,2.1,2.3,2.1c1.2,0,2.4-0.1,3.6-0.3c2.1-0.3,4.1,0,6.2-0.1c-0.6,0.6-1,1.3-1.1,2.1c-0.2,1.7,2.5,0.8,2.5,2
			c0,0.3,0.2,0.6,0.5,0.6c1.2,0.2,2.3,0.7,3.4,1.1c-0.2,0.2-0.5,0.3-0.7,0.4c-0.3,0.1-0.4,0.6-0.2,0.8c1.4,1.9,3.4,2.7,5.6,2.6
			c-0.3,0.3-0.7,0.6-1,1c-0.2,0.3-0.3,0.8,0.1,1c1,0.5,2,1,3,1.4c-0.2,0.2-0.4,0.4-0.6,0.7c-0.3,0.3-0.2,0.8,0.2,0.9
			c1.1,0.3,2.3,0.3,3.5,0.2C209.9,102.3,209.2,102.7,208.4,103.1z"/>
	</g>
</g>
</svg>
