<?xml version="1.0" encoding="utf-8"?>
<!-- Generator: Adobe Illustrator 21.0.0, SVG Export Plug-In . SVG Version: 6.00 Build 0)  -->
<svg version="1.1" id="图层_1" xmlns="http://www.w3.org/2000/svg" xmlns:xlink="http://www.w3.org/1999/xlink" x="0px" y="0px"
	 viewBox="0 0 240 240" style="enable-background:new 0 0 240 240;" xml:space="preserve">
<style type="text/css">
	.st0{fill:#FFFFFF;}
</style>
<g>
	<g>
		<g>
			<path class="st0" d="M75.8,197.1c11.6-0.4,23.2-0.6,34.8-0.7c11.6-0.1,23.2-0.2,34.8-0.2c11.6,0,23.2,0.1,34.8,0.3
				c11.6,0.1,23.2,0.4,34.8,0.8c-11.6,0.4-23.2,0.6-34.8,0.7c-11.6,0.1-23.2,0.2-34.8,0.2c-11.6,0-23.2-0.1-34.8-0.3
				C99,197.7,87.4,197.5,75.8,197.1z"/>
		</g>
		<g>
			<path class="st0" d="M1.3,188.1c9.9-0.2,19.7-0.3,29.6-0.5l29.6-0.3c19.8-0.2,39.5-0.2,59.3-0.3c19.8,0.1,39.5,0,59.3,0.2
				l29.6,0.2c9.9,0.2,19.7,0.2,29.6,0.5c-9.9,0.2-19.8,0.3-29.6,0.5l-29.6,0.3c-19.8,0.2-39.5,0.2-59.2,0.3
				c-19.7-0.1-39.5,0-59.2-0.2l-29.6-0.2C21,188.4,11.1,188.3,1.3,188.1z"/>
		</g>
		<g>
			<path class="st0" d="M1.3,183.3c9.9-0.2,19.7-0.3,29.6-0.5l29.6-0.3c19.8-0.2,39.5-0.2,59.3-0.3c19.8,0.1,39.5,0,59.3,0.2
				l29.6,0.2c9.9,0.2,19.7,0.2,29.6,0.5c-9.9,0.2-19.8,0.3-29.6,0.5l-29.6,0.3c-19.8,0.2-39.5,0.2-59.2,0.3
				c-19.7-0.1-39.5,0-59.2-0.2l-29.6-0.2C21,183.6,11.1,183.5,1.3,183.3z"/>
		</g>
		<g>
			<path class="st0" d="M21.7,193.1c6.8-0.2,13.6-0.4,20.4-0.5l20.4-0.3c13.6-0.2,27.2-0.2,40.7-0.3c13.6,0,27.2,0,40.7,0.1
				l20.4,0.2c6.8,0.1,13.6,0.2,20.4,0.4c-6.8,0.2-13.6,0.4-20.4,0.5l-20.4,0.3c-13.6,0.2-27.2,0.2-40.7,0.3c-13.6,0-27.2,0-40.7-0.1
				l-20.4-0.2C35.3,193.3,28.5,193.3,21.7,193.1z"/>
		</g>
		<g>
			<path class="st0" d="M79.7,210.3c-0.2-0.2-0.4,0.2-0.3,0.3c0.1,0.1,0.3,0.1,0.5,0.1l1.6-0.3c1.1-0.2,2.1-0.3,3.2-0.4
				c2.1-0.2,4.3-0.3,6.4-0.2c2.1,0.1,4.3,0.2,6.4,0.5c1.1,0.1,2.1,0.3,3.2,0.5c0.5,0.1,1,0.2,1.6,0.4c0.3,0.1,0.7,0.2,0.8,0.6
				c0,0.2-0.1,0.4-0.2,0.5c-0.1,0.1-0.4,0.1-0.4-0.1c0.2,0.2,0.4-0.2,0.3-0.3c-0.1-0.1-0.3-0.2-0.5-0.1l-1.6,0.1
				c-1.1,0-2.1,0.1-3.2,0.1c-2.1,0-4.2,0-6.3,0c-2.1-0.1-4.2-0.1-6.3-0.2c-1.1,0-2.1-0.1-3.2-0.2c-0.5,0-1-0.1-1.6-0.1
				c-0.3,0-0.7-0.1-0.8-0.5c-0.1-0.2,0.1-0.4,0.2-0.5C79.4,210.1,79.7,210.1,79.7,210.3z"/>
		</g>
		<g>
			<path class="st0" d="M82.4,202.3c6.6-0.4,13.3-0.6,19.9-0.8c6.6-0.2,13.3-0.2,19.9-0.2c6.6,0,13.3,0.1,19.9,0.2
				c6.6,0.1,13.3,0.4,19.9,0.8c-6.6,0.4-13.3,0.6-19.9,0.8c-6.6,0.2-13.3,0.2-19.9,0.2c-6.6,0-13.3-0.1-19.9-0.2
				C95.7,203,89,202.7,82.4,202.3z"/>
		</g>
	</g>
	<g>
		<g>
			<g>
				<g>
					<path class="st0" d="M131,98.4c8.9-6.7,18.6-12.4,28.7-17.1c10.1-4.8,20.7-8.4,31.6-11.1l1.3-0.3l-0.8,1.1
						c-3.4,4.8-7.8,8.9-12.7,12.3c-4.8,3.4-10.1,6.1-15.6,8.2c-11,4.2-22.6,6.3-34.1,8.2l-0.1,0l0.1-0.1L131,98.4l-1.5,1.1l0-0.1
						c11.4-2.3,23-4.5,33.8-8.9c5.4-2.2,10.6-4.8,15.4-8.2c4.7-3.3,9-7.4,12.4-12.1l0.5,0.8c-10.8,2.6-21.4,6.3-31.5,10.8
						C149.9,86.5,140.2,92,131,98.4z"/>
				</g>
				<g>
					<path class="st0" d="M129.9,99.5c4.9-2.5,9.9-5,14.8-7.4c5-2.4,10-4.8,14.9-7.2c5-2.3,10-4.7,15-7l7.6-3.4
						c2.5-1.1,5.1-2.2,7.6-3.3c-2.5,1.3-4.9,2.5-7.4,3.8l-7.4,3.7c-5,2.4-10,4.8-14.9,7.2c-5,2.3-10,4.7-15,7
						C140,95.1,135,97.4,129.9,99.5z"/>
				</g>
			</g>
			<g>
				<g>
					<path class="st0" d="M128.3,102.7c1.4-6.2,3.3-12.3,5.8-18.2c2.5-5.9,5.6-11.5,9.2-16.8c3.6-5.3,7.6-10.3,12.1-14.9
						c4.5-4.6,9.4-8.7,14.7-12.4l1.3-0.9l-0.5,1.5c-2.1,6-4.5,11.9-7.4,17.6c-2.8,5.7-5.9,11.3-9.4,16.6
						c-3.5,5.3-7.3,10.5-11.3,15.3c-2,2.4-4.2,4.8-6.6,6.9C133.9,99.6,131.3,101.5,128.3,102.7z M128.3,102.7
						c2.9-1.3,5.5-3.2,7.8-5.4c2.3-2.2,4.4-4.6,6.4-7c4-4.9,7.7-10.1,11.1-15.4c3.4-5.4,6.5-10.9,9.2-16.6
						c2.8-5.7,5.1-11.6,7.2-17.5l0.8,0.6c-5.2,3.6-10.1,7.7-14.6,12.2c-4.5,4.5-8.5,9.4-12.1,14.6c-3.6,5.2-6.8,10.8-9.4,16.6
						C132,90.5,129.9,96.5,128.3,102.7z"/>
				</g>
				<g>
					<path class="st0" d="M128.2,101.9c2.7-5.3,5.9-10.3,9.1-15.3c3.3-5,6.8-9.8,10.2-14.6l10.6-14.3c1.8-2.4,3.5-4.8,5.2-7.2
						l2.6-3.6l2.5-3.7l-2.3,3.8l-2.4,3.8c-1.6,2.5-3.3,4.9-5,7.4c-3.4,4.9-6.9,9.6-10.4,14.4c-3.5,4.8-7,9.6-10.4,14.4
						C134.5,91.9,131.3,96.8,128.2,101.9z"/>
				</g>
			</g>
			<g>
				<g>
					<path class="st0" d="M94.9,36.9c5.6,3.8,10.5,8.4,14.8,13.7c4.2,5.2,7.8,11,10.7,17.1c2.9,6.1,5.1,12.5,6.7,19
						c1.7,6.5,2.8,13.2,3.7,19.9l0.2,1.3l-1-0.9c-5-4.4-9.4-9.5-13.3-14.9c-3.9-5.4-7.3-11.2-10.1-17.2c-2.8-6-5.2-12.3-7.1-18.6
						C97.5,49.9,96,43.4,94.9,36.9c1.3,6.5,2.9,12.9,5,19.3c2,6.3,4.4,12.5,7.3,18.5c2.9,5.9,6.2,11.7,10.1,17
						c3.9,5.3,8.3,10.3,13.3,14.7l-0.8,0.4c-0.8-6.7-1.9-13.3-3.5-19.8c-1.6-6.5-3.8-12.8-6.6-18.9c-2.8-6.1-6.2-11.9-10.3-17.2
						C105.2,45.6,100.3,40.8,94.9,36.9z"/>
				</g>
				<g>
					<path class="st0" d="M129.6,106.3c-2-2.5-3.7-5.2-5.3-8c-1.6-2.8-3.1-5.6-4.5-8.5c-2.9-5.7-5.7-11.5-8.5-17.2
						c-2.8-5.8-5.6-11.5-8.3-17.3l-4.1-8.7c-1.3-2.9-2.7-5.8-4-8.7c1.5,2.8,3,5.7,4.4,8.5l4.3,8.6c2.9,5.7,5.7,11.5,8.5,17.2
						l8.3,17.3C123.2,95.2,126.1,100.9,129.6,106.3z"/>
				</g>
			</g>
			<g>
				<g>
					<path class="st0" d="M132.4,91.8l0.2,18.6l0,0.3l-0.1-0.2c-3.3-6.2-6.2-12.7-8.5-19.4c-2.3-6.7-4.1-13.6-5.4-20.5
						c-1.2-7-1.9-14.1-2-21.1c-0.1-7.1,0.5-14.2,1.5-21.2l0.2-1.2l0.6,1.1c2.8,4.8,5,9.8,6.7,15c1.8,5.2,3,10.6,4,16
						c1,5.4,1.6,10.9,2,16.3C132,80.8,132.3,86.3,132.4,91.8z M132.4,91.8c-0.3-10.9-1-21.9-3.1-32.7c-1-5.4-2.4-10.7-4.3-15.8
						c-1.8-5.1-4.1-10.1-6.9-14.8l0.8-0.2c-1,7-1.5,14-1.4,21c0,7,0.7,14.1,1.8,21c1.1,7,2.8,13.8,5,20.5c2.2,6.7,4.9,13.2,8.2,19.5
						l-0.1,0L132.4,91.8z"/>
				</g>
				<g>
					<path class="st0" d="M131.5,109.6c-1.7-6.7-3-13.4-4.3-20.2c-1.3-6.8-2.3-13.5-3.4-20.3c-1-6.8-2-13.6-2.8-20.4l-1.3-10.2
						l-1.2-10.2c0.6,3.4,1.1,6.8,1.7,10.2l1.6,10.2l3.1,20.4c1,6.8,2.1,13.6,3.2,20.3C129.1,96.1,130.2,102.9,131.5,109.6z"/>
				</g>
			</g>
		</g>
		<g>
			<g>
				<g>
					<g>
						<g>
							<path class="st0" d="M227.1,77c0.4,2.1,0.1,4.4-0.5,6.5c-0.7,2.1-1.7,4-2.7,5.9c-2.2,3.8-4.6,7.4-7.4,10.8
								c-5.5,6.8-12.1,12.7-19.5,17.4c-3.7,2.3-7.6,4.4-11.6,6.1c-4,1.7-8.2,3-12.5,4.1c-8.5,2.2-17.2,3.2-25.9,3.6
								c-8.7,0.4-17.4,0.3-26.1-0.1c-8.7-0.4-17.5-1.2-26-4c-4.2-1.4-8.3-3.3-12.1-5.7c-3.8-2.4-7.2-5.5-9.9-9.1
								c-2.7-3.6-4.8-7.5-7.1-11c-1.2-1.8-2.4-3.5-3.7-5.1c-0.7-0.8-1.4-1.5-2.2-2.2l-0.6-0.5c-0.1-0.1-0.2-0.1-0.1-0.1
								c0.1,0,0.3,0,0.5,0c0.1,0,0.2-0.1,0.3-0.2c0.1-0.1,0.2-0.2,0.3-0.4c0.5-0.6-0.2-1.8-0.8-2c-0.2-0.1-0.5-0.1-0.5-0.1
								c-0.1,0-0.1,0-0.2,0c-0.2,0-0.1,0-0.2,0.1c0,0-0.2,0.1-0.4,0.5l0,1c-3-8.5-2.2-18.2,2.1-26.1c0.5-1,1.1-2.1,2.4-3
								c0.6-0.4,1.4-0.7,2.1-0.8c0.7-0.1,1.4-0.1,2,0.1c1.3,0.2,2.3,0.7,3.4,1.1c1,0.5,2,1,3,1.5c3.9,2.2,7.2,5.1,10.5,7.8l2.5,2
								l2.5,1.9l2.5,1.9c0.9,0.6,1.8,1.1,2.7,1.7l2.7,1.7c0.9,0.5,1.9,1,2.8,1.5l2.8,1.5c0.9,0.5,1.9,0.9,2.9,1.3
								c7.7,3.5,15.9,6.1,24.2,7.6c16.7,3,34.3,1.7,50.2-4.2c2-0.8,4-1.5,6-2.4c2-0.9,4-1.7,6.2-2.2c2.1-0.5,4.4-0.5,6.6-0.2
								c2.2,0.3,4.2,0.9,6.3,1.3c2.1,0.4,4.2,0.7,6.3,0.3c1-0.2,2-0.6,2.9-1c0.9-0.5,1.8-1.1,2.7-1.7c1.7-1.3,3.2-2.8,5-4.1
								C223.1,78.6,225,77.4,227.1,77c-2.1,0.5-4,1.7-5.6,3c-1.6,1.4-3.1,2.9-4.8,4.3c-0.8,0.7-1.7,1.3-2.7,1.9
								c-1,0.5-2,0.9-3.1,1.2c-2.2,0.5-4.4,0.3-6.5-0.1c-2.1-0.4-4.2-0.9-6.3-1.2c-2.1-0.3-4.2-0.2-6.2,0.3c-2,0.5-4,1.4-5.9,2.3
								c-1.9,0.9-4,1.7-6,2.5c-16.1,6.3-34,7.9-51.1,5.1c-8.6-1.4-17-3.9-24.9-7.5c-1-0.5-2-0.9-3-1.4L98.2,86c-1-0.5-1.9-1-2.9-1.6
								l-2.8-1.7c-0.9-0.6-1.9-1.1-2.8-1.8L87.2,79L84.5,77L82,75c-3.3-2.7-6.6-5.5-10.2-7.5c-0.9-0.5-1.8-1-2.7-1.4
								c-0.9-0.4-1.9-0.8-2.7-0.9c-0.9-0.1-1.5,0-2,0.3c-0.5,0.4-1,1.1-1.5,2.1c-3.9,7.2-4.5,16.1-1.8,23.8l0.2,0.5l-0.2,0.5
								c-0.2,0.7-0.6,0.9-0.9,1.1c-0.3,0.2-0.5,0.3-1,0.4c0,0-0.1,0-0.3,0c0,0-0.3,0-0.6-0.1c-0.7-0.2-1.3-1.4-0.8-2.1
								c0.1-0.3,0.3-0.4,0.4-0.5c0.2-0.2,0.4-0.3,0.7-0.4c0.5-0.2,1-0.1,1.3-0.1c0.7,0.2,1,0.5,1.3,0.7l0.6,0.6
								c0.9,0.8,1.7,1.6,2.4,2.5c1.5,1.7,2.8,3.6,4,5.4c2.4,3.7,4.4,7.5,6.9,10.9c5,6.7,12.6,11.2,20.6,13.9
								c8.1,2.7,16.7,3.6,25.3,4c8.6,0.4,17.3,0.7,25.9,0.4c8.6-0.3,17.2-1.1,25.6-3.1c4.2-1,8.3-2.3,12.3-3.9
								c4-1.6,7.8-3.5,11.5-5.8c7.4-4.4,14-10.1,19.6-16.6c2.8-3.3,5.3-6.8,7.6-10.5c1.1-1.8,2.2-3.7,2.9-5.8
								C227.1,81.4,227.4,79.2,227.1,77z"/>
						</g>
						<g>
							<path class="st0" d="M66.3,63.8c-0.7-0.2-1.4-0.5-2-0.1c-0.6,0.4-0.8,1.1-0.9,1.7L63,67.6c-0.1,0.7-0.3,1.4-0.5,2.1L61.9,68
								c-0.1-0.1-0.2-0.1-0.2-0.1c0,0,0.2,0,0.3-0.1c0.4-0.2,0.9-0.3,1.3-0.5c0.9-0.3,1.8-0.5,2.7-0.7c0.5-0.1,0.9-0.3,1.3-0.5
								c0.4-0.2,0.7-0.3,0.8-0.7c0-0.4-0.3-0.8-0.7-1.1C67.2,64.1,66.7,64,66.3,63.8z M66.3,63.8c0.5,0.1,1,0.2,1.4,0.4
								c0.5,0.2,0.9,0.5,1.2,1.1c0.1,0.3,0.1,0.7-0.1,1c-0.2,0.3-0.4,0.5-0.5,0.7c-0.3,0.4-0.7,0.8-1.1,1.1
								c-0.8,0.7-1.7,1.3-2.6,1.8c-0.5,0.2-0.9,0.4-1.4,0.6c-0.3,0.1-0.6,0.2-1.1,0.2c-0.4,0-1.1,0-1.6-0.4l-1.1-0.8l0.5-1
								c0.3-0.6,0.7-1.3,1.1-1.9l1.3-1.8c0.5-0.6,1-1.3,1.8-1.5C64.9,63.2,65.6,63.6,66.3,63.8z"/>
						</g>
					</g>
					<g>
						<path class="st0" d="M67.5,69.7c4.3,5.5,8.7,10.9,13.8,15.7c2.5,2.4,5.2,4.6,8.2,6.4c2.9,1.9,6,3.4,9.2,4.7
							c6.4,2.6,13.2,4.4,20,5.6c6.8,1.2,13.8,1.9,20.7,2c6.9,0.1,13.9-0.4,20.8-1.4c6.9-1,13.6-2.8,20.2-4.9
							c6.6-2.1,13.2-4.6,20.1-5.9c3.4-0.6,6.9-0.9,10.3-1.6c3.4-0.7,6.8-2.1,9.1-4.8c-2.2,2.7-5.6,4.2-9,5
							c-3.4,0.8-6.9,1.2-10.3,1.9c-6.8,1.4-13.3,3.9-19.9,6.2c-13.2,4.5-27.3,6.7-41.3,6.5c-7-0.1-14-0.8-20.9-2.1
							c-6.9-1.3-13.7-3.1-20.1-5.8c-3.2-1.4-6.4-3-9.3-4.9c-2.9-1.9-5.6-4.2-8.2-6.6C76,80.9,71.7,75.3,67.5,69.7z"/>
					</g>
				</g>
				<g>
					<g>
						<g>
							<path class="st0" d="M190.3,111c-2.5,2.7-5.6,4.9-8.9,6.5c-3.3,1.6-6.9,2.8-10.5,3.7c-3.6,0.9-7.2,1.6-10.9,2.3
								c-3.6,0.7-7.3,1.3-11,1.8c-7.3,1-14.8,1.5-22.2,1.3c-7.4-0.2-14.9-1.3-22.1-3.4c-7.2-2.1-14.1-5.3-20.2-9.8
								c-6.1-4.5-11.2-9.9-16.9-14.3c-2.9-2.2-5.9-4.1-9.2-5.5c-1.6-0.6-3.3-1.1-4.7-0.9c-1.5,0.1-2.7,0.8-3.7,2.1
								c-1,1.2-1.7,2.9-2.3,4.5l-0.4,1.2c-0.1,0.4-0.2,0.8-0.3,1.3c-0.2,0.8-0.3,1.7-0.4,2.6c-0.4,3.5,0.2,7,1.2,10.4
								c1,3.4,2.5,6.7,4.4,9.7c1.9,3,4.2,5.8,6.7,8.4c5,5.2,11.1,9.3,17.5,12.6c6.5,3.2,13.5,5.5,20.6,6.7
								c7.2,1.2,14.5,1.6,21.8,1.1c7.3-0.5,14.5-1.8,21.6-3.7c3.5-0.9,7-2.1,10.5-3.3c3.5-1.2,6.8-2.7,10.2-4.2
								c6.6-3.1,12.9-7.1,18.1-12.3c2.6-2.6,4.9-5.5,6.8-8.6C187.8,117.9,189.3,114.5,190.3,111c-1.6,7.2-5.5,13.9-10.6,19.2
								c-5.1,5.4-11.4,9.6-18,13c-3.3,1.7-6.7,3.2-10.2,4.5c-3.5,1.3-7,2.6-10.6,3.6c-7.1,2.1-14.5,3.6-21.9,4.2
								c-3.7,0.3-7.5,0.5-11.2,0.3c-3.7-0.1-7.5-0.5-11.2-1.1c-7.4-1.3-14.6-3.6-21.4-6.9c-6.7-3.3-13-7.6-18.4-13
								c-5.3-5.3-9.8-11.8-12-19.2c-1.1-3.7-1.7-7.6-1.2-11.5c0.1-1,0.2-1.9,0.5-2.9c0.1-0.5,0.2-1,0.3-1.4l0.5-1.4
								c0.7-1.8,1.5-3.6,2.8-5.3c0.7-0.8,1.5-1.6,2.5-2.2c1-0.6,2.1-0.9,3.2-1c2.2-0.2,4.2,0.4,6,1.2c3.6,1.5,6.8,3.6,9.8,5.9
								c6,4.6,11,10.1,16.8,14.4c5.8,4.3,12.4,7.5,19.4,9.7c6.9,2.2,14.2,3.4,21.5,3.7c7.3,0.4,14.7,0,22-0.9
								c3.7-0.4,7.3-0.9,10.9-1.5c3.6-0.6,7.3-1.2,10.9-2c3.6-0.8,7.1-1.8,10.5-3.3C184.5,115.6,187.6,113.6,190.3,111z"/>
						</g>
						<g>
							<path class="st0" d="M55.4,91.8c-0.3-0.4-0.7-0.5-1.2-0.5c-0.4,0-0.9,0-1.3,0c-0.4,0.1-0.8,0.2-1.1,0.4
								c-0.3,0.2-0.4,0.5-0.5,0.9l-0.3,1.2c-0.1,0.4-0.2,0.8-0.3,1.2c-0.2,0.8-0.2,1.4-0.1,1.9L49,95.7c0.6,0,1.3,0,2-0.1
								c0.7-0.1,1.4-0.2,2.1-0.5c0.7-0.3,1.4-0.7,1.9-1.2c0.3-0.3,0.5-0.6,0.6-1C55.7,92.5,55.6,92.1,55.4,91.8z M55.4,91.8
								c0.5,0.7,0.3,1.6-0.1,2.3c-0.4,0.7-0.9,1.4-1.4,2.1c-0.6,0.6-1.3,1.2-2.1,1.7c-0.8,0.4-1.7,0.7-2.6,0.8l-1.2,0.1l-0.3-1.3
								c-0.3-1.3,0-2.5,0.5-3.4c0.2-0.5,0.5-0.9,0.8-1.3c0.3-0.4,0.6-0.7,1-1.1c0.4-0.4,0.9-0.8,1.5-0.9c0.6-0.1,1.1,0,1.5,0.1
								c0.5,0.1,0.9,0.2,1.3,0.3C54.6,91.2,55.1,91.4,55.4,91.8z"/>
						</g>
					</g>
					<g>
						<path class="st0" d="M53.6,100.2c2.5,6.7,6.3,12.8,10.8,18.3c4.6,5.5,9.9,10.3,15.6,14.4c5.7,4.2,12,7.7,18.4,10.6
							c3.2,1.5,6.6,2.7,10,3.8c3.4,1.1,6.8,2.1,10.3,2.8c-3.5-0.6-7-1.4-10.5-2.4c-3.4-1-6.8-2.2-10.1-3.6
							c-6.6-2.8-12.9-6.4-18.7-10.5c-5.8-4.3-11.2-9.1-15.6-14.7c-2.2-2.8-4.3-5.8-6-8.9C56.1,107,54.6,103.7,53.6,100.2z"/>
					</g>
				</g>
				<g>
					<g>
						<g>
							<path class="st0" d="M203.8,97.6c-4.6,3.3-8.4,7.5-12.2,11.7c-3.7,4.2-7.4,8.5-11.5,12.4c-4,3.9-8.3,7.6-12.9,11
								c-4.5,3.4-9.2,6.5-14.2,9.1c-10,5.3-21.4,7.6-32.7,8.1c-5.7,0.3-11.3,0.1-16.9-0.2c-5.6-0.4-11.3-1-16.8-1.9
								c-11.2-1.8-22.2-4.8-32.8-8.7c-2.7-1-5.3-2-7.9-3.2c-2.6-1.1-5.2-2.3-7.7-3.4c-2.6-1.1-5.2-1.9-7.8-2.3
								c-2.6-0.3-5.3,0-7.5,1.2c-2.2,1.2-3.9,3.3-4.8,5.7c-1,2.4-1.3,5.1-1.2,7.7c0.1,2.7,0.7,5.3,1.7,7.7c1.1,2.5,2.4,4.9,3.9,7.2
								c3.1,4.6,6.9,8.6,11.1,12.2c4.2,3.6,8.9,6.6,13.8,9.2c4.9,2.6,10.1,4.6,15.4,6.2c5.3,1.7,10.8,3.1,16.2,4.3
								c10.9,2.4,22.1,3.8,33.2,4c11.2,0.3,22.4-0.7,33.3-2.8c5.5-1.1,10.9-2.5,16.2-4.3c5.3-1.8,10.4-4.1,15.2-6.9
								c19.5-11,35.5-28.1,45.4-48.2c2.4-5.1,4.6-10.3,5.9-15.7c1.3-5.4,1.8-11.1,1-16.7c-0.2-1.4-0.5-2.8-0.9-4.1
								c-0.4-1.4-0.8-2.7-0.8-4.2c0-1.4,0.3-2.9,0.9-4.2c0.5-1.3,1.2-2.6,1.9-3.8c0.7-1.2,1.3-2.5,1.8-3.8c0.5-1.3,0.8-2.7,0.7-4.1
								c-0.1-1.4-0.8-2.7-1.8-3.6c-1-1-2.4-1.6-3.7-1.2l0.1-0.1c0.3,3.1-0.7,6.2-2.2,8.9c-1.6,2.7-3.7,5-6.1,6.9
								C214.4,91.5,208.8,94,203.8,97.6z M203.8,97.6c5-3.6,10.6-6.2,15.4-10.1c2.4-1.9,4.5-4.2,6-6.9c1.5-2.6,2.4-5.7,2.1-8.7
								l0-0.1l0.1,0c1.4-0.4,3,0.2,4,1.2c1,1,1.7,2.4,1.9,3.8c0.1,1.4-0.2,2.9-0.6,4.2c-0.5,1.3-1.1,2.6-1.8,3.8
								c-1.3,2.4-2.8,5-2.7,7.8c0,1.4,0.4,2.7,0.8,4.1c0.4,1.4,0.7,2.8,0.9,4.2c0.8,5.6,0.3,11.4-0.9,16.9
								c-1.3,5.5-3.4,10.8-5.7,15.9c-9.7,20.4-25.6,38-45.2,49.5c-4.9,2.9-10.1,5.3-15.4,7.3c-5.4,1.9-10.8,3.5-16.4,4.7
								c-11.1,2.4-22.5,3.3-33.9,3.2c-11.4-0.2-22.7-1.6-33.8-3.9c-5.6-1.2-11.1-2.6-16.5-4.2c-5.5-1.6-10.8-3.8-15.9-6.5
								c-5.1-2.7-9.9-5.9-14.2-9.6c-4.4-3.7-8.3-8-11.5-12.8c-1.6-2.4-3-5-4.1-7.6c-1.2-2.7-1.8-5.7-1.9-8.7c-0.1-3,0.3-6,1.5-8.8
								c1.2-2.8,3.2-5.4,6-6.8c2.8-1.5,6-1.8,8.9-1.4c3,0.4,5.7,1.4,8.3,2.6c2.6,1.2,5.1,2.4,7.7,3.5c2.6,1.1,5.1,2.2,7.8,3.2
								c10.4,4.1,21.3,7.1,32.3,9.1c5.5,1,11.1,1.7,16.7,2.2c5.6,0.5,11.2,0.7,16.8,0.5c5.6-0.2,11.2-0.8,16.7-2
								c2.7-0.6,5.4-1.4,8.1-2.3c2.6-0.9,5.2-2.1,7.7-3.4c5-2.6,9.7-5.7,14.2-9c4.5-3.3,8.8-7,12.9-10.9c4.1-3.9,7.8-8.1,11.5-12.3
								C195.3,105,199.2,100.9,203.8,97.6z"/>
						</g>
						<g>
							<path class="st0" d="M25.7,131c-1.1-0.5-2.2-0.4-3.1,0c-0.5,0.2-0.9,0.4-1.2,0.7c-0.3,0.3-0.6,0.6-0.9,1
								c-0.5,0.8-0.8,1.7-1,2.6c-0.1,0.5-0.2,1-0.2,1.5c0,0.1,0,0-0.1-0.3c-0.1-0.2-0.3-0.4-0.5-0.5c-0.2-0.1-0.1,0,0.1,0l-1,0.6
								c1.1-1.5,2.8-2.7,4.6-3.2c0.9-0.2,1.6-0.4,2.2-0.6C25.1,132.4,25.7,131.8,25.7,131z M25.7,131c0.3,0.3,0.4,0.8,0.3,1.3
								c-0.1,0.5-0.3,1-0.6,1.4c-0.7,0.8-1.5,1.2-2.2,1.6c-1.2,0.8-2.3,1.8-3,3l-0.4,0.5l-0.7,0.1c-0.4,0-0.8,0.2-1.6-0.1
								c-0.4-0.1-0.9-0.6-1.1-1c-0.2-0.5-0.2-0.9-0.2-1.1c0-0.7,0.1-1.3,0.3-2c0.3-1.3,0.9-2.6,1.9-3.6c0.5-0.5,1.1-1,1.7-1.2
								c0.7-0.3,1.3-0.4,2-0.4C23.6,129.3,25.1,129.9,25.7,131z"/>
						</g>
					</g>
					<g>
						<path class="st0" d="M25.3,132.9c6.9,6.5,14.9,11.6,23.3,15.8c8.4,4.2,17.3,7.5,26.4,9.6c9.2,2.1,18.5,3.7,27.8,4.4
							c4.7,0.3,9.4,0.4,14.1,0.3c4.7-0.2,9.4-0.6,14-1.2c4.7-0.6,9.3-1.4,13.8-2.6c4.5-1.2,9-2.7,13.3-4.6c4.3-1.9,8.4-4.2,12.3-6.7
							c3.9-2.6,7.7-5.4,11.3-8.4c7.2-6,13.7-12.9,19.6-20.2c5.9-7.3,11.2-15.1,16-23.2c-4.7,8.2-9.8,16.1-15.7,23.5
							c-5.8,7.4-12.3,14.4-19.5,20.5c-7.2,6.2-15.1,11.5-23.7,15.4c-4.3,2-8.8,3.5-13.4,4.7c-4.6,1.2-9.3,2-13.9,2.6
							c-4.7,0.6-9.4,1.1-14.1,1.2c-4.7,0.1-9.5,0-14.2-0.3c-9.4-0.7-18.8-2.4-27.9-4.6c-9.2-2.2-18.1-5.6-26.5-9.9
							C40,144.8,32,139.5,25.3,132.9z"/>
					</g>
					<g>
						<g>
							<path class="st0" d="M175.5,171.5c-2.3,1.2-4.7,2.3-7.1,3.4c-2.4,1.1-4.8,2.1-7.3,2.9l0.2-0.2c-0.1,0.1-0.1,0.2,0,0.3
								c0.1,0.1,0.2,0.2,0.4,0.3c0.3,0.2,0.8,0.3,1.2,0.4c0.9,0,1.9,0,2.8,0c1.9-0.1,3.8-0.3,5.6-0.7c3.7-0.8,7.3-2.2,10.5-4.2l0,0
								c0.6-0.5,0.5-1.4,0.2-2.1c-0.4-0.7-1-1.3-1.8-1.4c-0.8-0.2-1.6,0-2.4,0.2C176.9,170.7,176.2,171.1,175.5,171.5z M175.5,171.5
								c0.7-0.4,1.4-0.7,2.2-1c0.8-0.3,1.6-0.4,2.4-0.3c0.8,0.1,1.5,0.7,2,1.4c0.4,0.7,0.6,1.7-0.1,2.4l0,0l0,0
								c-3.1,2.2-6.7,3.9-10.5,4.8c-1.9,0.4-3.8,0.7-5.8,0.8c-1,0-1.9,0-2.9-0.1c-0.6-0.1-1.1-0.2-1.5-0.6c-0.2-0.2-0.5-0.4-0.6-0.7
								c-0.2-0.3-0.1-0.8,0.1-1l0.1-0.1l0.1,0c2.5-0.7,5-1.6,7.4-2.5C170.8,173.7,173.2,172.7,175.5,171.5z"/>
						</g>
						<g>
							<path class="st0" d="M74.4,175.7c-1.4-0.4-2.8-0.6-4.2-0.7c-1.4-0.1-2.9-0.1-4.3,0l0.3-0.6c1.3,1.5,3.1,2.7,5,3.4
								c1.9,0.7,4,1,6,0.7l-0.1,0.1c0.1-0.3,0.1-0.7,0-1c-0.1-0.3-0.4-0.6-0.7-0.9C75.8,176.2,75.1,175.9,74.4,175.7z M74.4,175.7
								c0.7,0.2,1.4,0.5,2,0.9c0.3,0.2,0.6,0.5,0.8,0.8c0.2,0.3,0.3,0.8,0.2,1.2l0,0.1l-0.1,0c-2,0.6-4.3,0.6-6.4,0
								c-2.1-0.7-4-2-5.2-3.8l-0.4-0.6l0.7,0c1.5,0,2.9,0.2,4.3,0.5C71.6,175,73,175.3,74.4,175.7z"/>
						</g>
						<g>
							<path class="st0" d="M81.5,185.1c1.1,0.3,2.2,0.4,3.2,0.3l-0.4,0.5c-0.1-0.9-0.6-1.7-1.4-2.2c-0.8-0.5-1.8-0.8-2.8-0.4
								c0.4-0.4,1-0.7,1.5-0.7c0.6,0,1.2,0.1,1.7,0.3c0.5,0.3,1,0.7,1.4,1.2c0.3,0.5,0.6,1.2,0.5,1.8l0,0.5l-0.4,0
								C83.5,186.3,82.3,185.9,81.5,185.1z"/>
						</g>
					</g>
					<g>
						<path class="st0" d="M225.2,94.1l0.3,4.3c0,1.4,0,2.9,0,4.3c0,1.4-0.2,2.9-0.3,4.3c-0.1,1.4-0.4,2.9-0.6,4.3
							c-1,5.7-2.7,11.3-5,16.6c-2.3,5.3-5.2,10.4-8.4,15.1c-1.6,2.4-3.4,4.7-5.2,6.9c-0.9,1.1-1.9,2.2-2.8,3.3c-1,1.1-2,2.1-3,3.2
							l2.8-3.3c0.9-1.1,1.8-2.3,2.6-3.4c1.7-2.3,3.4-4.6,5-7c3.1-4.8,5.9-9.8,8.2-15.1c2.3-5.2,4-10.7,5.2-16.3
							C225,105.6,225.4,99.8,225.2,94.1z"/>
					</g>
				</g>
			</g>
			<g>
				<path class="st0" d="M232.9,81.5c0.5-1,0.7-2.2,0.7-3.3c0-1.1-0.3-2.2-0.9-3.2c-1.1-1.9-3.2-3-5.1-2.9l0.4-0.1
					c-1.3,0.8-2.4,1.7-3.4,2.8c-0.5,0.5-1,1.1-1.4,1.8c-0.4,0.6-0.8,1.3-1.1,2l-0.8-1.1c1.2,0,2.3,0.2,3.4,0.6
					c1.1,0.4,2.1,0.9,3.1,1.5c0.9,0.6,1.7,1.5,2.4,2.3c0.4,0.4,0.9,0.6,1.5,0.6c0.3,0,0.5-0.1,0.8-0.3
					C232.7,82,232.8,81.7,232.9,81.5z M232.9,81.5c-0.1,0.2-0.2,0.5-0.5,0.7c-0.2,0.2-0.5,0.3-0.8,0.3c-0.6,0-1.1-0.2-1.6-0.5
					c-0.5-0.3-0.8-0.7-1.3-1.1c-0.4-0.3-0.9-0.6-1.4-0.8c-1.9-0.9-4.1-1.2-6.1-0.9l-1.2,0.2l0.4-1.3c0.3-0.8,0.6-1.6,1-2.4
					c0.4-0.7,0.9-1.4,1.5-2.1c1.2-1.3,2.6-2.3,4.1-3l0.2-0.1l0.2,0c1.3,0.1,2.6,0.6,3.5,1.4c1,0.8,1.7,1.8,2.1,2.9
					c0.4,1.1,0.6,2.3,0.5,3.4C233.7,79.3,233.5,80.4,232.9,81.5z"/>
			</g>
		</g>
	</g>
</g>
</svg>
