<?xml version="1.0" encoding="utf-8"?>
<!-- Generator: Adobe Illustrator 21.0.0, SVG Export Plug-In . SVG Version: 6.00 Build 0)  -->
<svg version="1.1" id="图层_1" xmlns="http://www.w3.org/2000/svg" xmlns:xlink="http://www.w3.org/1999/xlink" x="0px" y="0px"
	 viewBox="0 0 240 240" style="enable-background:new 0 0 240 240;" xml:space="preserve">
<style type="text/css">
	.st0{fill-rule:evenodd;clip-rule:evenodd;fill:none;stroke:#FFFFFF;stroke-width:2;stroke-miterlimit:10;}
	.st1{fill-rule:evenodd;clip-rule:evenodd;fill:#FFFFFF;}
	.st2{fill-rule:evenodd;clip-rule:evenodd;fill:none;stroke:#040000;stroke-width:4;stroke-miterlimit:10;}
	.st3{fill-rule:evenodd;clip-rule:evenodd;fill:none;stroke:#040000;stroke-miterlimit:10;}
</style>
<polygon class="st0" points="137.6,87.9 102.2,87.9 84.6,118.6 102.2,149.2 137.6,149.2 155.3,118.6 "/>
<polygon class="st0" points="137.6,26.4 102.2,26.4 84.6,57 102.2,87.6 137.6,87.6 155.3,57 "/>
<polygon class="st0" points="190.7,56.8 155.3,56.8 137.6,87.4 155.3,118.1 190.7,118.1 208.4,87.4 "/>
<polygon class="st0" points="84.6,57.5 49.2,57.5 31.5,88.1 49.2,118.8 84.6,118.8 102.2,88.1 "/>
<polygon class="st0" points="84.6,118.4 49.2,118.4 31.5,149 49.2,179.6 84.6,179.6 102.2,149 "/>
<polygon class="st0" points="137.6,149.5 102.2,149.5 84.6,180.1 102.2,210.8 137.6,210.8 155.3,180.1 "/>
<polygon class="st0" points="190.7,118.4 155.3,118.4 137.6,149 155.3,179.6 190.7,179.6 208.4,149 "/>
<circle class="st1" cx="49.5" cy="57.4" r="4.2"/>
<circle class="st1" cx="84.2" cy="56.7" r="4.2"/>
<circle class="st1" cx="101.9" cy="26.2" r="4.2"/>
<circle class="st1" cx="138" cy="26.2" r="4.2"/>
<circle class="st1" cx="101.9" cy="87.1" r="4.2"/>
<circle class="st1" cx="153.5" cy="56.7" r="4.2"/>
<circle class="st1" cx="191" cy="56.7" r="4.2"/>
<circle class="st1" cx="153.5" cy="118.2" r="4.2"/>
<circle class="st1" cx="191" cy="118.2" r="4.2"/>
<circle class="st1" cx="207.3" cy="87.8" r="4.2"/>
<circle class="st1" cx="138" cy="87.8" r="4.2"/>
<circle class="st1" cx="31.1" cy="87.8" r="4.2"/>
<circle class="st1" cx="84.2" cy="118.9" r="4.2"/>
<circle class="st1" cx="48.1" cy="118.9" r="4.2"/>
<circle class="st1" cx="31.1" cy="149.3" r="4.2"/>
<circle class="st1" cx="101.9" cy="149.3" r="4.2"/>
<circle class="st1" cx="138" cy="149.3" r="4.2"/>
<circle class="st1" cx="207.3" cy="149.3" r="4.2"/>
<circle class="st1" cx="155.7" cy="179.8" r="4.2"/>
<circle class="st1" cx="191" cy="179.8" r="4.2"/>
<circle class="st1" cx="49.5" cy="180.5" r="4.2"/>
<circle class="st1" cx="84.2" cy="180.5" r="4.2"/>
<circle class="st1" cx="101.9" cy="210.2" r="4.2"/>
<circle class="st1" cx="138" cy="210.9" r="4.2"/>
<path class="st2" d="M95.5,14.9"/>
<g>
	<polyline class="st0" points="144.4,14.8 137.6,26.6 155.3,57.2 190.7,57.2 197.8,44.8 	"/>
	<polyline class="st0" points="42.3,45.3 49.2,57.2 84.6,57.2 102.2,26.6 95.5,14.9 	"/>
	<polyline class="st0" points="15.5,149.2 31.5,149.2 49.2,118.6 31.5,87.9 17,87.9 	"/>
	<polyline class="st0" points="94.1,225.4 102.2,211.2 84.6,180.6 49.2,180.6 41.5,193.9 	"/>
	<polyline class="st0" points="198.9,194.8 190.7,180.6 155.3,180.6 137.6,211.2 145.8,225.4 	"/>
	<polyline class="st0" points="223.8,87.2 208.4,87.2 190.7,117.9 208.4,148.5 224.8,148.5 	"/>
</g>
<path class="st3" d="M223.4,87.2"/>
<path class="st3" d="M197.8,44.8"/>
</svg>
