<?xml version="1.0" encoding="utf-8"?>
<!-- Generator: Adobe Illustrator 21.0.0, SVG Export Plug-In . SVG Version: 6.00 Build 0)  -->
<svg version="1.1" id="图层_1" xmlns="http://www.w3.org/2000/svg" xmlns:xlink="http://www.w3.org/1999/xlink" x="0px" y="0px"
	 viewBox="0 0 240 240" style="enable-background:new 0 0 240 240;" xml:space="preserve">
<style type="text/css">
	.st0{fill:#FFFFFF;stroke:#FFFFFF;stroke-miterlimit:10;}
</style>
<g>
	<path class="st0" d="M198.8,112.3c-0.4-0.2-0.8-0.3-1.3-0.4c-5.8-2-11.4-3.2-17.6-2.9c-5.1,0.3-11.3,0.9-15.5-2.3
		c3-0.9,5.7-2.5,8.3-4.5c3.9-3,7.7-6.1,11.6-9.1c0.3-0.3,0.1-0.8-0.3-0.6c-0.3,0.1-0.5,0.3-0.8,0.4c-5.5,0-11.8,1.7-16.8,4.1
		c-4.3,2.1-10.5,5.6-12.6,10.4c0,0,0,0,0,0c-0.8-0.6-1.9-1.1-3-2.2c-1.3-1.3-1.9-2.9-3-4.3c-1.5-1.9-3.1-3.1-5.4-3.8
		c-4.6-1.4-11.4-0.8-15.6,1.8c-0.4,0.1-0.8,0.2-1.1,0.4c0,0,0,0.1,0,0.1c0.2-0.1,0.5-0.1,0.7-0.1c-0.2,0.1-0.1,0.4,0.2,0.3
		c0.4-0.1,0.8-0.2,1.1-0.4c3.3,0.2,7.2,2.2,10,3.1c3.4,1.1,6,2.3,8,5.4c0.9,1.3,1.6,2.8,2.5,4c-5-1.2-9.6,0.2-14.2,3.1
		c-2.9,1.8-5.5,4.1-8.1,6.3c-2.1,1.8-4.3,3.4-6.5,5.1c-0.7,0.3-1.4,0.7-2,1c-0.1,0.1,0,0.3,0.1,0.2c0.3-0.1,0.6-0.3,0.9-0.4
		c-0.2,0.2-0.5,0.4-0.7,0.6c-0.2,0.1,0,0.4,0.2,0.3c1.3-0.6,2.5-1.4,3.7-2.2c5.2-2.1,10.5-4,15.7-6c5.4-2.1,11.2-4,17-3
		c0,0,0-0.1,0-0.1l0,0c0.4,0,0.7,0.3,1.1,0.3c0.1,0,0.2,0,0.2-0.1c11.4,1,30.8,4.8,31.8,18.2c-0.1,1-0.2,2-0.4,2.9
		c0,0.1,0.2,0.1,0.2,0c0-0.1,0.1-0.2,0.1-0.4c0,0.2,0.3,0.2,0.4,0c0.2-0.9,0.2-1.8,0.2-2.6c0.5-3.7-0.9-7.1-3.9-9.8
		c-2.3-2.1-4.9-4-7.4-5.9c-1.4-1-2.7-2.1-4.1-3.2c2.7,0.3,5.6-0.2,8.1-0.8c6.2-1.3,11.8-3.4,18.3-2.9
		C199,112.6,199,112.3,198.8,112.3z M156.9,109.9c0.5,0.6,0.8,1.2,1.1,1.9c-0.5-0.1-0.9-0.2-1.4-0.4c-0.4-0.5-0.6-1-0.8-1.5
		c0.3-0.2,0.6-0.3,0.8-0.4c0.1,0,0.1,0.1,0.2,0.1C156.8,109.7,156.8,109.8,156.9,109.9z M158.8,112.1c-0.2-0.4-0.4-0.8-0.6-1.2
		c0.2,0.1,0.4,0.4,0.7,0.4h0c0.3,0,0.4,0.6,0.5,0.9c0.1,0.5-0.1,0.7-0.4,0.9c-0.5-0.2-1-0.5-1.5-0.8c0.3,0.1,0.6,0.1,0.8,0.1
		C158.7,112.6,158.9,112.3,158.8,112.1z M154.9,109.8c-0.1,0.1-0.2,0.2-0.4,0.3c-0.1-0.4,0.1-0.8,0.3-1.2
		C154.8,109.1,154.9,109.5,154.9,109.8z M184.1,114.1c-4.1,1.1-8.5,2.3-12.6,1.6c-1.1-0.9-2.3-1.7-3.5-2.4c-0.2-0.1-0.4,0.2-0.2,0.3
		c0.4,0.5,0.8,0.9,1.3,1.4c-0.8-0.3-1.6-0.7-2.3-1.2c0,0-0.1,0,0,0.1c1,1,2.1,1.6,3.3,2c3.4,3.1,7.6,5.5,11.1,8.3
		c0.2,0.2,0.4,0.4,0.7,0.5c-7.2-5.4-19.1-7.7-26.4-7.6c-4.7-2.7-12.3,0.2-16.9,1.9c-3.3,1.2-6.4,2.6-9.7,3.8c-2,0.7-4,1.4-6,2.2
		c3.3-2.6,6.4-5.7,9.6-8c4.7-3.4,10.3-5.8,16-4.7c0.3,0.4,0.7,0.8,1,1.2c0.3,0.3,0.8-0.2,0.5-0.5c-0.1-0.1-0.2-0.3-0.3-0.4
		c0.4,0.1,0.9,0.3,1.3,0.4c0.1,0,0.1-0.1,0-0.1c-0.5-0.2-1-0.4-1.5-0.5c-1.7-2.3-2.9-4.9-4.8-7c-1.7-1.9-4.4-2.6-6.8-3.4
		c-2.4-0.7-6-2.5-9.1-2.8c5-1.5,10.5-2.5,15.4-0.3c2.7,1.2,4,3.9,5.7,6c1.6,2,2.9,2.8,5.1,3.5c-1.2,0.8-1.1,2.3,0.1,3.4
		c1.6,1.6,4.2,2.8,6.5,3.1c0,0,0.1,0,0.1,0c0,0,0,0,0,0c0,0-0.1,0,0,0c0.4,0,0.4-0.6,0-0.7c-0.6-0.2-1.2-0.4-1.8-0.6
		c0.7-0.5,0.2-2-0.2-2.5c-0.6-0.7-1.4-1.3-2.2-1.6c0,0,0.1-0.3,0.1-0.3c-0.1,0,0-0.3,0-0.4c0,0,0,0,0,0c0.5,0.2,1.2,0.1,1.9,0.5
		c0.1,0,0.1,0.1,0,0.1c-0.9-0.8-2.1-0.6-3.1-0.2c-0.2,0-0.4,0-0.5,0c0-0.2-0.1-0.4-0.1-0.6c0,0,0,0,0.1,0c0.2,0,0.2-0.2,0.1-0.3
		c-0.1,0-0.1-0.1-0.2-0.1c0.1,0,0.1-0.1,0.2-0.1c0,0,0-0.1-0.1-0.1c0,0-0.1,0-0.1,0.1c1.7-1.7,3-3.7,4.9-5.4c2.1-1.9,4.5-3.3,7-4.6
		c4.6-2.4,9.5-3.5,14.5-4.3c-6.3,3.8-10.8,10.2-17.8,12.9c-0.3-0.3-0.6-0.5-0.9-0.9c-0.1-0.1-0.4,0-0.3,0.2c0.1,0.3,0.3,0.7,0.4,1
		c-0.1,0-0.2,0.1-0.4,0.1c-0.1,0,0,0.1,0,0.1c0.1,0,0.3-0.1,0.4-0.1c2.4,3.6,9.5,3.1,13,3.1c2.9-0.1,5.8-0.4,8.7-0.3
		c3.1,0.1,6,1.2,8.9,2C190.6,112,187,113.3,184.1,114.1z"/>
	<path class="st0" d="M109.1,96.8c-0.2-0.9-0.4-1.9-0.6-2.9c1-0.6,1.9-1.3,2.8-2c0.1-0.1,0-0.2-0.1-0.2c-1,0.3-2.1,0.4-3.1,0.5
		c-0.8-3-2.1-6-4.2-7.9c0,0-0.1,0-0.1,0.1c1.3,2.7,2.6,5.2,3.5,7.9c-5.2,0.3-10.4-1.1-15.6-1.4c0,0-0.1,0.1,0,0.1
		c4.8,0.6,9.6,1.7,14.5,1.7c0.4,0,0.9,0,1.3-0.1c0.1,0.4,0.3,0.9,0.4,1.3c0,0,0,0-0.1,0c-3.2,1.9-6.6,2.2-10.1,1.3
		c-0.1,0-0.2,0.2-0.1,0.2c3.6,1.2,7.1,0.3,10.2-1.4c0.2,0.6,0.3,1.2,0.5,1.9c1.1,4.8,1.1,9.6,1.1,14.4c0,0.1,0.2,0.2,0.2,0
		C110.4,106,109.9,101.3,109.1,96.8z M108.2,92.6c0.4,0,0.7-0.1,1.1-0.2c2-0.4,0.2,0.7-0.8,1.3C108.3,93.4,108.3,93,108.2,92.6z"/>
	<path class="st0" d="M233.2,138.3c-2.3-6.2-6.2-11.8-10.7-16.6c-3.4-3.7-7.5-6.8-12.1-9.3c4.2-13.3,4.7-27.6-0.9-40.6
		c-3-7.1-7.9-13.3-13.7-18.4c-6-5.3-13.2-10.4-20.5-13.6c-7.1-3.1-15.3-3.3-23-3.3c-7.4-0.1-14.3,0.5-21.2,3.4
		c-13.7,5.8-24.2,17-30,30.7c-1,2.4-1.7,4.9-2,7.5c-0.6-0.7-1.3-1.2-2.1-1.6c0.8-5.2,1-10.5,1.1-15.7c0-0.4-0.6-0.4-0.6,0
		c-0.1,4.1-2.7,7.3-5.3,10.5c-12.1-10.1-28-15.8-43.8-14.1c-7.4,0.8-14.7,3.2-20.7,7.6c-5.6,4.1-9.9,9.8-13.6,15.7
		c-4.2,6.7-7.4,13.8-8.4,21.7c-1.1,8.5,0.8,16.9,3.3,25c3.8,12.1,10.3,23.7,20.5,31.5c10.7,8.2,24.6,10.2,37.6,7.4
		C79,163.3,89.1,156,95.5,146c0,3.9,0.4,7.9,0.6,11.8c0.2,3.6,0.5,7,1.5,10.6c1.8,6.1,5.7,11.9,10.9,15.6c6.1,4.3,13.8,6.9,20.6,9.7
		c13.9,5.7,29.2,10.7,44.4,8.7c13.3-1.8,26.9-7.4,37.8-15.1c10.7-7.5,18.9-18.1,22.6-30.7C235.8,150.1,235.5,144.5,233.2,138.3z
		 M97,76.8c0.8,0.5,1.5,1.2,2.1,1.9c0,0,0,0.1,0,0.1c0,0.1,0.1,0.1,0.1,0c0,0,0,0,0,0c0.4,0.4,0.7,0.9,1.1,1.4
		c0.6,0.9,1.3,2.2,2.1,3c-2.6,1.9-5.9,2.6-8.5,4.5C95.5,84.2,96.4,80.5,97,76.8z M230.5,163.3c-5.8,13.1-17,22.7-29.5,29.1
		c-13.6,7-29,10.9-44.2,8.6c-12.8-2-25.1-7.1-36.8-12.4c-5.7-2.5-11-4.8-15.3-9.6c-4.3-4.8-6.7-11.1-7.5-17.5
		c-0.7-5.5-1-11.1-1.1-16.7c0.7-1.2,1.4-2.5,2.1-3.8c0.2-0.4-0.4-0.8-0.7-0.4c-0.4,0.9-0.9,1.7-1.4,2.6c0-0.7,0-1.4,0-2.1
		c0.2-7.7,2.3-14.4,6.6-20.8c3.6-5.3,8.5-9.8,13.8-13.5c4.8-3.3,10.7-6.6,16.7-6.1c0.1,0,0.1-0.1,0-0.1c-6.3-0.8-12.6,2.9-17.6,6.4
		c-5.6,3.9-10.6,8.9-14.4,14.7c-4.4,6.8-5.7,14.5-5.8,22.5c-6.9,11.1-17.8,18.8-30.9,21.3c-14.5,2.7-29.2-1.7-39.7-12.1
		c-10.5-10.4-16.6-26.3-18.4-40.8c-2.1-17,7-34.7,19.6-45.8c9-7.9,21.7-10.1,33.3-9c12.1,1.1,22.9,6.8,32.6,13.7
		c-1.2,1.5-2.3,3-3.2,4.7c-2.4,4.7-0.3,10.8-0.3,15.9c0-0.1,0-0.2-0.1-0.3c0,0,0.1-0.1,0-0.2c0-0.1-0.1-0.1-0.1-0.2
		c0-0.2-0.1-0.5-0.1-0.7c0.1-0.4,0.1-0.8-0.1-1.3c-0.2-0.3-0.6-0.2-0.6,0.2c0,0,0,0,0,0c-2-3.2-3.4-6.6-4.9-10
		c-1.7-3.9-3.7-8.1-7.1-10.7c-5.2-4.1-13,0.9-18,3.6c-1.1-0.2-2.2,0.1-3.3,0.3c-2,0.5-4.1,1-6,1.8c-0.2,0.1-0.2,0.3,0,0.3
		c2.9,0.1,5.5-1.7,8.4-2c-0.1,0.1,0,0.4,0.2,0.3c0.4-0.1,0.7-0.2,1.1-0.3c0,0,0.1,0,0.1,0c0.1,0,0.1,0,0.1-0.1
		c6.6-2.2,12.8-8.2,18.9-1.4c5,5.5,5.8,13.6,10.3,19.3c0.1,0.6,0.2,1.2,0.3,1.8c-1.8,4-3.6,7.2-3.3,11.8c0.4,5.2,3.2,9.9,3.3,15.2
		c0,0.3,0.5,0.3,0.5,0c0-0.3,0.1-0.7,0.1-1c0-0.1,0-0.2,0-0.3c0.3-3.6,0.6-7.3,1.6-10.8c0.9-3.2,2.6-6.1,2.8-9.4
		c0-0.2-0.2-0.2-0.3,0c-0.9,4.2-2.8,8.1-3.6,12.3c-0.3,1.7-0.5,3.4-0.7,5.1c0,0.4-0.1,0.7-0.1,1.1c-0.7-3.8-2.2-7.4-2.9-11.3
		c-0.8-4.8,1.5-8.1,2.7-12.4c0.6,2,1.9,3.7,3.9,4.6c0.2,0.1,0.5,0,0.4-0.3c0,0,0,0,0-0.1c3.5,2.4,5.9,5.6,7.3,9.7
		c0.7,2.1,1,4.4,1.1,6.6c0,1.2-0.2,2.4-0.4,3.6c-0.1,0.4-0.7,2.1-0.7,2.5c-0.1,0.3-0.3,0.6-0.4,0.9c0,0.1,0.1,0.1,0.1,0.1
		c0.5-0.9,0.9-1.8,1.2-2.8c1.7-3.6,4-7.1,4.5-11.1c0.6-4.2-3.2-7.6-5.9-10.3c-0.2-0.2-0.6,0.1-0.4,0.4c3.2,3.4,6.7,6.2,5.7,11.4
		c-0.6,3.3-2.4,6.3-3.9,9.4c2.4-8.1-1.5-18.7-9.5-21.7c-1.1-1-1.4-2.7,0.3-3.5c0.1,0,0-0.1,0-0.1c-1.1,0.3-1.6,1.1-1.6,2.2
		c-0.3-0.5-0.5-1-0.7-1.5c0,0,0,0,0,0c1.3-6.4-1.9-12.6,1.8-18.6c2.1-3.4,5.5-6.4,6.9-10.2c-0.1,4.1-0.3,8.1-0.9,12
		c-0.2-0.1-0.3-0.1-0.5-0.2c0,0-0.1,0.1,0,0.1c0.2,0.1,0.3,0.2,0.5,0.3c-0.6,3.9-1.5,7.7-3,11.5c-0.7,0.6-1.4,1.3-1.9,2.2
		c0,0.1,0,0.1,0.1,0.1c0.5-0.6,1-1.1,1.5-1.5c-0.3,0.6-0.5,1.3-0.8,1.9c0,0,0,0.1,0.1,0c0.4-0.7,0.7-1.4,1.1-2.2
		c2.6-1.9,5.9-2.8,8.5-4.5c-1.8,2.4-3.3,4.9-6.1,6.4c-0.1,0.1,0,0.3,0.1,0.3c3.3-1.1,5-4.3,7-7c0.1,0,0.1-0.1,0.1-0.1
		c0.3-0.4,0.6-0.7,0.9-1.1c0.2-0.2,0.4-0.4,0.5-0.6c0.2-0.3-0.1-0.6-0.4-0.4c-0.2,0.2-0.4,0.5-0.6,0.7c-0.3,0.2-0.5,0.5-0.8,0.7
		c-0.4-0.5-0.9-1-1.2-1.5c-0.6-0.8-1.1-1.6-1.7-2.3c-0.2-0.3-0.4-0.5-0.6-0.7c1.1-6.9,4.6-13.1,8.5-18.8c4.3-6.2,9.4-11.3,15.8-15.3
		c6.6-4.1,14.2-6.8,22-7.2c8.1-0.4,16.8-0.2,24.8,1.7c8,1.9,15.5,7.5,21.9,12.4c6.5,5,11.8,11.1,15.6,18.4
		c6.9,13.3,6.5,28.7,2.1,42.7c-8.8-4.9-19.1-7.9-28.5-9.3c-1.3-0.2-2.6-0.3-3.9-0.5c-0.3,0-0.4,0.6-0.1,0.6
		c10.8,1.5,22.3,4.6,32.2,10.1c0,0.1-0.1,0.2-0.1,0.2c-0.1,0.2,0.3,0.3,0.4,0.1c0,0,0-0.1,0-0.1c4.3,2.5,8.3,5.5,11.7,9
		c5.2,5.4,9.4,12.2,11.5,19.4C235.6,149.1,233.5,156.4,230.5,163.3z"/>
	<path class="st0" d="M87,90.9c-4.7-1.4-7.5-5.1-11.2-8.2c-2.7-2.3-4.2-5.7-6.8-8.1c-1.9-1.7-4.9-1.8-7.3-1.5
		c-4.4,0.6-8.8,2.3-13.3,2.2c0,0,0,0.1,0,0.1c3.4,0.2,6.7-0.7,10-1.3c2.4-0.5,4.9-0.9,7.4-0.5c2.5,0.4,4,2.2,5.5,4.1
		c2.2,2.9,4.4,5.3,7,7.8c2.5,2.4,5.1,5.1,8.7,5.6C87.1,91.1,87.1,90.9,87,90.9z"/>
	<path class="st0" d="M158.9,45.6c0-0.3-0.4-0.3-0.5-0.1c-2,4.8-2.6,9.8-5.7,14.1c-2,2.9-4.6,5.5-5.5,9c-1.2,4.4,0.1,10.9,5.2,12.1
		c0.2,0,0.3-0.3,0.1-0.3c-5.1-1.7-5.8-8.2-4.3-12.7c0.9-2.9,3.3-5.4,5.1-7.8c1.9-2.5,2.9-5.3,3.8-8.3c0.4-1.3,0.7-2.7,1.1-4
		c0,0,0.1-0.1,0.1-0.1c0,0.6,0,1.1,0,1.7c0,2.8,0.5,5.7,0.9,8.5c1.2,7.5,1.6,14.6-4.1,20.5c0,0,0,0.1,0.1,0.1
		C164.2,69.4,157.7,56.7,158.9,45.6z"/>
	<path class="st0" d="M175.4,56.2c0.2-0.4,0.2-0.7,0.1-0.7c0-0.3,0-0.5,0.1-0.8c0-0.3-0.4-0.3-0.4,0c-0.2,1.6-0.4,3.1-0.7,4.7
		c-0.4,1.4-0.9,2.7-1.6,4c-1.3,2.7-3.3,5-5.4,7.2c-3.8,4-8.3,7.3-12.4,11.1c0,0,0,0.1,0.1,0.1c6.8-5.7,15.2-11.5,18.7-19.7
		c-2,7.9-6.2,15-12.5,20.5c-0.1,0.1,0,0.3,0.2,0.2c8-5,12.1-15.5,13.6-24.6C175.3,57.4,175.4,56.8,175.4,56.2z"/>
	<g>
		<path class="st0" d="M148.1,87.5c-1.7-0.1-3.3-0.1-4.8,0.3C144.8,87.6,146.4,87.6,148.1,87.5z"/>
		<path class="st0" d="M131.2,93.5c1.4-1.1,2.7-2.2,4.1-3.3c4.4-3.7,10-10,16.3-9.2c0.1,0,0.1-0.1,0-0.2c-5.1-1.2-9.3,3.2-13,5.9
			c-5.7,4.3-10.6,8.9-17.3,11.8c-0.1,0.1,0,0.3,0.1,0.2c3-0.9,5.8-2.4,8.3-4.2c4.3-2.6,8.4-5.4,13.3-6.7c0.1,0,0.1,0,0.2-0.1
			c-0.8,0.1-1.5,0.2-2.2,0.5C137.6,89.4,134.4,91.4,131.2,93.5z"/>
		<path class="st0" d="M173.9,96.2c-6.3-1.2-12-2.1-16.6-6.6c0.4-0.1,0.8-0.2,1.2-0.4c0.1,0,0-0.2-0.1-0.2c-0.5,0.1-1,0.2-1.5,0.3
			c-0.3-0.3-0.5-0.6-0.8-0.9c-0.1-0.1-0.2,0-0.1,0.1c0.2,0.3,0.4,0.5,0.6,0.8c-1.8,0.2-3.4-0.3-4.4-1.8c1.5-0.2,3-0.6,4.1-1.7
			c0.1-0.1,0-0.2-0.1-0.2c-1.2,0.9-2.6,1.4-4.2,1.6c-0.2-0.3-0.3-0.7-0.4-1.1c-0.7-2.8,1.1-5.6,3.9-6c0,0,0-0.1,0-0.1
			c-1,0.1-1.8,0.4-2.4,0.9c0.5-5.1,0.8-10,2.9-14.8c0-0.1-0.1-0.2-0.1-0.1c-2.4,4.6-2.5,9.8-2.8,14.9c-1.4,1.1-2,3-1.8,4.9
			c0.1,0.5,0.2,0.9,0.4,1.3c-1.2,0.2-2.4,0.2-3.7,0.2c1.3,0.1,2.6,0.1,3.8,0c1,1.8,3,2.5,5.1,2.1c3.9,4.8,10.9,6.9,16.9,6.9
			C174,96.5,174.1,96.2,173.9,96.2z"/>
	</g>
	<path class="st0" d="M146.8,80.8c-4.1-0.7-6.9-2.4-10-5.1c-2.6-2.3-4.9-4.3-8.3-5.5c-6-2.1-12.8,1.6-17.7,4.7
		c-0.2,0.1-0.1,0.4,0.1,0.3c6.8-2.8,12.5-6.9,19.9-3.3c5.5,2.7,9,9.5,15.9,9C146.9,81,146.9,80.9,146.8,80.8z"/>
	<path class="st0" d="M139.3,80.9c-5.1-0.8-10.2-1.2-15.1-2.9c-2.4-0.8-4.5-2-7-2.4c-2.3-0.4-4.7,0-7,0.2c0,0,0,0,0,0
		c2.6,0.1,5.2-0.2,7.8,0.3c2.3,0.5,4.7,1.9,7,2.6c4.5,1.5,9.5,2.4,14.2,2.4C139.4,81.2,139.4,81,139.3,80.9z"/>
	<path class="st0" d="M184.7,90.4c-4.2,0.4-8.3,0.7-12.5,0.3c-4.1-0.4-10.9-1.3-12.9-5.5c0,0-0.1,0-0.1,0c0.5,1.2,1.3,2.1,2.3,2.9
		c-2.6,0.3-5.3,1.1-7.7,2.3c-0.9-0.3-1.7-0.7-2.4-1.3c-0.3-0.4-0.6-0.8-0.8-1.2c1.2,1.1,2.7,1.7,4.4,1.5c0.3,0,0.4-0.4,0.1-0.5
		c-2.1-0.7-4.1-1.5-5.1-3.1c-0.2-1.4,0.3-2.9,1.3-4.1c0,0,0-0.1,0,0c-1,1.1-1.5,2.4-1.5,3.7c-0.1-0.3-0.3-0.7-0.3-1
		c-0.1-0.6-0.1-1.1-0.1-1.6c0-0.6-0.8-0.6-0.9,0c0,0.5,0,1,0.1,1.5c0.2,1.8,0.7,3.6,2.1,5c0.4,0.5,0.9,0.8,1.5,1.1
		c0.3,0.2,0.6,0.5,0.9,0.6c-1.9,1-3.8,2.2-5.4,3.5c-0.4,0.4-0.8,0.7-1.2,1.1c0.4-0.6,0.8-1.1,1.2-1.7c1-1.3,2.4-2.6,3.1-4.2
		c0,0,0-0.1-0.1-0.1c0,0,0,0,0,0c0,0,0,0.1,0,0.1c-0.9,0.1-2,2.2-2.5,2.8c-1.1,1.4-2.3,2.9-3.1,4.5c-0.1,0.2,0.2,0.5,0.4,0.3
		c2.4-2.8,5.2-4.6,8.3-6.1c1.5,0.6,3.1,0.6,4.5-0.5c0.1-0.1,0-0.2-0.1-0.2c-0.4,0.2-0.8,0.3-1.2,0.4c-0.6-0.1-1.3-0.1-1.9-0.3
		c2.2-0.9,4.5-1.7,7-2.3c0,0,0,0,0,0c2.4,1.6,5.8,2.2,8.2,2.6c4.3,0.7,10.6,1.7,14.7-0.3C184.9,90.6,184.8,90.3,184.7,90.4z
		 M156.2,91c-0.7,0.1-1.4,0.1-2-0.1c0,0,0,0,0.1,0C154.9,90.9,155.6,91,156.2,91z"/>
</g>
</svg>
