<?xml version="1.0" encoding="utf-8"?>
<!-- Generator: Adobe Illustrator 21.0.0, SVG Export Plug-In . SVG Version: 6.00 Build 0)  -->
<svg version="1.1" id="图层_1" xmlns="http://www.w3.org/2000/svg" xmlns:xlink="http://www.w3.org/1999/xlink" x="0px" y="0px"
	 viewBox="0 0 240 240" style="enable-background:new 0 0 240 240;" xml:space="preserve">
<style type="text/css">
	.st0{fill:#FFFFFF;}
</style>
<g>
	<path class="st0" d="M138,185.6c-2.8-5.7-2.5-16,0.4-18c0.2,0.5,0.3,0.7,0.3,0.7c0,0-0.1-0.3-0.2-0.8c0.1-0.1,0.2-0.2,0.4-0.2
		c0,0,6.1,2.4,9.3,8.1c3.2,5.7,5.7,10.7,1.6,14.5C145.8,193.7,139.3,188.3,138,185.6z M144.2,173.5c-1.8-3.5-4.9-4.2-4.9-4.2
		c-0.9,0.6-1.1,0.6-1.1,4.3c0,3.7,0.9,9,5.3,8.4C148,181.3,145.9,177,144.2,173.5z"/>
	<path class="st0" d="M131.8,194.3c0,0,6.3,3,10,11.8c3.2,7.5,5.2,12.9-0.5,16.8c-5.7,3.9-12.5-2.7-14.2-6
		C122,206.4,126.2,194.7,131.8,194.3z M134.3,212.8c5.3-1.7,4.7-6.6,2.5-11c-2-4-4.5-5.3-4.5-5.3c-1.7-0.6-4.3,1.1-5,5.6
		C126.6,206.7,129,214.5,134.3,212.8z"/>
	<path class="st0" d="M114.4,220.6c3.1,6.4,4.5,14.7-1.5,17.3c-11.8,5.1-12-7.8-11.2-11.2c2.6-11.5,5.6-16.9,7.9-17.8
		C109.5,208.8,111.4,214.5,114.4,220.6z M105.1,220.2c-1.5,4-0.4,10.8,4.8,9.9c5.1-0.9,3.9-8.1,1.9-11.8c-1-2-3.5-4.8-3.5-4.8
		C107.9,213.5,106.6,216.2,105.1,220.2z"/>
	<path class="st0" d="M79.4,207.7c0,0,0-0.2,0-0.4c0.3-0.3,0.6-0.3,0.6,0.1c0.5,3.6,5,7.6,6.4,13.2c1.7,6.9-0.2,12.5-6,15.1
		c-6.9,3-10.1-2.6-8.9-12c0.7-6.1,6-14.7,7.9-16.2C79.4,207.6,79.4,207.7,79.4,207.7z M73.6,218.9c-1.5,4,0.2,8,3.9,7.9
		c5.2-0.1,8.2-5,6.6-9.6c-0.7-2.1-4.9-9.3-6.1-7C76.6,212.9,75,214.9,73.6,218.9z"/>
	<path class="st0" d="M20.2,168.6c5.4-3.6,17.3-5.7,19-5.1c-0.6,0.4-1,0.7-0.9,0.7c0,0,0.4-0.2,1.1-0.6c0.1,0.1,0.1,0.2,0,0.3
		c-2.4,2.7-3.7,7.6-7.1,12.3c-4.1,5.8-9.2,11-14.9,8.2C10.4,181,12.3,173.8,20.2,168.6z M20.7,176.6c3.5,3.9,7.9,1.9,10.9-4
		c1-2,5.4-8,2.9-7.3c-2.9,0.7-6.3,1.8-10.3,3.3C20.2,170,18.3,173.8,20.7,176.6z"/>
	<path class="st0" d="M66,127.8c0.1,0.1,0.8-0.6,1.9-1.9c0.3,0,0.4,0.1,0.3,0.2c-1.1,2.6-1.3,5.6-2.7,9.9
		c-1.6,5.3-3.7,11.5-8.7,10.9c-5.9-0.8-7.8-6.3-3.2-12.2c2.9-3.7,11.3-8.2,13.9-8.8C66.5,127.2,66,127.9,66,127.8z M65,128.4
		c-2,1.3-5.3,2.5-7.9,4.6c-2.6,2.1-2.3,5.8,0.2,7.3c3.6,2,6.6-0.4,7.4-5.7C64.9,132.9,66.7,127.3,65,128.4z"/>
	<path class="st0" d="M74.4,145.2c0.1,0.1,0.3-0.2,0.5-0.6c0.5-0.1,0.8-0.1,0.7,0.1c-0.9,2,1,5.8,0,9c-1.3,4-4.4,8.6-8.1,8
		c-4.4-0.7-6.1-7.8-2.1-11.7c2.4-2.4,7.3-4.9,9.3-5.5C74.6,145,74.4,145.2,74.4,145.2z M73.6,145.9c-1.9,0.2-2.5,0.9-4.5,2.4
		c-2,1.6-1.3,4.7,0.5,5.8c2.6,1.6,4.4-0.4,5.2-3.3C75.2,149.6,75.2,145.8,73.6,145.9z"/>
	<path class="st0" d="M85.7,203.1c1.8-7.1,9.7-14,10.9-12.3c1.9,2.5,4.3,3.5,5,9.3c0.9,7-0.9,13.1-7,14.9
		C87.3,217,83.4,212.3,85.7,203.1z M99.7,199.5c-0.5-2.1-3.6-6.8-5.8-5.3c-2.4,1.6-3.5,3.2-4.8,6.2c-1.8,3.9-0.9,8.2,2.8,8.6
		C97.1,209.5,100.8,204.3,99.7,199.5z"/>
	<path class="st0" d="M120,168.7c0,0,0-0.1,0-0.2c0,0,0.1-0.1,0.2-0.1c1,1,3.5,5.6,5,8.4c1.5,2.8,4,10.7-1.6,14.1
		c-5.7,2.7-11.2-4.1-11.4-7.6c-0.3-3.7,0.9-7.8,2.8-10.5c1.7-2.4,4-3.8,5-4.3C119.9,168.7,119.9,168.7,120,168.7z M115.1,177.6
		c-0.4,4.3,3.8,7.4,7.4,6.5c3.2-2.3,2.8-5.1,0-9.2c-1.2-1.8-2.2-4.8-3.7-4.2C117.3,171.2,115.5,173.4,115.1,177.6z"/>
	<path class="st0" d="M104.6,157c0.1,0,0.2-0.1,0.3-0.3c1.3,2,1.4,7.2,1.5,10.3c0.1,3.9-0.4,11.5-6.9,12.8c-0.4,0-0.7,0-1.1,0
		c0.1-0.7,0.1-1,0-1c-0.1,0.1-0.1,0.4-0.2,1c-5.1-0.5-5.9-7.3-4.5-10.3c2.7-5.9,8.4-12.3,11-12.8C104.7,156.9,104.7,157,104.6,157z
		 M97.8,165.7c-1.8,3.9-1.8,7.4,1.9,7.9c3.8-1.1,5-6,4.9-8.1c-0.1-2-0.6-6.2-0.6-6.2S99.6,161.9,97.8,165.7z"/>
	<path class="st0" d="M100,149.7c-1.1-0.3-2.1-0.7-2.9-1.3c0.3-0.9,0.4-1.3,0.3-1.3c-0.1,0.1-0.3,0.4-0.6,1.1
		c-0.9-0.7-1.6-1.5-2.2-2.5c0.2-0.7,0.3-1.1,0.2-1c-0.1,0-0.2,0.3-0.4,0.7c-1.5-2.9-1.2-6.4,0-8.1c3.8-5.2,10.4-8.2,13.5-8
		c-0.3,0.6-0.4,0.9-0.4,0.9c0,0,0.2-0.3,0.5-0.9c0,0,0,0,0.1,0c1.2,2.5,1.4,7,1.1,10.4c-0.1,0.9-0.2,1.9-0.5,2.9
		c-0.2,0.7-0.4,1.4-0.7,2.1C106.9,147.7,104.6,150.2,100,149.7z M108.1,137c0.2-2.1-0.7-6.4-0.7-6.4s-4.6,0.5-7.2,3.9
		c-2.6,3.4-2.5,5.7,1.5,7.4C106.1,142,107.9,139.2,108.1,137z"/>
	<path class="st0" d="M80.4,100.6c0.4,2.1-0.2,5.5-1,8c-1.1,3.1-3.4,7.9-8.9,5.9c-5.2-2.5-4.3-8.8-2.2-10.5
		c3.9-3.4,9.9-4.4,12.1-3.6c0,0,0,0.1,0,0.1c-0.1,0.2-0.2,0.4-0.1,0.4C80.2,100.9,80.2,100.8,80.4,100.6z M79.6,101.2
		c0,0-4-1.1-6.6,1c-2.6,2.1-2.5,5.3,0.3,7.3c3.4,0.9,5.2-1.6,5.7-3.2C79.5,104.7,79.6,101.2,79.6,101.2z"/>
	<path class="st0" d="M88.9,144c0,0,0.1-0.1,0.2-0.2c0.1,0,0.2,0,0.2-0.1c0.9,1.6,1.5,4.8,1.3,7.2c-0.2,2.9-1,7.6-5.9,7.6
		c-4.7-0.5-5.7-5.4-4.4-7.5c2.8-4.5,4.7-6,8.7-7.1C88.9,143.9,88.9,144,88.9,144z M84.6,146.9c-2.4,2.2-4,6,0.4,7
		c4.3-0.1,4.9-3.9,5-5.4c0.1-1.5-1.3-3.9-1.3-3.9S86.8,144.9,84.6,146.9z"/>
	<path class="st0" d="M87.5,165.6c0.1,0,0.2,0,0.2-0.1c0.5,0.7,0.9,1.9,1.3,3.2c-0.2,0.4-0.2,0.6-0.2,0.6c0,0,0.1-0.2,0.3-0.5
		c0.5,2.1,0.9,4.5,1.1,6.2c0.3,3.5-0.5,9.6-5.9,10.5c-5.3,0.2-6.4-6.5-5.3-9.3c1.9-4.9,6.2-10,8.5-10.7c-0.2,0.6-0.2,0.9-0.2,0.9
		C87.2,166.5,87.3,166.2,87.5,165.6z M82.2,173.8c-1.4,3.3-1.1,6.1,2.1,6.6c3.2-0.8,4.5-2.9,4.1-6.8c-0.2-1.8-1.2-5.7-1.2-5.7
		S83.6,170.5,82.2,173.8z"/>
	<path class="st0" d="M71.8,189c-0.1,0.6-0.2,0.9-0.3,0.9c0.1,0,0.2-0.3,0.4-0.9c0,0,0,0,0.1,0c1.6,2.7,2.7,9,2.7,13.2
		c0.1,5.1-2,15.8-10,16.5c-7.8-0.2-10.9-10.1-7.9-16.5C60.2,195,68.4,189.4,71.8,189z M63.4,197.4c-2.4,4.7-0.8,7.9,3.8,9.1
		c3.7-0.8,5-3.3,4.9-7.9C72,196,71,191,71,191S65.8,192.8,63.4,197.4z"/>
	<path class="st0" d="M50.5,191.7c-0.3,0.8-0.5,1.2-0.5,1.2c0,0,0.3-0.4,0.7-1.2c0.1,0,0.2,0,0.2,0c1.1,2.2,1.6,7.2,1.5,10.5
		c-0.2,4-3.3,12.4-9.6,12.6c-6.1-0.6-6.7-7.7-4-12.6C41.7,196.9,47.7,192.2,50.5,191.7z M45.1,208.1c3.5-0.2,5.2-4.1,5.3-7.6
		c0.1-2.1-0.8-6.3-0.8-6.3s-4.6,2-6.7,5.6C40.8,203.3,41,207.1,45.1,208.1z"/>
	<path class="st0" d="M56.7,159.3C56.7,159.4,56.7,159.4,56.7,159.3C56.7,159.4,56.8,159.4,56.7,159.3c0.1,0,0.2,0,0.3,0
		c0.6,2.1,0.3,6.5-0.2,9.3c-0.7,3.4-4.5,10.2-9.7,9.2c-4.9-1.6-5.2-7.8-2.3-11.5C48,162.3,54.4,159.2,56.7,159.3z M49.7,172.1
		c2.9,0.4,5.1-2.2,5.7-5.2c0.4-1.8,0.2-5.6,0.2-5.6s-4.1,0.9-6.3,3.6C47.1,167.6,46.4,170.5,49.7,172.1z"/>
	<path class="st0" d="M63.9,175.4c1.6-2.9,5-5.6,6.9-6.3c-0.1,0.3-0.2,0.5-0.2,0.5c0,0,0.2-0.2,0.4-0.6c0.2-0.1,0.4-0.1,0.6-0.1
		c0.7,1.3,1,4.3,0.9,6.3c-0.1,2.4-1.9,7.4-5.7,7.6C63.2,182.4,62.3,178.3,63.9,175.4z M71.2,174.8c0-1.2-0.6-3.7-0.6-3.7
		s-2.6,1.1-3.6,3.2c-1.1,2.1-1.6,3.8,0.7,4.6C69.7,178.8,71.2,176.9,71.2,174.8z"/>
	<path class="st0" d="M114.9,149.2c0.2-0.1,0.4-0.2,0.5-0.2c0.8,1.1,1.3,4.2,1.3,6c0.1,2.2,0.2,6.7-3.4,7.4
		c-3.5,0.3-4.9-4.5-4.1-6.2c1.3-2.9,3.9-5.9,5.5-6.9c-0.1,0.3-0.1,0.5,0,0.5C114.7,149.8,114.8,149.6,114.9,149.2z M111.5,154
		c-1,2.2-0.8,4.6,1.2,4.9c2.1-0.6,2.6-3.8,2.5-5c-0.1-1.1-0.3-3.4-0.3-3.4S112.5,151.9,111.5,154z"/>
	<path class="st0" d="M127.1,158.7c0,0,0-0.2,0-0.6c0.6,0.3,3.4,1.8,4.2,3.3c0.9,1.8,2.1,7.1-1.3,9.3c-3.5,1.7-6.3-2.6-6.5-4.8
		c-0.2-2.3,0.7-4.2,1.9-5.9c1.1-1.6,1.7-2,1.7-2s0,0,0,0C127.1,158.5,127.1,158.7,127.1,158.7z M125.3,164.4
		c-0.2,2.7,1.7,3.3,3.9,2.8c1.5-0.8,1.6-3.1,0.3-5.1c-0.7-1.2-2.9-1.9-2.9-1.9S125.5,161.7,125.3,164.4z"/>
	<path class="st0" d="M125,116c-4.6,8.5-6,17.4-7.7,23.6c-1.2,4.8-2,8.2-2.4,9.5c-0.1,0.4-0.2,0.6-0.2,0.6c0,0,0-0.2,0-0.5
		c0.2-1.2,0.9-4.6,2-9.5c1.5-6.1,2.8-15.1,7.5-24.1c9-17.4,18.6-29,19.8-29.4C145.6,86.4,134.4,98.2,125,116z"/>
	<path class="st0" d="M118.7,119.7c-8.9,17.7-12.5,34.4-13.8,36.9c-0.1,0.3-0.2,0.4-0.3,0.3c0,0,0.1-0.1,0.2-0.4
		c0.4-1.3,1.4-5.6,3.3-11.9c0.2-0.7,0.4-1.4,0.7-2.1c2-6.5,5-14.6,9.2-23.2c10.5-19.3,19.9-33.3,21.5-33.7
		C140.9,85.6,129.7,99.9,118.7,119.7z"/>
	<path class="st0" d="M107.5,130.2c0,0,0.1-0.3,0.4-0.9c1.3-2.8,5.6-11.6,11.8-22c7.5-12.2,14.1-20.9,15.1-21.1c1,0-6.7,9-14.6,21.4
		c-6.1,9.9-10.6,18.9-12.1,21.7C107.7,129.9,107.6,130.2,107.5,130.2z"/>
	<path class="st0" d="M101.4,128.9c-0.1-0.1,5-10.3,12.9-22.9c8.2-11.9,15.4-20.3,16.4-20.5c1.1,0.1-7.3,8.7-15.9,20.8
		C107,118.4,101.5,129,101.4,128.9z"/>
	<path class="st0" d="M88.8,169.4c0,0,0.1-0.2,0.2-0.6c0.6-1.5,2.2-5.5,3.9-10.6c1.7-4.5,3.1-8.2,3.8-10c0.3-0.6,0.5-1,0.6-1.1
		c0.1-0.1,0,0.4-0.3,1.3c-0.7,1.9-2.2,5.6-3.9,9.9c-1.7,5-3.4,9.2-4.1,10.6C88.9,169.2,88.8,169.4,88.8,169.4z"/>
	<path class="st0" d="M94.8,144.7c0.1,0,0,0.3-0.2,1c-0.6,1.7-2.1,5.4-3.8,9.8c-1.5,4.5-2.7,8.4-3.2,10.1c-0.2,0.6-0.3,0.9-0.3,0.9
		c0,0,0.1-0.3,0.2-0.9c0.5-1.7,1.6-5.5,3.1-10.2c1.7-4.8,3.1-8.6,3.8-10.1C94.5,145,94.7,144.7,94.8,144.7z"/>
	<path class="st0" d="M98.6,178.8c0.1,0,0,0.3,0,1c-0.1,1.1-0.5,2.9-1,4.9c-0.7,3.2-1.5,5.8-1.6,5.8c0,0,0.8-2.5,1.5-5.8
		c0.5-2.1,0.7-3.9,0.9-4.9C98.4,179.2,98.5,178.8,98.6,178.8z"/>
	<path class="st0" d="M109.5,186.1c-0.7,12.5-0.3,23-0.6,23c0,0-0.5-10,0.1-23c1.1-12.6,1.2-22.2,1.9-22.9
		C111.6,162.6,110.8,173,109.5,186.1z"/>
	<path class="st0" d="M131.2,183.4c0.1,6,0.6,10.9,0.5,10.9c-0.1,0-0.6-4.8-0.8-10.9c-0.2-6-0.8-10.6-0.5-10.9
		C130.7,172.2,131.1,177.1,131.2,183.4z"/>
	<path class="st0" d="M79.4,207.3c-0.2-1.2-0.4-5.5,0.8-10.6c1.3-5.9,2.3-10.5,2.8-10.7c0.3-0.2-1.1,4.6-2.5,10.8
		C79.2,201.6,79.3,205.9,79.4,207.3c0.1,0.2,0.1,0.4,0.1,0.4C79.4,207.7,79.4,207.6,79.4,207.3z"/>
	<path class="st0" d="M71.5,189.9c0,0,0.1-0.3,0.3-0.9c0.6-2.2,1.9-8.2,4.3-15.4c3.1-8.8,4.9-15.6,5.6-16c0.5-0.3-2,7-5.2,16.1
		c-2.3,6.9-3.8,13-4.5,15.2C71.7,189.6,71.6,189.9,71.5,189.9z"/>
	<path class="st0" d="M50,193c0,0,0.2-0.4,0.5-1.2c1-2.4,3.7-8,7.3-14.6c4.6-8.5,7.4-15.4,8.1-15.6c0.6-0.2-2.9,7-7.8,15.8
		c-3.5,6.3-6.3,12-7.5,14.4C50.3,192.5,50.1,193,50,193z"/>
	<path class="st0" d="M89.1,143.8c-0.1,0.1-0.2,0.2-0.2,0.2c0,0,0-0.1,0.1-0.2c0.7-1.7,5.8-15.7,16.1-31.4
		c9.7-17,20.5-27.6,21.5-28.1c1.8,0.3-10.7,11.1-20.9,28.5C95.7,127.7,90.2,142,89.1,143.8z"/>
	<path class="st0" d="M70.6,169.6c0,0,0.1-0.2,0.2-0.5c1.3-3.4,9.4-22.4,21.5-45.5c6.9-12.3,14.4-22,19.2-29.7
		c5.4-7.5,9.8-11.2,10.8-11.3c1,0-2.9,4-8.5,11.2c-4.9,7.8-13.2,18-20.4,30.4C81.5,146,72.9,165.4,71,169
		C70.8,169.4,70.7,169.6,70.6,169.6z"/>
	<path class="st0" d="M94.7,111.6c-11.5,14.9-17.8,29.7-19.7,32.9c-0.3,0.5-0.4,0.7-0.5,0.6c0,0,0.1-0.2,0.3-0.6
		c1.4-3,7.4-17.7,19.2-33.4c11.7-18.2,24.2-29.5,25.3-29.9c0.7,0-2.1,3.2-6.9,8.5C107.3,94.8,101,102.4,94.7,111.6z"/>
	<path class="st0" d="M56.7,159.3c0.3-1.2,10.8-20.1,26.1-43.1c14-24.1,31.3-37.9,33.4-37.3c1.7,0.2-17.8,12.9-32.5,37.9
		C68.8,138.8,57.8,158.2,56.7,159.3C56.8,159.4,56.7,159.4,56.7,159.3C56.7,159.4,56.7,159.4,56.7,159.3z"/>
	<path class="st0" d="M67.8,125.9c-1.1,1.3-1.7,2-1.9,1.9c0.1,0.1,0.6-0.6,1.5-1.8c3-4.1,10.5-14.4,21.1-25.7
		c12.9-14.8,25.2-23.8,26.5-23.8c1.5,0.5-12.4,9.2-25.9,24.3C78.9,111.4,71.2,121.8,67.8,125.9z"/>
	<path class="st0" d="M80.4,100.6c-0.1,0.2-0.2,0.3-0.2,0.3c-0.1,0,0-0.2,0.1-0.4c1.1-1.6,7.5-7.8,16.3-14.4
		c9.7-7.3,16.8-13.4,17.8-13.2c0.8,0.1-7.3,6.1-17.4,13.6C88.2,92.9,81.5,99.2,80.4,100.6z"/>
	<path class="st0" d="M39.2,163.5c1.6-1.1,5-3.4,8.8-6.4c5.2-4.3,6.7-9.4,7.2-9.5c0.4-0.3-1.6,5.3-7.1,9.7c-3.7,2.9-7.2,5.2-8.8,6.2
		c-0.7,0.4-1,0.6-1.1,0.6C38.2,164.2,38.5,163.9,39.2,163.5z"/>
	<path class="st0" d="M191.5,14.6C191.5,14.7,191.5,14.7,191.5,14.6L191.5,14.6C191.5,14.6,191.5,14.6,191.5,14.6z"/>
	<path class="st0" d="M198.3,16.6c0.2-0.1,2.3,0.6,1,1.2c-1.9,0.8-1.7-0.3-2-0.5c-0.6-0.6-2-1.5-2.6-1.5
		C194.6,15.8,197.4,16.1,198.3,16.6z"/>
	<path class="st0" d="M197.4,18.8c-1.2,1.3-4,0.5-2.6-1.2C195.7,16.5,197.8,17.3,197.4,18.8z"/>
	<path class="st0" d="M177.5,80.8C177.5,80.8,177.5,80.8,177.5,80.8c0,0,0.1,0,0.1,0C177.6,80.8,177.5,80.8,177.5,80.8z"/>
	<path class="st0" d="M210,20.4c0,0-7.2,2-8.6,1.7c0-0.1-0.1-0.1-0.1-0.2c-0.9-2,0.9-3.5,1.7-4.1c0.3-0.2,0.4-0.3,0.4-0.3L210,20.4z
		"/>
	<path class="st0" d="M173.3,74.6c5.1-3.8,8.7-8.5,10.8-12.1c-2,3.4-5.7,8.7-11.5,13c-9.7,7.7-24.5,7.2-30.3,6.6
		c-1.8-0.1-7.3-0.5-12.1-1.8c-4.8-1.1-8.8-3.5-8-3.9c1-0.4,6.5,1.8,12.6,3c6.1,1.4,12.5,1.8,13.9,1.9
		C156.6,81.7,166.4,80,173.3,74.6z"/>
	<path class="st0" d="M185.9,59.2c-0.4,0.9-1,2.1-1.8,3.3C185.5,60.2,186,58.8,185.9,59.2z"/>
	<path class="st0" d="M123.9,74c-0.9-0.1-3.9-4.1-2.2-4.3c1.6,0.2,3.1,4,4,4.4c2.5,2.3,7.4,4.2,9.2,4.3
		C135.2,78.7,125.8,76.5,123.9,74z"/>
	<path class="st0" d="M188.7,74.5c-0.4,0.1-1,0.3-1.7,0.4C188.1,74.5,188.8,74.4,188.7,74.5z"/>
	<g>
		<path class="st0" d="M119,66.9c2.7-1.9,5.7-2.9,8.5-3.8c5.5-2.1,11.6-2.6,15.5-5.1c3.2-3.9,6.6-7,9.7-9.4
			c3.4-2.9,12.2-7.9,23.8-7.1c2.9,0.2,5.8,0.9,8.7,1.7c1.4-1,3.2-4.6,2-7.2c-2.4-5.5-3.6-13.5,1.3-18.7c0.9-0.9,1.8-1.7,2.8-2.4
			L185,9.9c-0.2,0.3-0.6,0.1-0.9,0c-0.4-0.2-0.9-0.5-0.7-0.9c0.2-0.5,0.6-0.5,1-0.3c0.3,0.2,0.8,0.6,0.8,1.1l6.4,4.9c0,0,0,0,0,0
			l-6.3-6.2c-0.2,0.3-0.6,0.1-0.9-0.1c-0.4-0.2-0.8-0.5-0.6-1c0.3-0.4,0.6-0.5,1-0.2c0.3,0.2,0.8,0.7,0.7,1.1l6.1,6l-5.6-7.6
			c-0.3,0.2-0.6,0-0.9-0.2c-0.3-0.2-0.8-0.6-0.5-1c0.3-0.4,0.6-0.4,1-0.2c0.3,0.2,0.7,0.8,0.5,1.2l5.7,7.7c0,0,0,0,0-0.1l-5.2-8.7
			c-0.3,0.2-0.6-0.1-0.8-0.3c-0.3-0.3-0.7-0.7-0.4-1c0.3-0.4,0.7-0.3,1-0.1c0.3,0.3,0.6,0.9,0.4,1.2l5.2,8.6c0-0.1,0-0.1,0.1-0.2
			l-4.4-9.1c-0.3,0.2-0.5-0.1-0.8-0.4c-0.3-0.3-0.6-0.7-0.3-1.1c0.4-0.3,0.7-0.3,1,0c0.3,0.3,0.5,0.9,0.3,1.3l4.3,9
			c0-0.2,0.1-0.3,0.2-0.5l-3.6-9.3c-0.3,0.1-0.5-0.2-0.7-0.5c-0.3-0.3-0.6-0.8-0.2-1.1c0.4-0.3,0.7-0.2,1,0.1c0.2,0.3,0.5,1,0.1,1.3
			l3.5,9.1c0-0.1,0.1-0.2,0.1-0.4l-3-9.6c-0.5,0-0.8-0.7-0.8-1.2c0-0.4,0.2-0.7,0.7-0.7c0.5,0,0.6,0.6,0.6,1c0,0.4,0.1,0.8-0.2,0.9
			l2.9,9.3c0.1-0.2,0.2-0.3,0.3-0.4c0,0,0,0,0.1,0l-2.1-8.7c-0.5-0.1-0.7-0.8-0.6-1.2c0-0.4,0.2-0.7,0.7-0.7c0.5,0,0.5,0.6,0.5,1
			c0,0.4,0,0.7-0.3,0.8l2.2,8.8c0.1,0.1,0.3,0.1,0.5,0.3l-1.5-9.1c-0.4-0.1-0.6-0.8-0.5-1.2c0.1-0.4,0.3-0.7,0.8-0.6
			c0.5,0.1,0.4,0.6,0.4,1c-0.1,0.4-0.1,0.7-0.4,0.8l1.5,9.3c0.1,0.1,0.2,0.1,0.2,0.2l-0.6-9.2c-0.4-0.2-0.5-0.9-0.4-1.2
			c0.1-0.4,0.4-0.6,0.8-0.5c0.5,0.1,0.4,0.7,0.3,1.1c-0.1,0.4-0.2,0.7-0.5,0.7l0.6,9.3c0,0,0.1,0,0.1,0.1l0.4-8.7
			c-0.4-0.2-0.4-0.9-0.2-1.3c0.1-0.4,0.4-0.6,0.9-0.4c0.5,0.2,0.3,0.7,0.2,1.1c-0.1,0.3-0.2,0.7-0.6,0.7l-0.4,8.8c0,0,0,0,0.1,0.1
			l1.3-7.9c-0.3-0.3-0.3-1-0.1-1.3c0.2-0.4,0.5-0.6,0.9-0.3c0.5,0.2,0.2,0.7,0.1,1.1c-0.2,0.3-0.3,0.7-0.7,0.6l-1.3,7.9c0,0,0,0,0,0
			l2.3-7.2c-0.3-0.3-0.2-1,0-1.3c0.2-0.4,0.5-0.5,1-0.3c0.4,0.3,0.2,0.8,0,1.1c-0.2,0.3-0.4,0.7-0.8,0.6l-2.3,7.1
			c0.6-0.2,1.1-0.4,1.8-0.6c3.6,0.2,5.9,3.5,7.3,4.8l5.9,3.5c0,0-6.1,1.9-8.1,2.3c-1.3,0.5-3.1,2.2-4.8,2.7
			c-2.1,0.2-2.3,0.5-2.6,1.6c-0.3,1.9-0.1,3-0.4,2.4c-0.1-0.1-1.5-4.9,3.2-5.2c1.1-0.5,2.3-1.7,3.8-2.5c0,0.1,0.1,0.1,0.1,0.2
			c1.5,0.3,8.6-1.7,8.6-1.7l-6.6-2.9c0,0-0.2,0.1-0.4,0.3c-1.3-1.3-2-2.2-3.3-3.1c-2.7-2.5-5.9,0.4-8.8,2.4c-2.7,2.4-4.4,6-4.2,9.8
			c-0.2,4,2.4,7.2,2.4,11.9c-0.5,2-0.8,3.9-3,5.2c1.6,1.4,0.2,6.4-3.1,5.5c-1.2-0.3-2.6-1.4-2.9-2.6c-0.3-1.1,0.4-2.4,1-3.4
			c-0.4-0.1-0.8-0.2-1.3-0.2c-0.7,1.5-2.1,4.8-0.3,5.7c0,0-5.6,1.9-5.5-3.1c0.2-1.6,1-2.7,2.1-3.1c-2.9-0.2-5.8-0.1-8.6,0.5
			c-7.8,1.3-14,5.3-18.7,10c-1.1,0.9-1.9,1.8-2.7,2.7c0.1,1.2,0.7,4.2,2.3,6c2,2.2-0.2,3-2.4,3.3c-2.1,0.2-4.3,0.3-5.5-2.5
			c-0.4-1-0.6-1.7-0.6-2.1c-0.4,0.1-0.8,0.2-1.2,0.3c0.2,0.9,1,3.5,2.4,4.9c1.8,1.6-2,1.6-3.3,1.6c-1.3,0.1-3.7-0.8-4.3-2.9
			c-0.3-1-0.4-1.7-0.4-2.1c-0.5,0.1-0.9,0.3-1.3,0.4c0.1,0.9,0.5,3.7,1.8,4.5c1.6,0.9-1,3-2.8,3.5c-1.8,0.4-4.6-1.6-4.9-4.1
			c-0.1-1.1,1-2,2.2-2.7c-1.4,0.4-2.5,0.8-3.2,1c-4.5,1.5-10.4,4.8-8.9,10.2c1.3,5.6,7.3,6.9,12.8,6.9c5.6,0.2,11.3,1.1,16.9,1.7
			c1.4,0.2,2.8,0.2,4.4,0.6c1.4,0.2,0.8,2.3,0.2,2.4c-0.5,0.5-1.1,1-1.6,1.5c-2.2,1.9-4.5,3.6-6.7,5.5c-4.2,3.8-7.1,9.1-9,14.5
			c-0.9,2.2-1.8,6.7-1.5,7.2c1.7-2.3,1.6-5.2,3.8-8c0.8,2.7,0.1,4.9-0.3,7.1l0.6-2.5c1.4-5.5,4.1-10.8,7.8-15
			c7.3-8.3,17.6-12.6,27.3-14.8c-0.2-0.1-0.3-0.3-0.3-0.6c0.8-1.4,5.6-2,6.2-3c3.1-2.1,7.4-3,10.2-3.6c-3.1,0.9-9.4,3.2-10.8,5.5
			c-0.1,0.3-0.5,0.6-1.1,0.9c0.8-0.2,1.6-0.3,2.4-0.4c-0.9,0.2-1.8,0.4-2.7,0.6c-1.3,0.6-3.1,1.1-3.8,0.8
			c-11.3,2.8-23.4,8.1-30.5,19.2c-2,3.3-3.5,6.9-4.5,10.7c-0.4,1.6-0.8,3.3-1.3,4.9c0,0.4,0,0.7-0.3,0.9c0.6,0.5-1.2,11.6-0.6,25.4
			c0.7,11.8,3.8,21.5,4.7,24.2c0.2,0.5,0.2,0.8,0.2,0.8c0,0-0.1-0.3-0.3-0.7c-1-2.6-4.3-12-5.2-24.2c-0.8-13.9,0.4-24.5,1-25.5
			c-0.1,0-0.1,0-0.2,0c0.1-0.2,0.2-0.5,0.3-0.9c0-1.1,0.5-3.1,0.6-4.3c0.1-1.5,1-5,0.1-4.8c-0.8,1.7-1.4,3.6-2.1,5.4
			c0.1,1.4-2.3,10.7-4.3,22.4c-1.5,10.7-1.5,19.9-1.5,22.3c0,0.4,0,0.6,0,0.6c0,0-0.1-0.2-0.1-0.7c-0.2-2.4-0.4-11.3,1.1-22.3
			c1.5-9.3,2.9-17,3.9-20.5c-0.2,0.3-0.5,0.4-0.8,0.4c-0.1-0.2-0.1-0.4-0.1-0.6c-1.1,4.6-3.8,14-6.5,25c-2.8,14.3-4.4,26.5-4.6,28.3
			c0,0.1,0,0.2,0,0.2c0,0,0-0.1-0.1-0.2c-0.1-1.6,1.3-13.6,4.1-28.5c3.6-15.5,6.5-27.3,7.4-28c0,0,0,0,0,0c0.4-1.7,0.9-3.4,1.5-5.1
			c2.5-7.6,7.7-13.9,14-18.3c1.2-1.2,3.7-2.5,3.4-3.9c-1.7-0.6-3.7-0.5-5.5-0.8c-3.7-0.4-7.4-1-11-1.2c-3.6-0.3-7.2-0.3-10.7-0.9
			c-3.6-0.5-6.5-3.2-7.6-6.5C114.1,72.1,116.3,68.5,119,66.9z"/>
		<path class="st0" d="M182.9,51.6c1.2,0.3,3.2-0.8,3.2-0.8c-0.2,0.9,0.1,2-0.5,3c-0.7,1.2-1.8,2.2-3.4,1.8
			c-1.7-0.4-3.4-4.2-2.2-5.6C181,50.5,182,51.4,182.9,51.6z"/>
		<path class="st0" d="M174.3,49.9c0.5,0,1.5,0.5,2,0.6c1,0.3,2.2-0.4,2.3,0.2c-0.3,1.4,0.1,4.3,1,5c-1.5,0.9-6.9,2.8-7.2-1.7
			C172.3,52.9,172.8,49.9,174.3,49.9z"/>
		<path class="st0" d="M173.4,42.9c-0.6,1.6-0.8,3.1-0.9,4.8c-0.1,1.8-1.2,3.8-2.1,4.1c-4.2-0.7-3.2-5.9-2.1-7.5
			C169.5,42.8,173.4,42.9,173.4,42.9z"/>
		<path class="st0" d="M166.2,44.1c0.1,1.9,0.3,4.9-0.6,6.1c-1.3,1.5-3.1,0.9-3.9,0.4c-1.7-1-2.6-2.8-0.9-4.4
			C162.2,45,165,43.3,166.2,44.1z"/>
		<path class="st0" d="M165.7,58.2c-1-0.5-2-1.1-2.7-2c-1.5-1.9-1-2.4-0.1-3.9c2.1,1.2,2.6,0.8,3.8-1.3c0,0,2.7,3,3.7,2.5
			C171.8,56.6,168.7,59.5,165.7,58.2z"/>
		<path class="st0" d="M158.2,48.8c0.1,1.1,1.1,2.2,2.1,3.8c-0.1,1.5,0.6,2.9-0.4,3.2c-0.5,0.1-1.9,0-2.3-0.3
			c-1-0.6-2.7-1.4-3.5-2.3c-1.2-1.4-0.9-3.4,1.1-3.8C155.8,49.3,158.2,48.8,158.2,48.8z"/>
		<path class="st0" d="M158.2,57.3c1.7,0.7,3.1-0.7,3.1-0.7c2.6,3,0.7,4.8-2.2,5.5C156.2,62.8,156.5,56.6,158.2,57.3z"/>
		<path class="st0" d="M148,58.7c-1.2-5.2,1.6-6.3,4-7.6c0,0,0.7,3.6,3.3,4.8c0,0-0.1,2.7,0.7,4C156.7,61.4,149.2,63.9,148,58.7z"/>
		<path class="st0" d="M133.7,73.8c-2.1-1.8,0.6-4.4,1.3-4.9c0.7-0.5,1.7,1.5,3.9-0.2c0,0,3,1.2,2.3,2.5
			C140.5,72.7,136.9,76.6,133.7,73.8z"/>
	</g>
	<g>
		<path class="st0" d="M191.5,74.3C191.5,74.3,191.5,74.3,191.5,74.3C191.4,74.3,191.4,74.3,191.5,74.3
			C191.5,74.3,191.5,74.2,191.5,74.3C191.5,74.2,191.5,74.3,191.5,74.3z"/>
		<g>
			<path class="st0" d="M191.5,74.3C191.5,74.3,191.5,74.3,191.5,74.3C191.4,74.3,191.4,74.3,191.5,74.3
				C191.5,74.3,191.5,74.2,191.5,74.3C191.5,74.2,191.5,74.3,191.5,74.3z"/>
			<g>
				<path class="st0" d="M191.5,74.3C191.5,74.3,191.5,74.3,191.5,74.3C191.4,74.3,191.4,74.3,191.5,74.3
					C191.5,74.3,191.5,74.2,191.5,74.3C191.5,74.2,191.5,74.3,191.5,74.3z"/>
				<g>
					<path class="st0" d="M191.5,74.3C191.5,74.3,191.5,74.3,191.5,74.3C191.4,74.3,191.4,74.3,191.5,74.3
						C191.5,74.3,191.5,74.2,191.5,74.3C191.5,74.2,191.5,74.3,191.5,74.3z"/>
					<g>
						<path class="st0" d="M191.5,74.3C191.5,74.3,191.5,74.3,191.5,74.3C191.4,74.3,191.4,74.3,191.5,74.3
							C191.5,74.3,191.5,74.2,191.5,74.3C191.5,74.2,191.5,74.3,191.5,74.3z"/>
						<g>
							<path class="st0" d="M191.5,74.3C191.5,74.3,191.5,74.3,191.5,74.3C191.4,74.3,191.4,74.3,191.5,74.3
								C191.5,74.3,191.5,74.2,191.5,74.3C191.5,74.2,191.5,74.3,191.5,74.3z"/>
							<g>
								<path class="st0" d="M191.5,74.3C191.5,74.3,191.5,74.3,191.5,74.3C191.4,74.3,191.4,74.3,191.5,74.3
									C191.5,74.3,191.5,74.2,191.5,74.3C191.5,74.2,191.5,74.3,191.5,74.3z"/>
								<path class="st0" d="M191.5,74.3C191.5,74.3,191.5,74.3,191.5,74.3C191.4,74.3,191.4,74.3,191.5,74.3
									C191.5,74.3,191.5,74.2,191.5,74.3C191.5,74.2,191.5,74.3,191.5,74.3z"/>
							</g>
						</g>
					</g>
				</g>
			</g>
		</g>
		<g>
			<path class="st0" d="M191.5,74.3C191.5,74.3,191.5,74.3,191.5,74.3C191.4,74.3,191.4,74.3,191.5,74.3
				C191.5,74.3,191.5,74.2,191.5,74.3C191.5,74.2,191.5,74.3,191.5,74.3z"/>
			<g>
				<path class="st0" d="M191.5,74.3C191.5,74.3,191.5,74.3,191.5,74.3C191.4,74.3,191.4,74.3,191.5,74.3
					C191.5,74.3,191.5,74.2,191.5,74.3C191.5,74.2,191.5,74.3,191.5,74.3z"/>
				<g>
					<path class="st0" d="M191.5,74.3C191.5,74.3,191.5,74.3,191.5,74.3C191.4,74.3,191.4,74.3,191.5,74.3
						C191.5,74.3,191.5,74.2,191.5,74.3C191.5,74.2,191.5,74.3,191.5,74.3z"/>
					<g>
						<path class="st0" d="M191.5,74.3C191.5,74.3,191.5,74.3,191.5,74.3C191.4,74.3,191.4,74.3,191.5,74.3
							C191.5,74.3,191.5,74.2,191.5,74.3C191.5,74.2,191.5,74.3,191.5,74.3z"/>
						<path class="st0" d="M193.1,30.6l0.6-0.2c0.2,0.1,0.2,0.2,0.3,0.2c-0.1-0.3,0-0.4,0,0c0,0,0,0,0,0c0.5,2.2,2,4,3.7,6.1
							c1.3,1.3,2.7,2.9,3.5,5.2c0.7,1.4,1.2,3,1.2,4.9c0,0,0,0.1,0,0.1c1,2,1.4,4.1,1.3,6.3c0.1,1.5-0.1,3.2-0.7,4.8
							c-0.1,0.3-0.3,0.7-0.4,1c-0.2,0.4-0.3,0.8-0.5,1.3c0,0,0,0.1,0,0.1c-0.1,0.2-0.2,0.4-0.3,0.7c-0.1,0.3-0.3,0.6-0.5,0.9
							c-0.6,1.2-1.3,2.4-2.1,3.5c-0.5,0.8-1.1,1.5-1.6,2.3c-0.7,0.9-1.4,1.8-2,2.6c-0.1,0.2-0.3,0.4-0.4,0.5c-0.4,0.5-0.9,1-1.3,1.4
							c-1.3,1.4-2.3,2.3-2.6,2.3c0,0,0,0-0.1,0c0,0,0,0,0,0c0-0.2,0-0.7,0-1.2c-0.1-1.3-0.2-2.8-0.3-4.2c-0.1-0.9-0.2-1.9-0.5-2.8
							c-0.4-0.8-1.4-1-2.1-1.5c0,0,0,0,0,0c-0.1,0-0.1-0.1-0.2-0.2c0,0,0,0,0,0c-0.3-0.4-0.5-0.8-0.6-1.2c-0.2-1.5,1.1-3,1.7-4.3
							c0.9-1.8,1-4,1.9-5.8c1.1-1.8,0.8-3.9,1.8-5.8c1.3-1.6,3.3-2.6,2.1-4.8c-0.4-3.8-4.2-6.3-3.3-9.9
							C191.8,31.7,192.3,31,193.1,30.6z M191.5,74.3C191.5,74.3,191.5,74.3,191.5,74.3C191.5,74.3,191.5,74.2,191.5,74.3
							C191.5,74.2,191.5,74.3,191.5,74.3C191.4,74.3,191.4,74.3,191.5,74.3z"/>
					</g>
				</g>
			</g>
		</g>
	</g>
</g>
</svg>
