<?xml version="1.0" encoding="utf-8"?>
<!-- Generator: Adobe Illustrator 21.0.0, SVG Export Plug-In . SVG Version: 6.00 Build 0)  -->
<svg version="1.1" id="图层_1" xmlns="http://www.w3.org/2000/svg" xmlns:xlink="http://www.w3.org/1999/xlink" x="0px" y="0px"
	 viewBox="0 0 32 32" style="enable-background:new 0 0 32 32;" xml:space="preserve">
<style type="text/css">
	.st0{fill:#1FD389;}
	.st1{fill:#FC4F64;}
</style>
<g>
	<path class="st0" d="M27.3,4.7c-5.8-5.8-15.1-6.3-21.5-1c-6.4,5.2-7.7,14.5-3.1,21.3c4.6,6.8,13.6,9,20.9,5.1
		c7.2-3.9,10.3-12.7,7.1-20.3C29.9,7.9,28.8,6.1,27.3,4.7L27.3,4.7z M16,29.5c-7.4,0-13.5-6-13.5-13.5C2.5,8.6,8.5,2.5,16,2.5
		c7.4,0,13.5,6,13.5,13.5C29.4,23.5,23.4,29.5,16,29.5L16,29.5z M16,29.5"/>
	<path class="st0" d="M16,3.5c-0.3,0-0.5,0.2-0.5,0.5c0,0.3,0.2,0.5,0.5,0.5c5.8,0,10.8,4.4,11.5,10.1c0,0.2,0.2,0.4,0.5,0.4
		c0,0,0,0,0.1,0c0.3,0,0.5-0.3,0.4-0.5C27.6,8.2,22.3,3.5,16,3.5L16,3.5z M16,3.5"/>
	<path class="st1" d="M20.4,9.6l-2.6,2.6c-0.6-0.3-1.2-0.4-1.9-0.4c-2.4,0-4.3,1.9-4.3,4.3c0,2.4,1.9,4.3,4.3,4.3
		c2.4,0,4.3-1.9,4.3-4.3c0-0.7-0.2-1.5-0.6-2.1l2.5-2.5c0.5-0.5,0.5-1.3,0-1.8C21.7,9.1,20.9,9.1,20.4,9.6L20.4,9.6z M16,17.8
		c-1,0-1.8-0.8-1.8-1.8c0-1,0.8-1.8,1.8-1.8c1,0,1.8,0.8,1.8,1.8C17.7,17,16.9,17.8,16,17.8L16,17.8z M16,17.8"/>
	<path class="st0" d="M27.6,16.2c0,0.3,0.2,0.5,0.5,0.5c0.3,0,0.5-0.2,0.5-0.5c0-0.3-0.2-0.5-0.5-0.5C27.8,15.7,27.6,15.9,27.6,16.2
		L27.6,16.2z M27.6,16.2"/>
</g>
</svg>
