<?xml version="1.0" encoding="utf-8"?>
<!-- Generator: Adobe Illustrator 21.0.0, SVG Export Plug-In . SVG Version: 6.00 Build 0)  -->
<svg version="1.1" id="图层_1" xmlns="http://www.w3.org/2000/svg" xmlns:xlink="http://www.w3.org/1999/xlink" x="0px" y="0px"
	 viewBox="0 0 32 32" style="enable-background:new 0 0 32 32;" xml:space="preserve">
<style type="text/css">
	.st0{clip-path:url(#SVGID_1_);fill:#48BCFF;}
	.st1{fill:#A3D300;}
	.st2{fill:#48BCFF;}
</style>
<g>
	<g>
		<defs>
			<rect id="SVGID_3_" x="2.8" width="26.3" height="32"/>
		</defs>
		<clipPath id="SVGID_1_">
			<use xlink:href="#SVGID_3_"  style="overflow:visible;"/>
		</clipPath>
		<path class="st0" d="M25.5,0H6.4c-2,0-3.6,1.6-3.6,3.6v24.7c0,2,1.6,3.6,3.6,3.6h12.9c0.2,0,0.4-0.1,0.6-0.2h0c0,0,0,0,0.1,0l0,0
			c0,0,0,0,0,0l0,0c0,0,0,0,0,0l0,0l0,0l0,0l0,0l0,0l0,0l0,0l8.5-9l0,0l0,0l0,0l0,0l0,0l0,0l0,0c0,0,0,0,0,0l0,0c0,0,0,0,0,0l0,0
			c0,0,0,0,0,0l0,0c0,0,0,0,0,0l0,0c0,0,0,0,0-0.1v0c0,0,0,0,0-0.1c0,0,0,0,0-0.1v0c0,0,0,0,0-0.1v0c0,0,0,0,0-0.1v0c0,0,0,0,0-0.1
			c0,0,0,0,0,0c0,0,0,0,0,0c0,0,0,0,0,0c0,0,0,0,0,0V3.6C29.1,1.6,27.5,0,25.5,0L25.5,0z M20.6,27.5V24c0-0.6,0.5-1.1,1.1-1.1h3.2
			L20.6,27.5z M26.6,20.4h-4.9c-2,0-3.6,1.6-3.6,3.6v5.4H6.4c-0.6,0-1.1-0.5-1.1-1.1V3.6c0-0.6,0.5-1.1,1.1-1.1h19.1
			c0.6,0,1.1,0.5,1.1,1.1V20.4z M26.6,20.4"/>
	</g>
	<path class="st1" d="M20.9,6.3H9.5c-0.7,0-1.3,0.6-1.3,1.3c0,0.7,0.6,1.3,1.3,1.3h11.4c0.7,0,1.3-0.6,1.3-1.3
		C22.2,6.9,21.6,6.3,20.9,6.3L20.9,6.3z M20.9,11.7H9.5c-0.7,0-1.3,0.6-1.3,1.3c0,0.7,0.6,1.3,1.3,1.3h11.4c0.7,0,1.3-0.6,1.3-1.3
		C22.2,12.3,21.6,11.7,20.9,11.7L20.9,11.7z M16.1,17.1H9.5c-0.7,0-1.3,0.6-1.3,1.3c0,0.7,0.6,1.3,1.3,1.3h6.6
		c0.7,0,1.3-0.6,1.3-1.3C17.4,17.7,16.8,17.1,16.1,17.1L16.1,17.1z M16.1,17.1"/>
	<path class="st2" d="M16.6,27.5h-6.2c-0.3,0-0.5,0.2-0.5,0.5c0,0.3,0.2,0.5,0.5,0.5h6.2c0.3,0,0.5-0.2,0.5-0.5
		C17.1,27.7,16.9,27.5,16.6,27.5L16.6,27.5z M16.6,27.5"/>
	<path class="st2" d="M8.2,28c0,0.3,0.2,0.5,0.5,0.5c0.3,0,0.5-0.2,0.5-0.5c0-0.3-0.2-0.5-0.5-0.5C8.4,27.5,8.2,27.7,8.2,28L8.2,28z
		 M8.2,28"/>
</g>
</svg>
