<?xml version="1.0" encoding="utf-8"?>
<!-- Generator: Adobe Illustrator 21.0.0, SVG Export Plug-In . SVG Version: 6.00 Build 0)  -->
<svg version="1.1" id="图层_1" xmlns="http://www.w3.org/2000/svg" xmlns:xlink="http://www.w3.org/1999/xlink" x="0px" y="0px"
	 viewBox="0 0 32 32" style="enable-background:new 0 0 32 32;" xml:space="preserve">
<style type="text/css">
	.st0{clip-path:url(#SVGID_1_);fill:#A4D400;}
	.st1{fill:#A4D400;}
	.st2{fill:#FF8830;}
</style>
<g>
	<g>
		<defs>
			<rect id="SVGID_3_" x="1.9" width="28.3" height="32"/>
		</defs>
		<clipPath id="SVGID_1_">
			<use xlink:href="#SVGID_3_"  style="overflow:visible;"/>
		</clipPath>
		<path class="st0" d="M16,17.4c3.5,0,6.7-2.1,8-5.4c1.3-3.2,0.6-7-1.9-9.5c-2.2-2.2-5.4-3.1-8.4-2.3c-3,0.8-5.4,3.2-6.2,6.2
			c-0.8,3,0.1,6.2,2.3,8.4C11.5,16.5,13.7,17.4,16,17.4L16,17.4z M16,2.6c3.4,0,6.1,2.8,6.1,6.1c0,3.4-2.8,6.1-6.1,6.1
			s-6.1-2.8-6.1-6.1C9.8,5.4,12.6,2.6,16,2.6L16,2.6z M16,2.6"/>
	</g>
	<path class="st1" d="M16,4.4c2.4,0,4.3,1.9,4.3,4.3c0,0.3,0.2,0.5,0.5,0.5c0.3,0,0.5-0.2,0.5-0.5c0-2.9-2.4-5.3-5.3-5.3
		c-0.3,0-0.5,0.2-0.5,0.5C15.5,4.2,15.7,4.4,16,4.4L16,4.4z M16,4.4"/>
	<g>
		<path class="st1" d="M20,10.3c0,0.2,0.1,0.3,0.2,0.4c0.2,0.1,0.3,0.1,0.5,0c0.2-0.1,0.2-0.2,0.2-0.4c0-0.2-0.1-0.3-0.2-0.4
			c-0.2-0.1-0.3-0.1-0.5,0C20.1,10,20,10.2,20,10.3L20,10.3z M20,10.3"/>
		<path class="st2" d="M20.3,23.5l-5.6,5.6l-3-3c-0.5-0.5-1.3-0.5-1.8,0c-0.5,0.5-0.5,1.3,0,1.8l3.4,3.4c0.8,0.8,2,0.8,2.7,0l6-6
			c0.5-0.5,0.5-1.3,0-1.8C21.6,23.1,20.8,23.1,20.3,23.5L20.3,23.5z M20.3,23.5"/>
		<path class="st1" d="M26.8,18.4H5.1c-1.8,0-3.3,1.4-3.3,3.2v8.3c0,0.7,0.6,1.3,1.3,1.3c0.7,0,1.3-0.6,1.3-1.3v-8.3
			c0-0.3,0.3-0.6,0.7-0.6h21.7c0.4,0,0.7,0.3,0.7,0.6v8.3c0,0.7,0.6,1.3,1.3,1.3c0.7,0,1.3-0.6,1.3-1.3v-8.3
			C30.1,19.8,28.6,18.4,26.8,18.4L26.8,18.4z M26.8,18.4"/>
	</g>
</g>
</svg>
