<?xml version="1.0" encoding="utf-8"?>
<!-- Generator: Adobe Illustrator 21.0.0, SVG Export Plug-In . SVG Version: 6.00 Build 0)  -->
<svg version="1.1" id="图层_1" xmlns="http://www.w3.org/2000/svg" xmlns:xlink="http://www.w3.org/1999/xlink" x="0px" y="0px"
	 viewBox="0 0 32 32" style="enable-background:new 0 0 32 32;" xml:space="preserve">
<style type="text/css">
	.st0{clip-path:url(#SVGID_1_);fill:#A4D400;}
	.st1{fill:#A4D400;}
	.st2{fill:#FF8830;}
	.st3{fill:none;}
</style>
<g>
	<g>
		<g>
			<defs>
				<rect id="SVGID_3_" x="0" y="3.5" width="23.6" height="26.7"/>
			</defs>
			<clipPath id="SVGID_1_">
				<use xlink:href="#SVGID_3_"  style="overflow:visible;"/>
			</clipPath>
			<path class="st0" d="M11.8,18.1c2.9,0,5.6-1.8,6.7-4.5c1.1-2.7,0.5-5.8-1.6-7.9c-1.8-1.9-4.5-2.6-7-1.9C7.4,4.5,5.4,6.4,4.7,8.9
				s0.1,5.2,1.9,7C8,17.3,9.8,18.1,11.8,18.1L11.8,18.1z M11.8,5.7c2.8,0,5.1,2.3,5.1,5.1c0,2.8-2.3,5.1-5.1,5.1s-5.1-2.3-5.1-5.1
				C6.6,8,8.9,5.7,11.8,5.7L11.8,5.7z M11.8,5.7"/>
		</g>
		<path class="st1" d="M11.8,7.2c2,0,3.6,1.6,3.6,3.6c0,0.2,0.2,0.4,0.4,0.4c0.2,0,0.4-0.2,0.4-0.4c0-2.4-2-4.4-4.4-4.4
			c-0.2,0-0.4,0.2-0.4,0.4C11.4,7,11.6,7.2,11.8,7.2L11.8,7.2z M11.8,7.2"/>
		<g>
			<path class="st1" d="M15.1,12.2c0,0.1,0.1,0.3,0.2,0.4c0.1,0.1,0.3,0.1,0.4,0c0.1-0.1,0.2-0.2,0.2-0.4c0-0.1-0.1-0.3-0.2-0.4
				c-0.1-0.1-0.3-0.1-0.4,0C15.2,11.9,15.1,12,15.1,12.2L15.1,12.2z M15.1,12.2"/>
			<path class="st2" d="M15.3,23.2l-4.7,4.7l-2.5-2.5c-0.4-0.4-1.1-0.4-1.5,0c-0.4,0.4-0.4,1.1,0,1.5l2.8,2.8c0.6,0.6,1.7,0.6,2.3,0
				l5-5c0.4-0.4,0.4-1.1,0-1.5C16.4,22.8,15.8,22.8,15.3,23.2L15.3,23.2z M15.3,23.2"/>
			<path class="st1" d="M20.8,18.9H2.7c-1.5,0-2.7,1.2-2.7,2.6v6.9c0,0.6,0.5,1.1,1.1,1.1c0.6,0,1.1-0.5,1.1-1.1v-6.9
				c0-0.3,0.3-0.5,0.6-0.5h18.1c0.3,0,0.6,0.2,0.6,0.5v6.9c0,0.6,0.5,1.1,1.1,1.1s1.1-0.5,1.1-1.1v-6.9
				C23.5,20.1,22.3,18.9,20.8,18.9L20.8,18.9z M20.8,18.9"/>
		</g>
	</g>
	<rect x="8.4" y="2.2" class="st3" width="23.6" height="26.7"/>
	<path class="st1" d="M20.1,5.5c2,0,3.6,1.6,3.6,3.6c0,0.2,0.2,0.4,0.4,0.4c0.2,0,0.4-0.2,0.4-0.4c0-2.4-2-4.4-4.4-4.4
		c-0.2,0-0.4,0.2-0.4,0.4C19.7,5.3,19.9,5.5,20.1,5.5L20.1,5.5z M20.1,5.5"/>
	<path class="st1" d="M23.7,10.4c0,0.1,0.1,0.3,0.2,0.4c0.1,0.1,0.3,0.1,0.4,0c0.1-0.1,0.2-0.2,0.2-0.4c0-0.1-0.1-0.3-0.2-0.4
		c-0.1-0.1-0.3-0.1-0.4,0C23.8,10.2,23.7,10.3,23.7,10.4L23.7,10.4z M23.7,10.4"/>
	<path class="st3" d="M16.8,13.3l0.6-0.8L16.8,13.3c0.9,0.8,2.1,1.3,3.5,1.3c2.8,0,5.1-2.3,5.1-5.1c0-2.8-2.3-5.1-5.1-5.1v0
		c-1.9,0-3.5,1-4.4,2.5l1.9,1.5l-1.9-1.5c-0.5,0.8-0.7,1.7-0.7,2.6C15.1,11,15.7,12.4,16.8,13.3z"/>
	<path class="st1" d="M25.3,3.9c-1.8-1.9-4.5-2.6-7-1.9c-1.8,0.5-3.3,1.6-4.2,3.1l1.7,1.4c0.9-1.5,2.5-2.5,4.4-2.5v0
		c2.8,0,5.1,2.3,5.1,5.1c0,2.8-2.3,5.1-5.1,5.1c-1.3,0-2.5-0.5-3.5-1.3l-1.3,1.7c1.3,1.1,3,1.8,4.7,1.7c2.9,0,5.6-1.8,6.7-4.5
		C28,9.1,27.4,6,25.3,3.9z"/>
	<path class="st1" d="M29.3,17.1H11.2c0,0-0.1,0-0.1,0v2.1c0,0,0.1,0,0.1,0h18.1c0.3,0,0.6,0.2,0.6,0.5v6.9c0,0.6,0.5,1.1,1.1,1.1
		s1.1-0.5,1.1-1.1v-6.9C32,18.3,30.8,17.1,29.3,17.1z"/>
</g>
</svg>
