<?xml version="1.0" encoding="utf-8"?>
<!-- Generator: Adobe Illustrator 21.0.0, SVG Export Plug-In . SVG Version: 6.00 Build 0)  -->
<svg version="1.1" id="图层_1" xmlns="http://www.w3.org/2000/svg" xmlns:xlink="http://www.w3.org/1999/xlink" x="0px" y="0px"
	 viewBox="0 0 32 32" style="enable-background:new 0 0 32 32;" xml:space="preserve">
<style type="text/css">
	.st0{clip-path:url(#SVGID_1_);fill:#F5589B;}
	.st1{fill:#A3D300;}
	.st2{fill:#F5589B;}
</style>
<g>
	<g>
		<defs>
			<rect id="SVGID_3_" x="2.8" width="26.3" height="32"/>
		</defs>
		<clipPath id="SVGID_1_">
			<use xlink:href="#SVGID_3_"  style="overflow:visible;"/>
		</clipPath>
		<path class="st0" d="M28.1,8c-1.9-4.3-5.9-7.3-10.6-7.9C12.9-0.4,8.3,1.6,5.5,5.3c-2.8,3.8-3.4,8.8-1.6,13.1
			c0.8,1.9,3,4.7,6.4,8.3c2.5,2.7,4.7,4.8,4.8,4.9c0.5,0.5,1.3,0.5,1.8,0c0,0,2.3-2.2,4.8-4.8c3.4-3.6,5.5-6.4,6.4-8.3
			C29.5,15.2,29.5,11.4,28.1,8L28.1,8z M25.6,17.4c-1.3,2.9-6.8,8.6-9.6,11.4c-2.9-2.8-8.4-8.6-9.7-11.5c-0.6-1.3-0.9-2.8-0.9-4.2
			C5.4,7.3,10.2,2.6,16,2.6c5.8,0,10.5,4.7,10.5,10.5C26.5,14.6,26.2,16.1,25.6,17.4L25.6,17.4z M25.6,17.4"/>
	</g>
	<path class="st1" d="M16.2,6.9c-2.8,0-5.1,2.3-5.1,5.1c0,2.8,2.3,5.1,5.1,5.1c2.8,0,5.1-2.3,5.1-5.1C21.3,9.2,19,6.9,16.2,6.9
		L16.2,6.9z M16.2,14.5c-1,0-1.9-0.6-2.3-1.5c-0.4-0.9-0.2-2,0.5-2.7c0.7-0.7,1.8-0.9,2.7-0.5c0.9,0.4,1.5,1.3,1.5,2.3
		C18.7,13.4,17.6,14.5,16.2,14.5L16.2,14.5z M16.2,14.5"/>
	<path class="st2" d="M21.8,5.5c-1.7-1.3-3.8-2.1-5.9-2.1c-0.3,0-0.5,0.2-0.5,0.5s0.2,0.5,0.5,0.5c4,0,7.4,2.7,8.3,6.5
		c0.1,0.3,0.3,0.4,0.6,0.4c0.3-0.1,0.4-0.3,0.4-0.6C24.6,8.7,23.5,6.9,21.8,5.5L21.8,5.5z M21.8,5.5"/>
	<path class="st2" d="M24.4,12.9c0,0.3,0.2,0.5,0.5,0.5c0.3,0,0.5-0.2,0.5-0.5c0-0.3-0.2-0.5-0.5-0.5C24.6,12.5,24.4,12.7,24.4,12.9
		L24.4,12.9z M24.4,12.9"/>
</g>
</svg>
