<?xml version="1.0" encoding="utf-8"?>
<!-- Generator: Adobe Illustrator 21.0.0, SVG Export Plug-In . SVG Version: 6.00 Build 0)  -->
<svg version="1.1" id="图层_1" xmlns="http://www.w3.org/2000/svg" xmlns:xlink="http://www.w3.org/1999/xlink" x="0px" y="0px"
	 viewBox="0 0 300 300" style="enable-background:new 0 0 300 300;" xml:space="preserve">
<style type="text/css">
	.st0{fill-rule:evenodd;clip-rule:evenodd;fill:#008CCE;}
	.st1{fill-rule:evenodd;clip-rule:evenodd;fill:#004DA0;}
	.st2{fill:#008CCE;}
	.st3{fill:#231815;}
</style>
<g>
	<g id="XMLID_1_">
		<path id="XMLID_122_" class="st0" d="M149.9,21.5c4.3,0,7.9,3.6,7.9,8c0,4.4-3.5,8-7.9,8c-4.3,0-7.9-3.6-7.9-8
			C142,25.1,145.6,21.5,149.9,21.5L149.9,21.5z"/>
		<path id="XMLID_121_" class="st0" d="M149.9,52c4.9,0,8.9,4.1,8.9,9.1c0,5-4,9.1-8.9,9.1c-4.9,0-8.9-4.1-8.9-9.1
			C141,56.1,145,52,149.9,52L149.9,52z"/>
		<path id="XMLID_120_" class="st0" d="M149.9,82.6c5.8,0,10.5,4.8,10.5,10.7s-4.7,10.7-10.5,10.7c-5.8,0-10.5-4.8-10.5-10.7
			S144.1,82.6,149.9,82.6L149.9,82.6z"/>
		<path id="XMLID_119_" class="st0" d="M176.2,34.6c4.6,0,8.4,3.8,8.4,8.6c0,4.7-3.8,8.6-8.4,8.6c-4.6,0-8.4-3.8-8.4-8.6
			C167.8,38.4,171.5,34.6,176.2,34.6L176.2,34.6z"/>
		<path id="XMLID_118_" class="st1" d="M204,51.5c5.2,0,9.4,4.3,9.4,9.6c0,5.3-4.2,9.6-9.4,9.6c-5.2,0-9.4-4.3-9.4-9.6
			C194.6,55.8,198.8,51.5,204,51.5L204,51.5z"/>
		<path id="XMLID_117_" class="st0" d="M176.1,66.3c5.1,0,9.3,4.2,9.3,9.5c0,5.2-4.2,9.5-9.3,9.5c-5.1,0-9.3-4.2-9.3-9.5
			C166.8,70.6,171,66.3,176.1,66.3L176.1,66.3z"/>
		<path id="XMLID_116_" class="st1" d="M204,82.8c5.5,0,10,4.6,10,10.2c0,5.6-4.5,10.2-10,10.2c-5.5,0-10-4.6-10-10.2
			C194.1,87.4,198.5,82.8,204,82.8L204,82.8z"/>
		<path id="XMLID_115_" class="st0" d="M204,113.1c6.7,0,12.1,5.5,12.1,12.3c0,6.8-5.4,12.3-12.1,12.3c-6.7,0-12.1-5.5-12.1-12.3
			C191.9,118.6,197.3,113.1,204,113.1L204,113.1z"/>
		<path id="XMLID_114_" class="st1" d="M176.7,131.3c5.5,0,10,4.6,10,10.2c0,5.6-4.5,10.2-10,10.2c-5.5,0-10-4.6-10-10.2
			C166.7,135.8,171.2,131.3,176.7,131.3L176.7,131.3z"/>
		<path id="XMLID_113_" class="st0" d="M123.5,34.6c-4.6,0-8.4,3.8-8.4,8.6c0,4.7,3.8,8.6,8.4,8.6c4.6,0,8.4-3.8,8.4-8.6
			C131.9,38.4,128.2,34.6,123.5,34.6L123.5,34.6z"/>
		<path id="XMLID_112_" class="st1" d="M95.6,51.5c-5.2,0-9.4,4.3-9.4,9.6c0,5.3,4.2,9.6,9.4,9.6c5.2,0,9.4-4.3,9.4-9.6
			C105.1,55.8,100.9,51.5,95.6,51.5L95.6,51.5z"/>
		<path id="XMLID_111_" class="st0" d="M123.5,66.3c-5.1,0-9.3,4.2-9.3,9.5c0,5.2,4.2,9.5,9.3,9.5c5.1,0,9.3-4.2,9.3-9.5
			C132.8,70.6,128.7,66.3,123.5,66.3L123.5,66.3z"/>
		<path id="XMLID_110_" class="st1" d="M95.6,82.8c-5.5,0-10,4.6-10,10.2c0,5.6,4.5,10.2,10,10.2c5.5,0,10-4.6,10-10.2
			C105.6,87.4,101.1,82.8,95.6,82.8L95.6,82.8z"/>
		<path id="XMLID_109_" class="st0" d="M95.7,113.1c-6.7,0-12.1,5.5-12.1,12.3c0,6.8,5.4,12.3,12.1,12.3c6.7,0,12.1-5.5,12.1-12.3
			C107.8,118.6,102.4,113.1,95.7,113.1L95.7,113.1z"/>
		<path id="XMLID_108_" class="st1" d="M123,131.3c-5.5,0-10,4.6-10,10.2c0,5.6,4.5,10.2,10,10.2c5.5,0,10-4.6,10-10.2
			C133,135.8,128.5,131.3,123,131.3L123,131.3z"/>
		<path id="XMLID_107_" class="st1" d="M113.5,108l5.9-11.6c13.3,6.5,23.5,15.7,30.5,27.7l9.4,46h-21.9
			C149.7,143.3,141.6,122.7,113.5,108L113.5,108z"/>
		<path id="XMLID_106_" class="st1" d="M186.2,108l-5.9-11.6c-13.3,6.5-23.5,15.7-30.5,27.7l-9.4,46h21.9
			C150,143.3,158.1,122.7,186.2,108L186.2,108z"/>
	</g>
	<g id="XMLID_176_">
		<path id="XMLID_99_" class="st2" d="M55.2,252.7v-3.2c0.4-0.1,0.6-0.2,0.7-0.4c0.1-0.2,0.1-0.6,0.1-1.3v-22.5h3.2v22.3
			c0,1.5-0.2,2.6-0.6,3.2c-0.5,0.8-1.1,1.3-1.8,1.6C56.5,252.5,56,252.7,55.2,252.7L55.2,252.7z M55.6,222.5L55.6,222.5v-4.1h4.9
			V215l3.6,0l0,3.4h4.7v4.1h-4.7v30.6h-3.6v-30.6H55.6L55.6,222.5z M65.3,253.1L65.3,253.1l0.2-27.7H68l-0.2,27.7H65.3L65.3,253.1z
			 M69.6,253.1L69.6,253.1l0-4.3c1.6-1.3,3-3.2,4.2-5.9c-1.3-3.4-2.2-6.7-2.5-9.8c-0.3-2.2-0.5-5.3-0.6-9h3.9
			c0.1,2.6,0.2,4.8,0.3,6.3c0.1,2.2,0.4,4.3,0.9,6.4c0.5-2.5,0.7-4.9,0.9-7.2c0-1.1,0.1-3.2,0.2-6.1l0-2.3c0-0.9-0.4-1.3-1.1-1.3
			l-5.3,0V216h6c1.9,0,3.1,0.4,3.8,1.2c0.5,0.6,0.7,1.5,0.7,2.7c0,2.1-0.2,5.3-0.5,9.4c-0.3,4-0.7,7.3-1.3,9.8
			c-0.3,1.1-0.7,2.4-1.1,3.9c1.1,2.3,2.7,4.2,4.7,6v4.3c-2.4-1.2-4.6-3.3-6.7-6.1c-1,1.6-1.9,2.7-2.7,3.5
			C72.3,251.4,71.1,252.2,69.6,253.1L69.6,253.1z M81.8,222.5L81.8,222.5v-4.1h8.3V215h4l0,3.3h1.7l0,4.2h-1.6v25.8
			c0,3.2-1.4,4.9-4.1,4.8h-3.4V249h2c0.6,0,0.9-0.1,1.1-0.4c0.2-0.3,0.4-0.8,0.4-1.5v-24.6H81.8L81.8,222.5z M83.8,242.8L83.8,242.8
			v-14.8h3.5v14.8H83.8L83.8,242.8z"/>
		<path id="XMLID_92_" class="st2" d="M111.2,215.2h4.9l-6.5,12.2h2.7l0.9-1.7l5.1,0l-8.3,15.1h7.7v4.1l-8.7,0c-2.7,0-4-0.9-4-2.7
			c0-0.9,0.6-2.4,1.7-4.4l3.5-6.3l-2.4,0c-1,0-1.8-0.3-2.3-0.8c-0.5-0.5-0.7-1.1-0.7-1.8c0-0.9,0.4-2,1.1-3.4L111.2,215.2
			L111.2,215.2z M104.9,253L104.9,253v-4.1H118v4.1H104.9L104.9,253z M119,231.7L119,231.7v-5.9c1.4-1.6,2.5-3.2,3.2-5
			c0.7-1.6,1.2-3.6,1.7-5.9h4.6c-0.2,1-0.6,2.4-1.1,4.2h6v-4.3h4v4.3h7.6v4.2h-7.6v5.5h7.6v4.1h-7.6v5.8h7.6v4.1h-7.6v5.8h7.6v4.2
			H126c-1.5,0-2.5-0.4-3.2-1.1c-0.7-0.8-1.1-1.8-1.1-3v-19.2C121,230.4,120.1,231.1,119,231.7L119,231.7z M125.7,228.9L125.7,228.9
			h7.7v-5.5H126l-0.2,0.4V228.9L125.7,228.9z M125.7,238.9L125.7,238.9h7.7V233h-7.7V238.9L125.7,238.9z M133.5,248.8L133.5,248.8
			V243h-7.7l0,4.4c0,1,0.5,1.5,1.4,1.5H133.5L133.5,248.8z"/>
		<path id="XMLID_85_" class="st2" d="M154.3,232.4v-5.3c1.5-1.2,2.6-2.2,3.2-3.1c1.2-1.9,2.4-4.9,3.4-9.1h4.6
			c-0.5,2.7-1.3,5.7-2.6,8.9V253h-4.2v-23.3c-0.9,0.7-1.5,1.3-2,1.6C156.1,231.6,155.4,232,154.3,232.4L154.3,232.4z M165.8,221.6
			L165.8,221.6v-4.1h12.7v-2.3h4.1v2.3h12.2v4.1H165.8L165.8,221.6z M165.8,235.7L165.8,235.7v-4.2h29v4.2H165.8L165.8,235.7z
			 M166.2,247.8L166.2,247.8v-4.3c0-1.9,0.4-3.3,1.2-4c0.8-0.8,2-1.2,3.5-1.2h18.2c2.1,0,3.5,0.4,4.3,1.2c0.8,0.8,1.2,2.3,1.2,4.3
			c0,1.5,0,2.5,0,3c0,2.2-0.2,3.6-0.6,4.4c-0.8,1.3-2.2,1.9-4.1,1.9H172c-2,0-3.3-0.2-4-0.7c-0.6-0.4-1.1-0.9-1.3-1.5
			C166.3,250.2,166.2,249.1,166.2,247.8L166.2,247.8z M166.5,228.7L166.5,228.7v-4.2h27.7v4.2H166.5L166.5,228.7z M171.9,248.8
			L171.9,248.8h16c1.1,0,1.8-0.1,2.1-0.3c0.2-0.2,0.4-0.6,0.4-1.1v-3c0-0.8-0.1-1.4-0.3-1.6c-0.3-0.3-0.8-0.4-1.6-0.4h-16
			c-1,0-1.6,0.1-1.8,0.3c-0.2,0.2-0.3,0.6-0.3,1.3v2.4c0,1.1,0.1,1.8,0.3,2C170.8,248.7,171.3,248.8,171.9,248.8L171.9,248.8z"/>
		<path id="XMLID_76_" class="st2" d="M203.7,253v-4.1c0.9-0.1,1.5-0.6,1.8-1.6c0.2-0.5,0.4-2.1,0.5-4.7l0.1-1.8h4
			c0,1-0.2,2.7-0.3,5.2c-0.2,2.7-1,4.6-2.5,5.7C206.5,252.5,205.2,252.9,203.7,253L203.7,253z M210.7,217.2L210.7,217.2v-2.2h4.1
			v2.2h23.8c1.1,0,1.9,0.1,2.5,0.3c1.5,0.6,2.2,1.8,2.2,3.6v13.7c0,1.3-0.4,2.3-1.2,3c-0.8,0.7-1.9,1.1-3.2,1.1h-29.2
			c-1.4,0-2.5-0.4-3.3-1.1c-0.7-0.7-1.1-1.8-1.1-3.2v-13.3c0-1.3,0.4-2.4,1.2-3.1c0.7-0.6,1.8-1,3.1-1H210.7L210.7,217.2z
			 M209.4,223.3L209.4,223.3h29.8v-0.6c0-0.4-0.2-0.8-0.5-1.1c-0.3-0.3-0.7-0.4-1.2-0.4H211c-1.1,0-1.6,0.4-1.6,1.3V223.3
			L209.4,223.3z M209.4,229.1L209.4,229.1h29.8v-2h-29.8V229.1L209.4,229.1z M239.2,232.9L239.2,232.9h-29.8v0.4
			c0,1,0.4,1.5,1.3,1.5h27.1c0.4,0,0.7-0.2,1-0.5c0.2-0.3,0.4-0.6,0.4-1V232.9L239.2,232.9z M215.9,240.8L215.9,240.8h4.1v5.4
			c0,0.8,0.2,1.4,0.6,1.8c0.5,0.5,1.1,0.8,1.9,0.8h12.7v4.1h-13.3c-1.8,0-3.3-0.6-4.3-1.7c-1-1.1-1.6-2.5-1.6-4.2V240.8L215.9,240.8
			z M226.4,246.4L226.4,246.4v-5.5h3.9v5.5H226.4L226.4,246.4z M237.7,240.8L237.7,240.8h4.1l0.4,4.4c0.2,1.6,0.5,2.6,1.1,3.1
			c0.3,0.3,0.6,0.4,1.1,0.5v4.1c-1.8,0-3.3-0.6-4.5-1.9c-0.8-0.8-1.3-1.8-1.6-3c-0.1-0.5-0.2-1.3-0.3-2.4L237.7,240.8L237.7,240.8z"
			/>
		<path id="XMLID_63_" class="st3" d="M71.1,265.6H61v4h9c1.3,0,2.1,0.2,2.6,0.7c0.5,0.5,0.7,1.4,0.7,2.7v1.6c0,1.3-0.2,2.2-0.7,2.7
			c-0.5,0.5-1.3,0.7-2.6,0.7h-8.3c-1.3,0-2.2-0.2-2.6-0.7c-0.5-0.5-0.7-1.4-0.7-2.7v-0.4l2.2-0.5v2.3h10.6v-4.4h-8.9
			c-1.3,0-2.2-0.2-2.6-0.7c-0.5-0.5-0.7-1.4-0.7-2.7v-1.3c0-1.3,0.2-2.2,0.7-2.7c0.5-0.5,1.3-0.7,2.6-0.7h7.6c1.3,0,2.1,0.2,2.6,0.7
			c0.5,0.5,0.7,1.3,0.7,2.5v0.3l-2,0.6V265.6L71.1,265.6z M83.1,263.7v12.5h10.4v-12.5h2.3v11.1c0,1.3-0.2,2.2-0.7,2.7
			c-0.5,0.5-1.3,0.7-2.6,0.7h-8.4c-1.3,0-2.2-0.2-2.6-0.7c-0.5-0.5-0.7-1.4-0.7-2.7v-11.1H83.1L83.1,263.7z M114.1,265.5h-8.2v5.1
			h8.2c0.6,0,1-0.1,1.2-0.3c0.2-0.2,0.3-0.6,0.3-1.2v-2c0-0.6-0.1-1-0.3-1.2C115.1,265.6,114.7,265.5,114.1,265.5L114.1,265.5z
			 M103.5,278.2v-14.5H115c1.1,0,1.8,0.2,2.3,0.7c0.5,0.4,0.7,1.2,0.7,2.1v3.2c0,1-0.2,1.7-0.7,2.1c-0.5,0.4-1.2,0.7-2.3,0.7h-9.1
			v5.7H103.5L103.5,278.2z M127,278.2l-5.2-14.5h2.4l3.8,11.5l4.2-11.5h1.5l4.1,11.5l3.9-11.5h2.1l-5.2,14.5h-1.8l-3.9-11l-4.1,11
			H127L127,278.2z M148.7,278.2v-14.5h2.4v14.5H148.7L148.7,278.2z M170.9,265.6h-10.1v4h9c1.3,0,2.1,0.2,2.6,0.7
			c0.5,0.5,0.7,1.4,0.7,2.7v1.6c0,1.3-0.2,2.2-0.7,2.7c-0.5,0.5-1.3,0.7-2.6,0.7h-8.3c-1.3,0-2.2-0.2-2.6-0.7
			c-0.5-0.5-0.7-1.4-0.7-2.7v-0.4l2.2-0.5v2.3h10.6v-4.4H162c-1.3,0-2.2-0.2-2.6-0.7c-0.5-0.5-0.7-1.4-0.7-2.7v-1.3
			c0-1.3,0.2-2.2,0.7-2.7c0.5-0.5,1.3-0.7,2.6-0.7h7.6c1.3,0,2.1,0.2,2.6,0.7c0.5,0.5,0.7,1.3,0.7,2.5v0.3l-2,0.6V265.6L170.9,265.6
			z M188,265.6h-5.1v10.5h5.1c2.3,0,3.9-0.4,4.9-1.2c0.9-0.8,1.4-2.2,1.4-4.1c0-1.8-0.5-3.2-1.5-4C191.9,266,190.3,265.6,188,265.6
			L188,265.6z M188.4,263.7c1.3,0,2.4,0.1,3.3,0.3c0.9,0.2,1.6,0.5,2.2,0.9c0.9,0.6,1.6,1.5,2.2,2.5c0.5,1.1,0.8,2.2,0.8,3.5
			c0,1.4-0.3,2.6-0.8,3.7c-0.5,1.1-1.2,1.9-2.2,2.6c-0.6,0.4-1.3,0.7-2.2,0.8c-0.9,0.2-2,0.3-3.3,0.3h-7.8v-14.5H188.4L188.4,263.7z
			 M205.3,276.1h11.8v-10.5h-11.8V276.1L205.3,276.1z M202.9,267.1c0-1.3,0.2-2.2,0.7-2.7c0.5-0.5,1.3-0.7,2.6-0.7h9.8
			c1.3,0,2.2,0.2,2.6,0.7c0.5,0.5,0.7,1.4,0.7,2.7v7.6c0,1.3-0.2,2.2-0.7,2.7c-0.5,0.5-1.3,0.7-2.6,0.7h-9.8c-1.3,0-2.2-0.2-2.6-0.7
			c-0.5-0.5-0.7-1.4-0.7-2.7V267.1L202.9,267.1z M228.9,266.3c0,0.3,0.1,0.6,0.1,0.9c0,0.3,0,0.7,0,1.2v9.8h-2v-14.5h1.9l6.9,9.4
			l6.4-9.4h2.2v14.5h-2.2v-9.8c0-0.1,0-0.5,0-1c0-0.5,0-0.9,0.1-1.2c-0.2,0.4-0.3,0.7-0.5,0.9c-0.1,0.3-0.3,0.5-0.4,0.6l-5.4,8.1
			h-0.6l-5.7-7.9c0,0,0,0-0.1-0.1C229.3,267.4,229,266.8,228.9,266.3L228.9,266.3z"/>
	</g>
</g>
</svg>
