<?xml version="1.0" encoding="utf-8"?>
<!-- Generator: Adobe Illustrator 21.0.0, SVG Export Plug-In . SVG Version: 6.00 Build 0)  -->
<svg version="1.1" id="图层_1" xmlns="http://www.w3.org/2000/svg" xmlns:xlink="http://www.w3.org/1999/xlink" x="0px" y="0px"
	 viewBox="0 0 34 34" style="enable-background:new 0 0 34 34;" xml:space="preserve">
<style type="text/css">
	.st0{fill:#999999;}
</style>
<g>
	<g>
		<path class="st0" d="M33.9,17.1L33.9,17.1c-2.7-7-9.2-11.9-16.9-11.9c-7.6,0-14.1,4.9-16.8,11.9h0c0,0,0,0,0,0c0,0,0,0,0,0h0
			c2.7,7,9.2,12,16.8,12C24.6,29,31.1,24.1,33.9,17.1L33.9,17.1C33.9,17.1,33.9,17.1,33.9,17.1C33.9,17.1,33.9,17.1,33.9,17.1
			L33.9,17.1z M17,26.6c-6.3,0-11.8-3.9-14.4-9.6c2.6-5.6,8-9.5,14.4-9.5c6.3,0,11.8,3.9,14.4,9.5C28.8,22.7,23.3,26.6,17,26.6
			L17,26.6z M21.9,14.3c0,1.5-1.3,2.8-2.8,2.8c-1.6,0-2.8-1.3-2.8-2.8c0-1.5,1.3-2.8,2.8-2.8c0,0,0,0,0,0c-0.7-0.2-1.4-0.4-2.1-0.4
			c-3.3,0-6.1,2.7-6.1,6c0,3.3,2.7,6,6.1,6s6.1-2.7,6.1-6c0-1.4-0.5-2.7-1.3-3.7C21.9,13.7,21.9,14,21.9,14.3L21.9,14.3z M21.9,14.3
			"/>
	</g>
</g>
</svg>
