<?xml version="1.0" encoding="utf-8"?>
<!-- Generator: Adobe Illustrator 21.0.0, SVG Export Plug-In . SVG Version: 6.00 Build 0)  -->
<svg version="1.1" id="图层_1" xmlns="http://www.w3.org/2000/svg" xmlns:xlink="http://www.w3.org/1999/xlink" x="0px" y="0px"
	 viewBox="0 0 34 34" style="enable-background:new 0 0 34 34;" xml:space="preserve">
<style type="text/css">
	.st0{fill-rule:evenodd;clip-rule:evenodd;fill:#CACACA;}
</style>
<g>
	<path class="st0" d="M20.9,22c0,0-0.4-0.7-0.4-1.5c0-0.2,0-0.6,0-1c1.8-1.1,3.3-3,4-5.3c0.8-0.2,1.4-1,1.4-1.8V10
		c0-0.7-0.3-1.3-0.9-1.6c-0.4-4.6-2.3-8.1-8-8.1c-5.7,0-7.6,3.4-8,7.9C8.5,8.6,8.1,9,8.1,9.7V12c0,0.9,0.6,1.8,1.4,2.2
		c0.8,2.4,2.2,4.3,4.1,5.3c0,0.4,0,0.8,0,1c0,0.8-0.4,1.5-0.4,1.5C8.5,22.8,0,26.6,0,29.8s2.6,3.9,5.8,3.9h22.4
		c3.2,0,5.8-0.7,5.8-3.9S25.5,22.8,20.9,22L20.9,22z"/>
</g>
</svg>
