<?xml version="1.0" encoding="utf-8"?>
<!-- Generator: Adobe Illustrator 21.0.0, SVG Export Plug-In . SVG Version: 6.00 Build 0)  -->
<svg version="1.1" id="图层_1" xmlns="http://www.w3.org/2000/svg" xmlns:xlink="http://www.w3.org/1999/xlink" x="0px" y="0px"
	 viewBox="0 0 420 320" style="enable-background:new 0 0 420 320;" xml:space="preserve">
<style type="text/css">
	.st0{fill:#AF2930;}
	.st1{fill-rule:evenodd;clip-rule:evenodd;fill:#AF2930;}
	.st2{fill-rule:evenodd;clip-rule:evenodd;fill:none;stroke:#AF2930;stroke-width:5.6693;stroke-miterlimit:22.9256;}
	.st3{fill-rule:evenodd;clip-rule:evenodd;fill:none;stroke:#AF2930;stroke-width:2.8346;stroke-miterlimit:22.9256;}
	.st4{fill-rule:evenodd;clip-rule:evenodd;fill:none;stroke:#AF2930;stroke-width:4.252;stroke-miterlimit:22.9256;}
	.st5{fill-rule:evenodd;clip-rule:evenodd;fill:#85262D;}
	.st6{fill-rule:evenodd;clip-rule:evenodd;fill:none;stroke:#AF2930;stroke-width:2.126;stroke-miterlimit:22.9256;}
	.st7{fill-rule:evenodd;clip-rule:evenodd;fill:none;stroke:#AF2930;stroke-width:1.4173;stroke-miterlimit:22.9256;}
	.st8{fill:#AF2930;stroke:#AF2930;stroke-width:0.216;stroke-miterlimit:5;}
	.st9{font-family:'MicrosoftYaHei-Bold';}
	.st10{font-size:9.8937px;}
	.st11{fill-rule:evenodd;clip-rule:evenodd;fill:#AF2930;stroke:#AF2930;stroke-width:0.216;stroke-miterlimit:22.9256;}
	.st12{fill-rule:evenodd;clip-rule:evenodd;fill:#AF2930;stroke:#85262D;stroke-width:0.216;stroke-miterlimit:22.9256;}
</style>
<g>
	<g>
		<path class="st0" d="M368.8,294.3c0.6,0.6,1.4,1.1,1.9,1.8c1.3,1.6,2.9,2.2,4.9,2c0.1,0,0.2,0,0.4,0c3.8-0.5,4.6-1.6,3.3-5.3
			c-0.2-0.4-0.8-0.9-1.3-1c-1.5-0.5-3.1-1-4.7-1.1c-1.1-0.1-2.3,0.7-3.5,1c-0.5,0.1-1,0.2-1.5,0.3c0-0.6-0.1-1.4,0.1-1.6
			c1.4-1.1,2.8-2.2,4.4-2.9c1.9-0.9,2.8-2.6,2.6-4.7c-0.1-1.8,0.3-3.6,0.7-5.4c0.5-1.8,0.4-2-1.5-2.2c-0.7-0.1-1.5-0.4-2-0.8
			c-0.7-0.6-0.7-1.3,0.4-1.7c1.3-0.5,2.5-1.2,3.9-2c-2.3-1.2-5.3-0.9-6.7,0.2c-0.5,0.4-1.1,0.8-1.7,1c-4.4,1.4-7.6,4.3-10.5,7.7
			c-2,2.4-5.8,2.5-8.1,0.3c-0.3-0.3-0.5-1.2-0.3-1.3c1.3-1.4-0.8-4.4,2.3-4.8c1.6-0.2,3.3,0.1,4.8-0.3c2.2-0.6,4.3-1.7,6.4-2.6
			c0.3-0.1,0.6-0.3,1-0.5c3.5-1.4,4.2-3.1,3.2-6.8c-0.3-1.3-0.5-2.6-0.8-3.9c-0.1-0.4,0-0.8-0.2-1c-2.6-3.2-1.6-7.1-2.1-10.7
			c-0.6-4.2,1.7-6.3,4.3-8.6c0.9-0.8,1.7-0.8,2,0.5c0.9,3.8,1.7,7.7,2.5,11.5c0,0.2,0.1,0.3,0.2,0.6c1.6,0.1,1.9-1.1,1.9-2.2
			c0.1-1.9,0-3.7,0-5.6c0-2.5,0.7-3.8,2.2-4.1c2-0.4,4.4,0.8,5.2,2.5c-0.5,1.1-1,2-1.4,3c4.3-1.4,7.4-3.7,8.2-8.3
			c0.2-1.2,0.8-2.4,1.5-3.4c0.3-0.5,1.2-0.9,1.8-0.9c1.1,0,2.1,0.3,3.6,0.6c0,1.8-0.2,3.7,0.1,5.4c0.2,1.2,1.1,2.2,1.6,3.3
			c0.3,0.7,0.8,1.5,0.8,2.3c-0.3,3.4-3,6-6.5,6.4c-0.5,0.1-1.1,0.3-1.6,0.5c0.2,0.6,0.3,1.2,0.6,1.8c1.1,1.7,2.4,3.2,1.2,5.4
			c-0.1,0.2,0.6,1.1,1.1,1.4c2,1.2,4.1,2.1,6,3.4c2.3,1.6,2.7,4.6,1.2,7c-0.5,0.8-1,1.5-1.2,2.4c-0.4,1.1-1,1.4-2,0.9
			c-0.6-0.3-1.2-0.6-1.8-0.9c-1.8-1-3.5-1-5.3,0c-0.6,0.4-1.5,0.3-2.3,0.4c-0.1-0.5-0.4-1.1-0.2-1.5c0.5-0.9,1.4-2.3,1.9-2.2
			c2.3,0.3,3-1,3.6-2.6c-1.7-1.6-4.5-2.2-6.5-1.3c-0.3,0.1-0.6,0.1-0.9,0.2c-2.2,0.8-4.5,1.6-7,2.5c4.1,2.9,1.9,6.5,1.8,9.8
			c0,1.1,0,1.7,0.9,2.5c0.9,0.8,1.5,2,2.3,2.9c0.5,0.5,1.1,1.1,1.7,1.4c0.6,0.3,1.4,0.3,2.1,0.5c2.8,0.6,4.4,2.2,4.9,5
			c0.2,1.4,0,2.7-1.2,3.7c-1.2,0.9-2.3,1.5-3.8,0.7c-1-0.6-1.8-0.6-2.1,1c-1,4.9-5,6-9.1,6.8c-1,0.2-2,0.2-3,0.5
			c-1.5,0.4-2.1-0.2-2.6-1.6c-0.4-1.2-1.1-2.3-1.9-3.2c-0.9-1.1-1-2.2-0.9-3.4C368.4,294.6,368.6,294.5,368.8,294.3z M385.1,256.3
			c-0.2-1.2-0.3-2.4-0.6-3.5c-0.3-1.3-1.9-1.7-2.3-0.5c-0.7,1.8-0.8,3.7-1,5.6c0,0.3,0.6,0.7,1,0.9
			C384.2,259.6,385,258.9,385.1,256.3z M377.8,262.1c0-1.9-0.8-3.6-1.8-3.6c-1.1,0-2.3,1.5-2.1,3.1c0.1,0.8,1,2.1,1.5,2.1
			C376.2,263.6,377.9,263.9,377.8,262.1z M385.8,263.7c0.9-0.9,1.7-1.6,2.4-2.4c0.2-0.2-0.1-1.1-0.4-1.4c-1.1-0.8-1.8,0.2-2.6,0.8
			c-0.1,0.1-0.3,0.2-0.4,0.4c-0.3,0.5-0.6,1-0.9,1.5C384.4,262.9,384.9,263.2,385.8,263.7z"/>
		<path class="st0" d="M52.2,233.2c2.4,0,4,1.2,4.8,3.2c0.2,0.5,0.4,1,0.7,1.4c2.2,2.6,1.9,5.5,1.4,8.5c-0.4,2.5-1,5-1.2,7.5
			c-0.1,0.7,0.5,1.6,1,2.2c0.8,0.8,1.7,1.5,2.7,2.1c1.6,1,3.2,2.1,3.8,4c0.2,0.5,0.7,0.8,1.1,1.2c1.1,1,2.5,1.8,3.4,3
			c1.8,2.5,4.4,3.4,7.1,3.6c5.5,0.6,10.4,2.6,15,5.4c2,1.2,2.2,4.6,0.3,5.6c-0.8,0.5-2,0.6-3,0.5c-3.7-0.3-7.2,0.9-10.7,1.7
			c-3.9,0.9-6.4-1.1-8.4-3.8c-1.5-2.1-3.2-3.8-5.4-4.8c-3-1.4-4.4-3.9-6.2-6.4c-1.9-2.7-4.3-4.9-6.7-7.2c-0.4-0.4-1.6-0.2-2.3,0.1
			c-4.1,1.7-7.3,4.5-9.7,8.4c-1.6,2.6-3.4,5.2-5.5,7.4c-3.2,3.3-6.8,6.3-10.2,9.6c-0.7,0.7-1.2,1.8-1.7,2.7c-0.8,1.8-2.2,3-4,3.7
			c-0.4,0.2-1,0.3-1.4,0.2c-1.9-0.5-2.5-2.2-2.8-3.8c-0.3-1.4,0-3,1.7-3.6c2.9-0.9,4.7-3.2,5.9-5.6c1.8-3.6,4.6-6.2,7.1-9.2
			c1.4-1.6,2.7-3.4,4-5.1c1.4-1.8,2.8-3.6,4.1-5.4c2.4-3.3,3.7-7.1,4.4-11.1c0.8-4,2.9-7.2,5.3-10.3c1.3-1.7,2.6-3.6,4-5.2
			C51.2,233.3,52,233.3,52.2,233.2z"/>
		<path class="st0" d="M263,249.3c0.4-0.6,1-1.2,1.3-1.9c1-2.5,1.7-5.3,3-7.6c0.6-1.1,2.4-2.1,3.6-2.1c1.6,0.1,2.1,2,2.4,3.6
			c0,0.3,0,0.6,0,0.9c0,3,0,3,3.1,3.1c1.9,0,3.4,2.2,2.8,4.1c-0.7,2.3-1.7,3-4.3,2.8c-1.6-0.1-3.1,0.3-4.1,1.7
			c-0.3,0.5-0.6,1.2-0.5,1.7c0.1,0.4,0.8,1,1.3,1c1,0.1,2-0.3,3.1-0.3c2.1,0,4.4-0.5,6.4,0.2c2.1,0.7,1.3,3.2,1.2,4.7
			c-0.1,0.8-2.1,1.9-3.3,2.2c-2.4,0.6-4.9,0.9-7.4,1.2c-1.5,0.2-3.1-0.2-4.6,0c-2.4,0.4-4.7,1.2-7.1,1.7c-2,0.4-4.1,0.4-6,0.9
			c-3.5,1-7,2.3-10.5,3.5c-0.2,0.1-0.3,0.2-0.5,0.2c-3.2,0-5.8,1.4-8.3,3.2c-0.7,0.5-1.5,1-2.2,1.6c-1.3,1.1-2.7,1.6-4.3,1.2
			c-1.2-0.3-1.5-1.1-0.9-2.2c0.3-0.6,0.8-1.1,1-1.7c0.5-2.3,2-3.1,4.2-3c3.1,0.2,5.8-1.1,8.6-1.9c3.5-1.1,7.1-1.9,10.7-2.9
			c1.2-0.3,3.2-0.1,2.7-2c-0.4-1.6-2.2-1.3-3.4-0.9c-1.8,0.6-3.5,1.6-5.2,2.4c-0.6,0.3-1.3,0.5-2.2,0.9c2.4-3.3,2.2-3.3,1.2-7.5
			c-0.3-1.3,0.6-3.1,1.4-4.4c0.3-0.5,1.9-0.5,2.9-0.3c1.8,0.3,2.1,0,2-2c-0.1-2.6-0.2-5.2,0-7.8c0.2-3.3,3.5-4.8,6-5
			c2.6-0.2,3.1,2,3.9,3.8c0.5,1.2,0.6,2.5,0.9,3.8c0.2,0.9,0.4,1.7,0.6,2.6C262.6,249.1,262.8,249.2,263,249.3z M261.3,257.7
			c0.5,0.9,0.9,1.6,1.3,2.2c0.4-0.9,1.1-1.7,1.3-2.6c0.1-0.5-0.7-1.1-1-1.6C262.3,256.3,261.9,256.9,261.3,257.7z M265,253.3
			c-0.9-0.8-1.4-1.2-1.9-1.6c-0.4,0.7-1,1.3-1.2,2.1c-0.3,0.9,0.4,1.4,1.2,1.1C263.6,254.7,264.1,254.1,265,253.3z"/>
		<path class="st0" d="M295.7,289.3c0.7-0.1,1.3-0.3,1.8-0.1c1.2,0.4,1.8,0,2.7-0.8c1.9-1.8,4.3-3.1,6-5c1.4-1.6,2.4-3.8,3.1-5.9
			c0.5-1.4-0.6-2.2-2.2-2c-2.3,0.3-4-1.2-5.9-2.1c-0.3-0.1-0.3-0.9-0.4-1.3c-0.3-1.1-0.4-2.3-0.7-3.4c-0.6-1.9,2-4.9,4.3-5.1
			c1.3-0.1,2.5-0.1,3.8-0.3c3.3-0.6,5-3,5.6-6.3c0.5-2.8,1.7-5.5,2.7-8.3c0.3-0.7,0.7-1.4,1.2-2c0.5-0.6,1.2-1.6,1.7-1.5
			c0.7,0.1,1.7,0.8,2,1.5c0.9,2,1.7,4.2,2.2,6.4c0.2,0.8-0.1,1.9-0.4,2.7c-0.6,1.5-0.2,2.2,1.3,2.6c1.5,0.4,3,0.9,4.4,1.4
			c1.3,0.5,1.6,1.5,1.3,2.9c-0.9,3.9-4.1,4.9-7.2,6.2c-0.9,0.3-1.8,0.6-2.5,1.1c-1,0.7-1,1.5-0.5,2.6c2.7,6.2,7.4,10.6,12.2,15
			c3.1,2.8,7,4.2,10.8,5.7c0.9,0.4,1.6,0.8,1.3,1.7c-0.2,0.5-0.9,0.9-1.5,1c-2.2,0.3-4.6,0.9-6.7,0.5c-2-0.3-4.1-1.3-5.5-2.7
			c-2.3-2.2-4.3-4.8-6.2-7.3c-1.6-2.1-3-4.4-4.5-6.6c-2.1-3.1-3.8-3-6,0c-1.7,2.4-3.7,4.7-5.5,7.1c-1.1,1.4-2,3-2.9,4.5
			c-1.3,2.2-3.2,3.4-5.7,3.6c-0.6,0-1.4-0.8-1.7-1.4C297.1,292.5,296.5,291.1,295.7,289.3z"/>
		<path class="st0" d="M118.7,285c0.4-0.9,1.3-1.8,1.2-2.6c-0.1-1.7,0.1-3.6-1.6-4.7c-0.3-0.2-0.9,0-1.2,0.2
			c-2.3,1.1-3.3,2.9-3.1,5.6c0.1,1-0.6,2.1-0.8,3.1c-0.5,2.7-0.9,5.4-1.4,8.1c-0.3,1.3-0.7,2.7-1.3,3.9c-0.6,1.1-1.5,1.8-2.9,1.5
			c-1.8-0.3-3.7,0.7-5.3-0.8c-1.1-1-1.6-2-1.3-3.6c0.4-2.2,0.8-4.5,0.5-6.7c-0.3-2.3,0.4-4,1.6-5.7c2.7-3.6,4.4-7.8,5.1-12.2
			c0.6-3.9,0.7-7.8,1.2-11.7c0.6-4.7,1.7-9.2,5.1-12.8c0.4-0.4,1.2-0.7,1.7-0.6c1.8,0.6,3.5,0.4,5.2-0.4c1.9-0.8,4.3,0.2,5.2,1.8
			c0.2,0.4,0.3,0.9,0.2,1.3c-1.1,5.1-2.3,10.2-3.5,15.4c-0.2,0.9,0,1.9-0.2,2.8c-0.7,3,0.4,6,0.3,9c0,3.5,0.5,7,0.8,10.5
			c0.1,1.4,0,2.8-0.1,4.1c-0.1,0.5-0.6,1.2-0.9,1.3c-0.4,0.1-1.2-0.3-1.5-0.7c-1.2-2-2.2-4-3.3-6.1C118.4,285,118.6,285,118.7,285z
			 M120.8,258.6C120.8,258.6,120.8,258.6,120.8,258.6c0.1-0.2,0.1-0.5,0-0.7c-0.2-1-0.2-2.4-1.6-2.2c-1,0.2-2,0.9-1.7,2.4
			c0.1,0.9-0.5,1.8-0.5,2.8c0,0.8,0.4,1.7,0.8,2.4c0.2,0.4,0.7,0.7,1.2,1c0.4,0.2,0.9,0.6,1.2,0.5c0.3-0.1,0.6-0.7,0.6-1.1
			C120.8,262.1,120.8,260.4,120.8,258.6z M121,271.7c-0.8-1-1.4-1.8-2-2.5c-0.9,0.8-1.8,1.6-2.7,2.4c1,0.6,2,1.3,3.1,1.7
			C119.7,273.3,120.3,272.4,121,271.7z"/>
		<path class="st0" d="M189.6,261.6c3.3-0.8,6.5-1.6,9.8-2.4c2.3-0.6,4.6-1.5,6.9-1.7c4.1-0.4,6.1,2.6,5.3,6.6
			c-0.5,2.7-1.6,4.2-4.2,4.8c-0.5,0.1-0.8,1.1-1.1,1.7c-1.1,2.1-2.2,4.2-3.4,6.2c-0.4,0.6-1.2,1.1-2,1.4c-2.4,1.1-3.8,3.1-5.1,5.2
			c-0.1,0.2,0,0.8,0.1,0.8c0.4,0.1,0.9,0.3,1.4,0.2c3.3-0.9,6.5-2,9.8-2.6c3.7-0.6,7.4-0.2,10.8,1.2c1.3,0.5,2.4,3.7,1.5,4.7
			c-0.5,0.6-1.6,1-2.5,1c-1.4,0.1-2.8,0.1-4.1-0.2c-2.2-0.5-4.4-1.3-6.6-1.9c-0.4-0.1-0.8-0.3-1.2-0.3c-3,0.1-6.1,0.2-9.1,0.4
			c-0.6,0-1.3,0.3-1.9,0.5c-1.4,0.3-2.8,0.5-4.1,0.8c-1.4,0.3-2.9,0.5-4.1,1.1c-0.7,0.4-1,1.6-1.5,2.4c-1.2,1.5-2.6,2.1-4.6,1.5
			c-2-0.5-3.9-0.7-5.1-2.7c-0.9-1.5-0.1-4.6,1.2-5.5c0.4-0.3,1.3,0,1.8,0.3c2.3,1.1,2.9,1,4.7-0.8c0.4-0.4,1-0.9,1.5-0.8
			c3.3,0.5,5.5-1,7-3.7c0.8-1.5,1.8-2.9,2.5-4.3c0.6-1.2,0.2-2-1-2.6c-1.6-0.8-3.2-1.7-4.7-2.6c-2.4-1.6-2.4-6.7-0.1-8.4
			c0.5-0.3,1.2-0.3,1.8-0.5C189.5,261.4,189.5,261.5,189.6,261.6z"/>
		<path class="st0" d="M155.4,274.9c1.6,2.3,3.3,4.5,3.5,7.6c0.1,1.4,1.2,2.6,1.8,3.9c0.4,0.7,1,1.4,1.2,2.2
			c0.6,1.9-0.4,3.3-2.9,4.5c-0.8,0.4-1.7,0.6-2.5,0.9c-1.1,0.4-2.3,0.9-3.4,1.2c-0.8,0.2-1.8,0.2-2.6,0c-1.4-0.3-2.7-0.9-4.1-1.2
			c-3.2-0.6-6.5-1-9.7-1.5c-3.9-0.5-6.6-3.2-7.6-7.1c-0.6-2.6-0.1-5.1-0.3-7.6c0-0.4,0.1-0.9,0.4-1.2c2.1-2.6,0.6-4.8-0.7-7
			c-0.7-1.2-1.4-2.4-1.9-3.6c-0.2-0.5,0.4-1.4,0.8-1.9c0.6-0.9,1.4-1.6,2.1-2.4c2.5-2.9,5.7-4.4,9.5-4.9c0.4,0,0.9,0.1,1.2-0.1
			c3.5-1.5,5.6,1,7.7,2.9c0.7,0.7,1,2.5,0.6,3.4c-1.8,4.8-3.9,9.6-5.9,14.3c-0.1,0.2-0.2,0.4-0.4,0.6c-1.5,1.4-3.1,2.8-4.6,4.3
			c-1.5,1.4-1.3,3.4,0.4,4.6c2.9,2,6.1,2.5,9.5,2.1c2.2-0.3,4.4-0.2,6.6-0.1c1.1,0,1.6-0.4,1.7-1.5c0-0.9,0.3-1.8,0.5-2.6
			c0.7-2.3,0.1-4.5-0.9-6.6c-0.4-0.9-0.7-1.9-1-2.8C154.8,275.2,155.1,275,155.4,274.9z M140.2,269.3c1.3-2.5,0.6-4.6,0.2-6.3
			c-0.8,0.2-1.3,0.4-1.8,0.4c-0.9,0-1.9-0.1-2.8,0.1c-0.3,0-0.7,0.5-0.8,0.9c0,0.3,0.4,0.7,0.6,1c0.7,0.7,1.4,1.3,2.2,2
			C138.6,267.9,139.3,268.5,140.2,269.3z M137.8,274.2c-1-1.4-1.8-2.8-2.8-3.9c-0.3-0.3-1.3-0.4-1.5-0.2c-0.4,0.4-0.7,1.2-0.5,1.6
			c0.4,1.1,1.2,2.2,1.8,3.3c0.3,0.7,0.6,1.6,1.6,1.1C136.8,275.8,137.2,275,137.8,274.2z"/>
		<path class="st0" d="M255,291c0.8-1.3,1.5-2.7,2.5-3.7c1.1-1.1,0.9-2,0.3-3.1c-0.2-0.4-0.7-1-0.5-1.2c1.3-2-0.3-2.3-1.9-2.7
			c0.3-0.7,0.7-1.2,0.9-1.8c0.2-0.4,0.2-0.8,0.3-1.1c-0.4-0.1-0.9-0.3-1.3-0.3c-2.5,0.4-2.2,0.3-2.6-2.3c-0.4-2.9,1.8-3.6,3.2-5.1
			c0.2-0.2,1-0.1,1.4,0.2c0.3,0.2,0.5,0.8,0.6,1.2c0.5,3.5,0.4,3.4,3.6,2.1c2.8-1.1,4.7-3.1,6.4-5.6c0.4-0.7,1.3-1.3,2.1-1.4
			c0.8-0.1,2,0.3,2.4,0.9c0.4,0.6,0.1,1.8-0.3,2.5c-0.4,0.6-1.4,1-2.1,1c-1.8,0-3,0.9-3,2.7c-0.1,2.3,0,4.6,0,6.9
			c0,0.2,0.1,0.4,0.1,0.5c1.3,3.2,1.4,3.4-1.3,5.2c-2.2,1.4-2.7,3.4-2.8,5.7c-0.2,3.2,0.5,6.2,1.3,9.3c0.3,1.1,0,2.9-0.7,3.7
			c-0.5,0.6-2.3,0.3-3.4,0c-1.1-0.4-2-1.2-2.8-2.1c-0.8-0.8-1.1-2.1-2.7-1.4c0,0-0.2,0-0.2,0c-0.7-1.1-1.2-2.1-3.1-1.5
			c-0.6,0.2-2.1-1.6-2.7-2.8c-0.4-0.8-0.3-2.4,0.2-3.1c0.5-0.8,1.8-1.2,2.8-1.5c0.3-0.1,1,0.8,1.2,1.3c0.2,0.6,0.1,1.4,0.1,2.1
			c0,1.4,0.5,2.2,2,2.5c1,0.2,2,0.7,3,1.2c0.9,0.4,1.7,0.4,1.7-0.6c0.1-2.5,0-5.1-0.3-7.6c-0.1-0.8-0.8-1.4-1.9-0.6
			c-0.6,0.5-1.5,0.7-2.2,1.1C255.3,291.4,255.1,291.2,255,291z"/>
		<path class="st0" d="M50.2,302.1c-2.2,2.3-4.4,1.9-6-1.4c-0.4-1-1-1.9-1.7-2.8c-2-2.7-2.8-5.7-2.2-9.1c0.5-2.6,3.7-3.6,5.7-1.7
			c1.1,1.1,1.8,0.7,3.1,0.3c2.1-0.7,4.3-1,6.5-1.1c2.2-0.1,2.3,2.1,2.7,3.6c0.3,1.2,0.1,2.5,0.2,3.7c0.1,0.7,0.3,1.5,0.6,2.1
			c0.9,1.6,0.7,4.1-0.7,5.3c-0.5,0.5-1.3,0.8-2,1c-1.4,0.3-2.8,0.6-4.2,0.7C51.7,302.9,51.1,302.5,50.2,302.1z M49.1,297.4
			c2-0.2,2.9-1,3.4-2.3c0.2-0.6,0-1.4,0-2.1c-0.8,0.1-1.9,0-2.2,0.5C49.7,294.5,49.6,295.9,49.1,297.4z"/>
		<path class="st0" d="M48,282.2c0,0,0-0.4,0.1-0.9c0.1-1.3-0.2-2.3-1.5-2.9c-1.3-0.5-1.6-1.5-1.2-2.8c1.1-4.1,7.7-6,10.9-4.2
			c0.3,0.2,0.6,0.4,0.8,0.7c1.2,2,0.7,4.2,0.2,6.1c-0.5,1.8-2.4,2.8-4.5,3C51.1,281.5,49.6,281.9,48,282.2z"/>
		<path class="st0" d="M266.6,298.1c0.1-0.8,0.3-1.6,0.2-2.4c-0.4-1.8,0.7-2.9,2-3.6c0.5-0.3,1.7-0.2,2.2,0.1
			c2.4,1.5,2.9,5.3,1.1,7.4c-0.9,1-2.6,1.1-3.6,0.1C267.9,299.2,267.3,298.7,266.6,298.1z"/>
	</g>
	<path class="st1" d="M277.5,166.7v1.9h-1.9C275.7,166.8,275.7,166.8,277.5,166.7L277.5,166.7z M276.1,165.4l0-1.5
		c2.2,0.2,0.8-0.5,1.9,1L276.1,165.4L276.1,165.4z M271.4,167.6l1.9,2.3h2.3c0.3,0.4,0.9,1.1,0.9,1.4c0,1.2-1.9,3.8-1.9,4.6v1.4
		c2.5-0.7,1.4-1.2,2.3-3.3l1-4.2l3.8,2l-0.8,2.6l1,0l-0.3-0.4l2.4-1.8l0.6,0.6l-2.3,2.9l1.6,0.1c1.3,0,1.7-1.3,2.3-2.3
		c0-1.4,0.4-4.1,0.4-4.3c0-1.4-1.5-2.2-2.2-0.3h-2.3c-1.8,0-0.1-0.7-2.8-0.9v-1.4c0-1.4,1.1-2,2.3-2.3v1.9c0.8-0.5,2.3-1.5,2.3-2.8
		c0-4.8-5.6,3.4-5.6-4.2l-3.7-1.2c0.2,3,0.9,1.2,0.9,3c0,1.4-0.5,1.3-1.9,1.4c-0.3,1.3-0.5,0.8-0.5,1.9c0,0.2,0.7,1,0.9,1.4
		l-2.8-0.5L271.4,167.6z"/>
	<path class="st1" d="M225,193.3h1.4c-0.2,1.8,0.3,1.4-1.4,1.9V193.3L225,193.3z M220.8,199.9l8.2-4.1l0.3,0.5l-2.4,2.7
		c-1.2-0.3-0.9-0.5-1.9-0.5c-0.4,0-0.9,0.5-0.9,0.9c0,1.4,0.8,1.6,2,1.9l-0.6,2.8l1.9,0.4l-0.1,1.6l-3.2-1.1l0,1.8l5.2,0.5l-0.6-2.3
		l-0.6-6.7l1.5-0.7c0.1-2.4,0.6-2.6,2.8-2.8v-1.4h-3.3c0.4-1.7,0-1.2,1.9-1.4v-1.4c-2.2,0-1.8,0.5-2.3-1.4l-1-0.5l-1.5,3.5l-1.2-1.6
		h-1.4c-1.5,0-1.3,0.8-1.9,1.9l0.6,2l-1.5,0.7v3.7c-2.2,0.5-4.4,0.6-4.5,3.5L220.8,199.9z"/>
	<path class="st1" d="M137.1,172.7c1.4,1.6,1.4,3.7,4.2,3.7c0-2.4-1.5-6-1.5-6.5l0.6-5.6c1.5-1,4.2-1.4,4.2-3.3
		c0-1.1-0.3-1.4-1.4-1.4h-1.9c-3.9,0-4,0.9-7.7-0.2c-1.6-0.5-5.7-1.6-7.2-1.7c0.1,3.6,3.7,2,7,4.2l4.7,0.7L137.1,172.7z"/>
	<path class="st1" d="M252.7,196.3l1.6,0l1.2-4.2v-3.3c3,0,3,0.9,5.6,0.9h1.9c1.6,0,0.7-0.8,2.8-1.4V187c-2,0.5-0.8,0.9-2.3,0.9
		h-0.9c-1.6,0-6.5-0.2-6.5-1.4c0-2,0.9-1.9,0.9-3.3c0-2.1-1.1-0.9-2.3-0.9c-1.1,0,0-1.3-3.3-1.4v2.3c0,1.4,0.2,1.7,0.4,2.7l-2.7,3.9
		l0.5,0.3h0.9l0.1,1.1l3.2-1.1v2.8C253.6,194.7,251.7,194.5,252.7,196.3z"/>
	<path class="st1" d="M189.2,196.9c0,2.2,1.1,0.1,1.9,2.8c-2.1,0.6-1.2,1.4-2.8,1.4h-4.6c0.3,3.5,2.8,1.9,5.6,1.9h1.9
		c2.7,0,4.2,2.3,6.5,2.3h1.4c-0.1-1.6-1.5-2.8-2.8-2.8h-4.7c0.2-2.1,0.9-1.9,3.3-1.9c1.2-1.7,3.7-2.3,3.7-3.3c0-1.8-2.8-1.9-4.7-1.9
		h-3.3C189.5,195.5,189.2,195.9,189.2,196.9z"/>
	<path class="st1" d="M158.7,182.5v1.9h-1.4v-1.9H158.7L158.7,182.5z M149.8,186.3l-1.9,4.2h2.8c0.6-2.4,4.6-5.2,4.6-2.8
		c0,1.6-0.9,0.7-0.9,2.3v1.4l0.5,0.3l4.1-6.3c0.4-0.6,2.8-2.8,2.8-3.3c0-1.9-2.1-1.9-3.7-2.3C154.9,182,153.2,186,149.8,186.3z"/>
	<path class="st1" d="M164.3,185.2v1.9c-1.7-0.4-1.2,0-1.4-1.9H164.3L164.3,185.2z M166.6,196.4l0.5-0.5v-3.7
		c-0.7,0.8-1,1.9-2.3,1.9c-0.6,0-4.6-2-4.6-3.3c0-1.6,3.6-2.2,5.1-2.3l1.9-1.9l-1.5-2.3h-5.1c-0.2,0.5-2.3,6.2-2.3,6.5v1.4
		C161.9,193.2,161,195.9,166.6,196.4z"/>
	<path class="st1" d="M130.4,167.1h0.9v1.4h-0.9V167.1L130.4,167.1z M128.1,167.6c0,1.1,1,1.4,1.4,3.3c1.7-0.1,3.7-0.6,3.7-2.3
		c0-1.5-1.2-1-1.4-3.7h-1.4C129.2,164.8,128.1,166.7,128.1,167.6z"/>
	<path class="st1" d="M133.2,165.8c0.9,0.6,1.2,1.4,2.3,1.4c2.2,0,1.5-2.7-1.8-2.8L133.2,165.8z"/>
	<path class="st2" d="M208,214.2c57.4,0,104.2-46.8,104.2-104.2S265.4,5.9,208,5.9S103.8,52.6,103.8,110S150.6,214.2,208,214.2z"/>
	<path class="st1" d="M119.9,82.6l0.9-2.6l0.4,0.1l-0.1,0.2c-0.1,0.3-0.1,0.5-0.1,0.6c0.1,0.1,0.2,0.2,0.5,0.3l1.8,0.7l1.3-3.5
		l-1.8-0.6c-0.3-0.1-0.5-0.2-0.6-0.1c-0.1,0-0.2,0.2-0.3,0.4l-0.1,0.3l-0.4-0.1l0.9-2.6l0.4,0.1l-0.1,0.2c-0.1,0.2-0.1,0.4-0.1,0.5
		c0,0.1,0.2,0.2,0.5,0.3l4.5,1.6c0.2,0.1,0.4,0.1,0.5,0.1c0.1,0,0.2,0,0.2-0.1c0.1-0.1,0.1-0.3,0.2-0.6L129,78l-0.9,2.6l-0.4-0.1
		l0.1-0.2c0.1-0.2,0.1-0.4,0.1-0.5c0-0.1,0-0.2-0.1-0.2c-0.1-0.1-0.2-0.1-0.5-0.2l-2-0.7l-1.3,3.5l2.1,0.8c0.3,0.1,0.6,0.1,0.6,0.1
		c0.1-0.1,0.2-0.3,0.3-0.7l0.4,0.1l-0.9,2.6l-0.4-0.1l0.1-0.2c0.1-0.3,0.1-0.5,0.1-0.6c0-0.1-0.2-0.2-0.5-0.3l-4.6-1.6
		c-0.3-0.1-0.5-0.1-0.6-0.1c-0.1,0-0.2,0.2-0.3,0.4l-0.1,0.3L119.9,82.6z"/>
	<path class="st1" d="M123.3,73.5l2.4-5.3l2,0.2l0,0.5c-0.6,0-1,0-1.4,0.2c-0.3,0.2-0.7,0.7-1,1.4l-0.7,1.6l2.3,1.1l0.4-0.8
		c0.2-0.4,0.2-0.7,0.1-0.9c-0.1-0.2-0.3-0.4-0.7-0.6l-0.1,0l0.2-0.5l2.8,1.3l-0.2,0.5l-0.2-0.1c-0.3-0.2-0.6-0.2-0.8-0.1
		c-0.2,0.1-0.4,0.3-0.6,0.7l-0.4,0.8l2.1,1c0.2,0.1,0.4,0.2,0.5,0.1c0.1,0,0.2-0.2,0.3-0.4l0.4-1c0.3-0.7,0.4-1.3,0.4-1.8
		c-0.1-0.5-0.3-1-0.8-1.6l0.3-0.4l1.7,1.6l-2.5,5.5l-0.4-0.2l0.1-0.2c0.1-0.3,0.2-0.5,0.1-0.6c-0.1-0.1-0.2-0.2-0.4-0.3l-4.4-2
		c-0.2-0.1-0.3-0.1-0.4-0.1c-0.1,0-0.2,0-0.3,0.1c-0.1,0.1-0.2,0.3-0.3,0.5L123.3,73.5z"/>
	<path class="st1" d="M127.3,65.5l2.7-4.8l1.9,0.3l-0.1,0.5c-0.7-0.1-1.2,0-1.5,0.2c-0.3,0.2-0.6,0.5-1,1.1l-0.8,1.3l2.3,1.3
		l0.3-0.6c0.2-0.4,0.3-0.8,0.3-1c0-0.2-0.2-0.5-0.6-0.7l-0.2-0.1l0.3-0.4l2.7,1.5l-0.3,0.4l-0.2-0.1c-0.4-0.2-0.6-0.3-0.8-0.2
		c-0.2,0.1-0.4,0.3-0.7,0.7l-0.4,0.7l1.9,1.1c0.2,0.1,0.4,0.2,0.5,0.1c0.1,0,0.3-0.2,0.4-0.4l0.1-0.2l0.4,0.2l-1.4,2.4l-0.4-0.2
		l0.1-0.2c0.1-0.2,0.2-0.4,0.2-0.5c0-0.1-0.2-0.3-0.4-0.4l-4.2-2.4c-0.2-0.1-0.4-0.2-0.5-0.2c-0.1,0-0.2,0.2-0.4,0.4l-0.1,0.2
		L127.3,65.5z"/>
	<path class="st1" d="M131.5,58.7l3.3-4.8l1.9,0.5l-0.1,0.5c-0.5-0.1-1-0.1-1.4,0c-0.4,0.1-0.8,0.5-1.2,1.2l-1,1.4l2.1,1.5l0.5-0.7
		c0.2-0.3,0.3-0.6,0.3-0.9c0-0.3-0.2-0.5-0.6-0.7l-0.1-0.1l0.3-0.4l2.5,1.8l-0.3,0.4l-0.2-0.2c-0.3-0.2-0.6-0.3-0.8-0.3
		c-0.2,0-0.5,0.2-0.7,0.6l-0.5,0.7l1.9,1.3c0.2,0.2,0.4,0.2,0.5,0.2c0.1,0,0.2-0.1,0.3-0.3l0.6-0.9c0.4-0.6,0.7-1.2,0.7-1.7
		c0-0.5-0.2-1.1-0.5-1.7l0.4-0.3l1.4,1.9l-3.4,5l-0.3-0.2l0.1-0.2c0.2-0.2,0.2-0.4,0.2-0.6c0-0.1-0.2-0.3-0.4-0.4l-4-2.8
		c-0.2-0.1-0.3-0.2-0.4-0.2c-0.1,0-0.2,0-0.3,0.1c-0.1,0.1-0.2,0.2-0.4,0.5L131.5,58.7z"/>
	<path class="st1" d="M136.8,51.4l1.8-2.1l0.3,0.3l-0.1,0.2c-0.2,0.2-0.3,0.4-0.2,0.5c0,0.1,0.2,0.3,0.4,0.6l3.4,3
		c0.2,0.2,0.4,0.3,0.5,0.3c0.1,0,0.3-0.1,0.5-0.3l0.1-0.2l0.3,0.3l-1.8,2.1l-0.3-0.3l0.1-0.2c0.2-0.2,0.3-0.4,0.3-0.5
		c0-0.1-0.1-0.3-0.4-0.5l-3.5-3.1c-0.2-0.2-0.4-0.3-0.5-0.3c-0.1,0-0.3,0.1-0.5,0.3l-0.1,0.2L136.8,51.4z"/>
	<path class="st1" d="M141.8,45.7l2-1.9l0.3,0.3l-0.1,0.1c-0.2,0.2-0.3,0.4-0.3,0.5c0,0.1,0.1,0.3,0.3,0.5l2.2,2.3
		c0.4,0.4,0.8,0.7,1.1,0.8c0.3,0.1,0.6,0.1,1,0c0.3-0.1,0.6-0.3,0.9-0.5c0.3-0.3,0.5-0.6,0.6-0.9c0.1-0.4,0.2-0.7,0.1-1
		c-0.1-0.3-0.3-0.7-0.8-1.2l-2.1-2.2c-0.2-0.2-0.4-0.3-0.5-0.3c-0.1,0-0.3,0.1-0.5,0.3l-0.1,0.1l-0.3-0.3l1.7-1.6l0.3,0.3l-0.1,0.1
		c-0.2,0.2-0.3,0.4-0.3,0.5c0,0.1,0.1,0.3,0.3,0.5l2.2,2.4c0.6,0.6,0.9,1.3,0.8,2c-0.1,0.7-0.4,1.4-1,1.9c-0.5,0.5-1.1,0.8-1.8,0.9
		c-0.7,0.1-1.4-0.2-1.9-0.8l-2.4-2.5c-0.2-0.2-0.4-0.3-0.5-0.3c-0.1,0-0.3,0.1-0.5,0.3l-0.2,0.2L141.8,45.7z"/>
	<path class="st1" d="M148.9,39.2l1.7-1.4l5.8,2.1l-2.5-3.2c-0.2-0.3-0.4-0.4-0.5-0.4c-0.2,0-0.3,0-0.5,0.2l-0.1,0.1l-0.3-0.3
		l1.9-1.5l0.3,0.3l-0.1,0.1c-0.2,0.2-0.3,0.3-0.4,0.5c0,0.2,0.1,0.4,0.3,0.6L158,41l-0.5,0.4l-7-2.6l3.1,4c0.2,0.3,0.4,0.4,0.5,0.5
		c0.1,0,0.4-0.1,0.7-0.3l0.3,0.3l-1.9,1.5l-0.3-0.3l0.1-0.1c0.3-0.2,0.4-0.4,0.4-0.5s-0.1-0.4-0.3-0.6l-2.7-3.5
		c-0.2-0.2-0.3-0.3-0.4-0.4c-0.1-0.1-0.2-0.1-0.3-0.1c-0.1,0-0.2,0.1-0.4,0.3l-0.1,0.1L148.9,39.2z"/>
	<path class="st1" d="M156.1,33.8l2.3-1.5l0.2,0.4l-0.2,0.1c-0.2,0.1-0.3,0.3-0.4,0.4c0,0.1,0.1,0.4,0.3,0.7l2.5,3.8
		c0.2,0.2,0.3,0.4,0.4,0.4c0.1,0.1,0.3,0,0.6-0.2l0.2-0.1l0.2,0.4l-2.3,1.5l-0.2-0.4l0.2-0.1c0.2-0.1,0.3-0.3,0.4-0.4
		c0-0.1,0-0.3-0.2-0.6l-2.5-3.9c-0.2-0.3-0.3-0.4-0.4-0.5c-0.1,0-0.3,0-0.6,0.2l-0.2,0.1L156.1,33.8z"/>
	<path class="st1" d="M159.7,31.4l2.3-1.3l0.2,0.4l-0.2,0.1c-0.2,0.1-0.3,0.2-0.3,0.3c0,0.1,0,0.2,0,0.2c0,0.1,0.1,0.2,0.3,0.3
		l4.1,3.4l-0.8-5.3c0-0.2,0-0.3-0.1-0.4c-0.1-0.1-0.1-0.1-0.2-0.1c-0.1,0-0.2,0-0.4,0.1l-0.2,0.1l-0.2-0.4l1.9-1.1l0.2,0.4
		c-0.2,0.1-0.4,0.3-0.4,0.4c-0.1,0.1-0.1,0.3,0,0.6l0.8,6.5l-0.6,0.4l-5.1-4.1c-0.2-0.2-0.4-0.3-0.6-0.3c-0.1,0-0.3,0-0.5,0.2
		L159.7,31.4z"/>
	<path class="st1" d="M167.8,27l5.3-2.4l1.4,1.4l-0.3,0.3c-0.4-0.4-0.8-0.6-1.2-0.7c-0.4-0.1-0.9,0.1-1.7,0.4l-1.6,0.7l1.1,2.4
		l0.8-0.4c0.4-0.2,0.6-0.4,0.7-0.6c0.1-0.2,0-0.6-0.1-0.9l0-0.1l0.5-0.2l1.3,2.8l-0.5,0.2l-0.1-0.2c-0.1-0.3-0.3-0.5-0.5-0.6
		c-0.2-0.1-0.5,0-0.9,0.1l-0.8,0.4l0.9,2.1c0.1,0.2,0.2,0.4,0.3,0.4c0.1,0,0.2,0,0.5-0.1l1-0.4c0.7-0.3,1.2-0.7,1.5-1.1
		c0.3-0.4,0.4-1,0.4-1.7l0.5,0l0.2,2.3l-5.5,2.5l-0.2-0.4l0.2-0.1c0.3-0.1,0.4-0.2,0.5-0.4c0-0.1,0-0.3-0.1-0.5l-2-4.4
		c-0.1-0.2-0.2-0.3-0.2-0.4c-0.1-0.1-0.2-0.1-0.3-0.1c-0.1,0-0.3,0.1-0.6,0.2L167.8,27z"/>
	<path class="st1" d="M176.1,23.4l3.5-1.1c1.7-0.5,2.8-0.3,3.1,0.9c0.2,0.6,0.1,1.1-0.2,1.5c-0.3,0.4-0.9,0.8-1.6,1.1l2.5,1.6
		c0.3,0.2,0.5,0.3,0.7,0.3c0.2,0,0.4,0,0.6,0l0.1,0L185,28l-1.6,0.5l-3.5-2.4l-0.9,0.3l0.7,2.1c0.1,0.3,0.2,0.5,0.3,0.6
		c0.1,0.1,0.3,0.1,0.6,0l0.2-0.1l0.1,0.4l-2.6,0.8l-0.1-0.4l0.2-0.1c0.3-0.1,0.4-0.2,0.5-0.3c0.1-0.1,0-0.4-0.1-0.8l-1.4-4.4
		c-0.1-0.2-0.2-0.4-0.3-0.5c-0.1-0.1-0.3-0.1-0.5,0l-0.3,0.1L176.1,23.4L176.1,23.4z M178.1,23.3l0.8,2.5l1.4-0.4
		c0.7-0.2,1.1-0.5,1.3-0.7c0.2-0.3,0.3-0.7,0.1-1.1c-0.1-0.4-0.4-0.7-0.7-0.8c-0.3-0.1-0.7-0.1-1.2,0.1L178.1,23.3z"/>
	<path class="st1" d="M189.3,19.7l0.4-0.1l1,2l-0.4,0.2c-0.4-0.5-0.9-0.9-1.4-1.1c-0.5-0.2-1-0.3-1.5-0.1c-0.4,0.1-0.8,0.3-1,0.6
		c-0.2,0.3-0.3,0.6-0.2,0.8c0.1,0.3,0.2,0.5,0.5,0.6c0.3,0.1,0.7,0.2,1.2,0.2l1.4,0.1c0.7,0,1.3,0.2,1.7,0.4c0.4,0.2,0.6,0.6,0.7,1
		c0.1,0.6,0,1.1-0.4,1.6c-0.4,0.5-1,0.9-1.7,1c-0.4,0.1-0.8,0.1-1.2,0.1c-0.3-0.1-0.7-0.2-1.1-0.4l-0.1,0.7l-0.3,0.1l-1-2.4l0.5-0.2
		c0.4,0.6,0.9,1,1.5,1.3c0.6,0.3,1.1,0.3,1.7,0.2c0.5-0.1,0.8-0.3,1.1-0.7c0.3-0.3,0.4-0.7,0.3-1c-0.1-0.3-0.3-0.5-0.5-0.7
		c-0.3-0.1-0.7-0.2-1.3-0.2l-1.3-0.1c-0.7,0-1.2-0.2-1.6-0.4c-0.4-0.2-0.6-0.6-0.7-1c-0.1-0.5,0-1,0.4-1.4c0.4-0.5,0.9-0.8,1.6-0.9
		c0.7-0.2,1.4-0.1,1.9,0.2L189.3,19.7z"/>
	<path class="st1" d="M192.4,19.2l2.7-0.5l0.1,0.4l-0.2,0c-0.3,0-0.4,0.1-0.5,0.2c-0.1,0.1-0.1,0.4,0,0.7l0.7,4.5
		c0,0.3,0.1,0.5,0.2,0.6c0.1,0.1,0.3,0.1,0.6,0.1l0.2,0l0.1,0.4l-2.7,0.5l-0.1-0.4l0.2,0c0.3,0,0.4-0.1,0.5-0.2
		c0.1-0.1,0.1-0.3,0-0.6l-0.8-4.6c-0.1-0.3-0.1-0.5-0.2-0.6c-0.1-0.1-0.3-0.1-0.6-0.1l-0.2,0L192.4,19.2z"/>
	<path class="st1" d="M197.5,18.1l0.4,0l0.1,0.2l4.1-0.3l0-0.2l0.4,0l0.9,2l-0.5,0.2c-0.3-0.5-0.5-0.9-0.8-1.1
		c-0.3-0.2-0.7-0.3-1.1-0.3c-0.2,0-0.3,0-0.4,0.1c0,0-0.1,0.2,0,0.4l0.4,4.9c0,0.4,0.1,0.6,0.3,0.6c0.1,0.1,0.4,0.1,0.7,0.1l0,0.4
		l-2.8,0.2l0-0.4c0.3,0,0.5-0.1,0.6-0.1c0.1,0,0.2-0.1,0.2-0.2c0-0.1,0-0.3,0-0.5l-0.4-5c0-0.2,0-0.3-0.1-0.3c0,0-0.1-0.1-0.3,0
		c-0.6,0-1,0.2-1.2,0.4c-0.2,0.3-0.4,0.7-0.6,1.2l-0.5-0.1L197.5,18.1z"/>
	<path class="st1" d="M204.4,17.9l2.7,0l0,0.4l-0.3,0c-0.3,0-0.4,0.1-0.4,0.2c0,0.1,0.1,0.2,0.2,0.4l1.4,2.5l1.5-2.7
		c0.1-0.2,0.1-0.3,0.1-0.3c0-0.1,0-0.1-0.1-0.1c-0.1,0-0.2,0-0.4,0l-0.3,0l0-0.4l2.2,0l0,0.4c-0.2,0-0.4,0-0.5,0.1
		c-0.1,0-0.2,0.2-0.4,0.4l-1.9,3.2l0,1.8c0,0.4,0.1,0.6,0.2,0.6c0.1,0.1,0.4,0.1,0.7,0.1l0,0.4l-2.8,0l0-0.4l0.2,0
		c0.3,0,0.5-0.1,0.6-0.1c0.1-0.1,0.1-0.3,0.1-0.6l0-1.6l-1.9-3.3c-0.2-0.3-0.3-0.5-0.4-0.5c-0.1,0-0.3-0.1-0.5-0.1L204.4,17.9z"/>
	<path class="st1" d="M215.6,21.5c0.1-1,0.6-1.8,1.4-2.4c0.8-0.6,1.7-0.8,2.8-0.7c1,0.1,1.8,0.6,2.4,1.4c0.6,0.8,0.8,1.7,0.7,2.7
		c-0.1,1.1-0.6,1.9-1.4,2.5c-0.8,0.6-1.7,0.8-2.7,0.7c-1.1-0.1-1.9-0.6-2.5-1.4C215.7,23.5,215.5,22.6,215.6,21.5L215.6,21.5z
		 M221.8,22.4c0.1-0.9,0-1.7-0.3-2.3c-0.3-0.6-0.9-0.9-1.7-1.1c-0.8-0.1-1.5,0.1-2,0.5c-0.5,0.5-0.9,1.2-1,2.2
		c-0.1,0.9,0,1.7,0.4,2.3c0.4,0.6,1,1,1.7,1.1c0.8,0.1,1.4-0.1,1.9-0.6C221.4,24,221.7,23.3,221.8,22.4z"/>
	<path class="st1" d="M225.8,19.4l5.4,1.2l0.2,1.9l-0.5,0.1c-0.1-0.7-0.3-1.1-0.6-1.3c-0.2-0.2-0.7-0.4-1.4-0.6l-1.5-0.3l-0.6,2.6
		l0.7,0.2c0.5,0.1,0.8,0.1,1,0c0.2-0.1,0.4-0.4,0.5-0.8l0-0.2l0.5,0.1l-0.7,3l-0.5-0.1l0.1-0.3c0.1-0.4,0.1-0.7-0.1-0.9
		c-0.1-0.2-0.4-0.3-0.9-0.4l-0.8-0.2l-0.5,2.1c-0.1,0.2-0.1,0.4,0,0.5c0.1,0.1,0.2,0.2,0.5,0.3l0.2,0l-0.1,0.4l-2.7-0.6l0.1-0.4
		l0.2,0c0.3,0.1,0.5,0.1,0.6,0c0.1-0.1,0.2-0.2,0.3-0.5l1.1-4.7c0.1-0.3,0.1-0.5,0-0.6c-0.1-0.1-0.2-0.2-0.5-0.2l-0.2-0.1
		L225.8,19.4z"/>
	<path class="st1" d="M236.5,22.1l0.3,0.1l0,0.2l3.9,1.3l0.1-0.2l0.4,0.1l0,2.2l-0.5,0c0-0.6-0.1-1-0.3-1.3c-0.2-0.3-0.5-0.5-1-0.7
		c-0.2-0.1-0.3-0.1-0.4-0.1c-0.1,0-0.1,0.1-0.2,0.3l-1.6,4.6c-0.1,0.3-0.1,0.6,0,0.7c0.1,0.1,0.3,0.2,0.6,0.3l-0.1,0.4l-2.6-0.9
		l0.1-0.4c0.3,0.1,0.5,0.1,0.6,0.1c0.1,0,0.2,0,0.3-0.1c0.1-0.1,0.1-0.2,0.2-0.4l1.6-4.7c0.1-0.2,0.1-0.3,0-0.3
		c0-0.1-0.1-0.1-0.3-0.2c-0.5-0.2-1-0.2-1.3-0.1c-0.3,0.1-0.6,0.4-1,0.9l-0.4-0.3L236.5,22.1z"/>
	<path class="st1" d="M243.7,24.9l5.3,2.4l-0.2,2l-0.5,0c0-0.6,0-1-0.2-1.4c-0.2-0.3-0.7-0.7-1.4-1l-1.6-0.7l-1.1,2.3l0.8,0.4
		c0.4,0.2,0.7,0.2,0.9,0.1c0.2-0.1,0.4-0.3,0.6-0.7l0-0.1l0.5,0.2l-1.3,2.8l-0.5-0.2l0.1-0.2c0.2-0.3,0.2-0.6,0.1-0.8
		c-0.1-0.2-0.3-0.4-0.7-0.6l-0.8-0.4l-1,2.1c-0.1,0.2-0.2,0.4-0.1,0.5c0,0.1,0.2,0.2,0.4,0.3l1,0.4c0.7,0.3,1.3,0.4,1.8,0.4
		c0.5-0.1,1-0.3,1.6-0.8l0.4,0.3l-1.6,1.7l-5.5-2.5l0.2-0.4l0.2,0.1c0.3,0.1,0.5,0.2,0.6,0.1c0.1-0.1,0.2-0.2,0.3-0.4l2-4.4
		c0.1-0.2,0.1-0.3,0.1-0.4c0-0.1,0-0.2-0.1-0.3c-0.1-0.1-0.3-0.2-0.5-0.3L243.7,24.9z"/>
	<path class="st1" d="M256.6,31.6l0.3,0.2l-0.6,2.4l-0.5-0.1c0.1-0.7,0.1-1.4-0.1-1.9c-0.2-0.5-0.5-0.9-1-1.2
		c-0.6-0.4-1.3-0.4-2-0.2c-0.7,0.3-1.3,0.8-1.7,1.5c-0.4,0.8-0.6,1.6-0.4,2.3c0.2,0.8,0.6,1.3,1.2,1.7c0.4,0.2,0.9,0.3,1.4,0.4
		c0.5,0,1.1-0.1,1.6-0.3l0.2,0.4c-0.6,0.3-1.3,0.5-1.9,0.4c-0.6,0-1.3-0.2-1.8-0.5c-0.9-0.5-1.4-1.2-1.7-2.2
		c-0.3-0.9-0.1-1.9,0.4-2.7c0.3-0.6,0.8-1,1.3-1.4c0.6-0.3,1.2-0.5,1.8-0.5c0.7,0,1.3,0.2,1.8,0.5c0.6,0.3,1,0.8,1.3,1.4L256.6,31.6
		z"/>
	<path class="st1" d="M259.4,33.5l2.3,1.6l-0.2,0.3l-0.2-0.1c-0.2-0.2-0.4-0.2-0.6-0.2c-0.1,0-0.3,0.2-0.5,0.4l-1.1,1.6l3.1,2.1
		l1.1-1.6c0.2-0.3,0.3-0.5,0.3-0.6c0-0.1-0.1-0.3-0.3-0.4l-0.2-0.2l0.2-0.3l2.3,1.6l-0.2,0.3l-0.2-0.1c-0.2-0.1-0.4-0.2-0.5-0.2
		c-0.1,0-0.3,0.1-0.4,0.4l-2.7,3.9c-0.1,0.2-0.2,0.3-0.2,0.4c0,0.1,0,0.2,0.1,0.3c0.1,0.1,0.2,0.2,0.5,0.4l-0.2,0.3l-2.3-1.6
		l0.2-0.3l0.2,0.1c0.2,0.1,0.3,0.2,0.4,0.2c0.1,0,0.2,0,0.2-0.1c0.1-0.1,0.2-0.2,0.3-0.4l1.2-1.8l-3.1-2.1l-1.3,1.8
		c-0.2,0.3-0.3,0.5-0.2,0.6c0.1,0.1,0.3,0.3,0.6,0.5l-0.2,0.3l-2.3-1.6l0.2-0.3l0.1,0.1c0.2,0.2,0.4,0.2,0.5,0.2
		c0.1,0,0.3-0.1,0.4-0.4l2.8-4c0.2-0.2,0.2-0.4,0.2-0.5c0-0.1-0.1-0.2-0.3-0.4l-0.2-0.2L259.4,33.5z"/>
	<path class="st1" d="M267.6,39.5l1.6,1.5l-1.2,6.1l2.8-2.9c0.2-0.2,0.3-0.4,0.3-0.6s-0.1-0.3-0.3-0.5l-0.1-0.1l0.3-0.3l1.7,1.7
		l-0.3,0.3l-0.1-0.1c-0.2-0.2-0.4-0.3-0.6-0.3c-0.2,0-0.3,0.1-0.6,0.4l-4,4.2l-0.5-0.4l1.5-7.3l-3.4,3.7c-0.2,0.3-0.4,0.5-0.4,0.6
		c0,0.2,0.1,0.4,0.4,0.7l-0.3,0.3l-1.8-1.7l0.3-0.3l0.1,0.1c0.2,0.2,0.4,0.3,0.6,0.3c0.1,0,0.3-0.2,0.6-0.4l3.1-3.2
		c0.2-0.2,0.3-0.3,0.4-0.4c0.1-0.1,0.1-0.2,0-0.3c0-0.1-0.1-0.2-0.3-0.4l-0.1-0.1L267.6,39.5z"/>
	<path class="st1" d="M271.7,48.1c0.8-0.7,1.7-1,2.7-0.9c1,0.1,1.9,0.5,2.6,1.3c0.7,0.8,1,1.6,0.9,2.6c-0.1,1-0.5,1.8-1.2,2.5
		c-0.8,0.7-1.7,1-2.7,1c-1-0.1-1.8-0.5-2.5-1.3c-0.7-0.8-1-1.7-1-2.7C270.5,49.6,270.9,48.8,271.7,48.1L271.7,48.1z M275.8,52.8
		c0.7-0.6,1.1-1.3,1.3-2c0.1-0.7-0.1-1.3-0.6-1.9c-0.5-0.6-1.2-0.9-1.9-0.9c-0.7,0-1.5,0.3-2.2,1c-0.7,0.6-1.1,1.3-1.2,2
		c-0.1,0.7,0.1,1.4,0.6,1.9c0.5,0.6,1.1,0.8,1.9,0.8C274.4,53.7,275.1,53.4,275.8,52.8z"/>
	<path class="st1" d="M280.7,53.2l1.6,2.3l-0.3,0.2l-0.1-0.2c-0.1-0.2-0.3-0.3-0.4-0.4c-0.1,0-0.3,0-0.5,0.2l-4,2.8
		c-0.2,0.2-0.3,0.3-0.4,0.3c0,0.1,0.1,0.2,0.2,0.5l0.2,0.3c0.4,0.5,0.8,0.9,1.2,1c0.4,0.1,1,0.1,1.7,0l0.1,0.5l-2.3,0.6l-2.9-4.1
		l0.3-0.2l0.1,0.2c0.2,0.2,0.3,0.3,0.4,0.4c0.1,0,0.3,0,0.5-0.2l3.9-2.8c0.2-0.2,0.4-0.3,0.4-0.4c0-0.1,0-0.3-0.2-0.6l-0.1-0.2
		L280.7,53.2z"/>
	<path class="st1" d="M282.3,61.2c0.9-0.5,1.8-0.6,2.8-0.3c1,0.3,1.7,0.9,2.2,1.8c0.5,0.9,0.6,1.8,0.3,2.7c-0.3,0.9-0.9,1.6-1.7,2.1
		c-0.9,0.5-1.9,0.7-2.8,0.4c-0.9-0.3-1.7-0.9-2.2-1.8c-0.5-0.9-0.6-1.9-0.4-2.8C280.8,62.4,281.4,61.7,282.3,61.2L282.3,61.2z
		 M285.4,66.6c0.8-0.5,1.4-1,1.6-1.7c0.3-0.6,0.2-1.3-0.2-2c-0.4-0.7-1-1.2-1.7-1.3c-0.7-0.1-1.5,0-2.4,0.5c-0.8,0.5-1.4,1-1.6,1.7
		c-0.2,0.7-0.2,1.4,0.2,2c0.4,0.7,0.9,1.1,1.7,1.2C283.8,67.2,284.6,67.1,285.4,66.6z"/>
	<path class="st1" d="M292.5,73l0.2,0.3l-1.7,1.4l-0.3-0.4c0.5-0.5,0.8-1,0.9-1.5c0.1-0.5,0.1-1-0.2-1.5c-0.3-0.6-0.8-1.1-1.6-1.3
		c-0.7-0.2-1.5-0.2-2.3,0.2c-0.5,0.2-1,0.6-1.3,1c-0.4,0.4-0.6,0.9-0.6,1.4c-0.1,0.5,0,1,0.2,1.4c0.1,0.2,0.3,0.5,0.4,0.7
		c0.2,0.2,0.4,0.3,0.6,0.4c0.2,0.1,0.4,0.2,0.5,0.2c0.2,0,0.3-0.1,0.6-0.2l0.3-0.1c0.3-0.2,0.5-0.3,0.6-0.5c0-0.2,0-0.4-0.2-0.9
		l0.4-0.2l1.2,2.7l-0.4,0.2l-0.1-0.2c-0.1-0.2-0.2-0.4-0.3-0.4c-0.1,0-0.3,0-0.6,0.1l-2.2,1l-0.2-0.5l0.5-0.5
		c-0.8-0.5-1.3-1.1-1.6-1.8c-0.4-0.9-0.5-1.8-0.1-2.7c0.3-0.9,1-1.6,2-2c0.9-0.4,1.9-0.5,2.8-0.1c0.9,0.3,1.6,1,2,1.9
		c0.3,0.7,0.4,1.3,0.2,2L292.5,73z"/>
	<path class="st1" d="M294.1,76.5l0.8,2.6l-0.4,0.1l-0.1-0.3c-0.1-0.3-0.2-0.4-0.3-0.4c-0.1,0-0.2,0.1-0.3,0.3l-2,2.1l3,0.7
		c0.2,0,0.3,0,0.4,0c0.1,0,0.1-0.1,0.1-0.1c0-0.1,0-0.2-0.1-0.3l-0.1-0.3l0.4-0.1l0.7,2.1l-0.4,0.1c-0.1-0.2-0.2-0.4-0.2-0.5
		c-0.1-0.1-0.3-0.2-0.5-0.2l-3.6-0.9l-1.7,0.5c-0.3,0.1-0.5,0.2-0.5,0.4c0,0.1,0,0.4,0.1,0.7l-0.4,0.1l-0.9-2.7l0.4-0.1l0.1,0.2
		c0.1,0.3,0.2,0.4,0.3,0.5c0.1,0,0.3,0,0.6-0.1l1.5-0.5l2.6-2.8c0.2-0.3,0.3-0.5,0.3-0.6c0-0.1,0-0.3-0.1-0.5L294.1,76.5z"/>
	<line class="st3" x1="145.7" y1="85.5" x2="268.8" y2="86.3"/>
	<line class="st4" x1="264.5" y1="83.2" x2="264.6" y2="93.1"/>
	<line class="st4" x1="146.7" y1="85.9" x2="146.8" y2="93.5"/>
	<line class="st4" x1="106.9" y1="93.3" x2="308.4" y2="93.6"/>
	<rect x="105.2" y="95.9" class="st1" width="5.5" height="3.9"/>
	<rect x="113.1" y="95.9" class="st1" width="5.5" height="3.9"/>
	<rect x="194.9" y="87.8" class="st1" width="5.3" height="1.9"/>
	<rect x="210.5" y="87.9" class="st1" width="5.3" height="1.9"/>
	<rect x="203" y="87.9" class="st1" width="5.3" height="1.9"/>
	<rect x="276.8" y="79.7" class="st5" width="6.6" height="0"/>
	<rect x="293.8" y="96" class="st1" width="5.5" height="3.9"/>
	<rect x="285.4" y="96" class="st1" width="5.5" height="3.9"/>
	<rect x="276.2" y="95.8" class="st1" width="5.5" height="3.9"/>
	<rect x="267.2" y="96" class="st1" width="5.5" height="3.9"/>
	<rect x="121.8" y="95.9" class="st1" width="5.5" height="3.9"/>
	<rect x="131" y="95.9" class="st1" width="5.5" height="3.9"/>
	<rect x="138.8" y="95.9" class="st1" width="5.5" height="3.9"/>
	<path class="st3" d="M133.2,93.6c6.8-27.4,27.7-49,54.7-56.5c41.8-11.7,85.4,13.1,97.3,55.4"/>
	<line class="st3" x1="264.6" y1="93.1" x2="265.1" y2="136.3"/>
	<path class="st3" d="M107.8,136.7c-2.6,0.7,200.8,0.2,200.8,0.2"/>
	<path class="st4" d="M108.6,140.9c-2.6,0.7,200.8,0.2,200.8,0.2"/>
	<rect x="276.2" y="129.8" class="st1" width="5.6" height="2.3"/>
	<rect x="267" y="129.7" class="st1" width="5.6" height="2.3"/>
	<rect x="285.6" y="129.5" class="st1" width="5.6" height="2.3"/>
	<rect x="293.6" y="129.6" class="st1" width="5.6" height="2.3"/>
	<rect x="303.4" y="129.5" class="st1" width="5.6" height="2.3"/>
	<rect x="303.5" y="96.2" class="st1" width="7.8" height="3.6"/>
	<rect x="178.5" y="79.2" class="st3" width="15.1" height="3.8"/>
	<rect x="218.3" y="78.7" class="st4" width="15.4" height="4.7"/>
	<line class="st6" x1="177.2" y1="84.8" x2="177.2" y2="137.1"/>
	<line class="st6" x1="193" y1="84.9" x2="193" y2="137.2"/>
	<line class="st6" x1="217.2" y1="84.9" x2="217.2" y2="137.2"/>
	<line class="st6" x1="234.5" y1="84.9" x2="234.5" y2="137.2"/>
	<rect x="195" y="123.5" class="st1" width="5.2" height="2.2"/>
	<rect x="202.9" y="123.4" class="st1" width="5.4" height="2.2"/>
	<rect x="210.5" y="123.4" class="st1" width="5.2" height="2.2"/>
	<rect x="195" y="129" class="st1" width="5" height="7.5"/>
	<rect x="202.9" y="128.9" class="st1" width="5.4" height="7.6"/>
	<rect x="210.4" y="129" class="st1" width="5" height="7.5"/>
	<polygon class="st1" points="264.9,120.8 265.4,126.1 310.5,126.3 310.4,120.8 	"/>
	<rect x="148.5" y="87.8" class="st1" width="3.6" height="2.3"/>
	<rect x="148.1" y="123.8" class="st1" width="3.6" height="2.8"/>
	<rect x="154.2" y="123.8" class="st1" width="3.6" height="2.8"/>
	<rect x="159.4" y="123.8" class="st1" width="3.6" height="2.8"/>
	<rect x="165.5" y="123.8" class="st1" width="3.6" height="2.8"/>
	<rect x="170.7" y="123.8" class="st1" width="3.6" height="2.8"/>
	<rect x="181.3" y="123.6" class="st1" width="4.7" height="2.8"/>
	<rect x="222.1" y="123.6" class="st1" width="4.7" height="2.8"/>
	<rect x="222.1" y="129.2" class="st1" width="4.7" height="2.8"/>
	<rect x="181.2" y="129.4" class="st1" width="4.7" height="2.8"/>
	<rect x="148.1" y="129.5" class="st1" width="3.6" height="2.8"/>
	<rect x="154" y="129.3" class="st1" width="3.6" height="2.8"/>
	<rect x="160.1" y="129.3" class="st1" width="3.6" height="2.8"/>
	<rect x="165.5" y="129.6" class="st1" width="3.6" height="2.8"/>
	<rect x="170.8" y="129.5" class="st1" width="3.6" height="2.8"/>
	<rect x="258" y="123.9" class="st1" width="3.6" height="2.8"/>
	<rect x="253.1" y="123.7" class="st1" width="3.6" height="2.8"/>
	<rect x="248.1" y="123.8" class="st1" width="3.6" height="2.8"/>
	<rect x="242.9" y="123.7" class="st1" width="3.6" height="2.8"/>
	<rect x="237" y="123.7" class="st1" width="3.6" height="2.8"/>
	<rect x="258.2" y="129.3" class="st1" width="3.6" height="2.8"/>
	<rect x="253.1" y="129.5" class="st1" width="3.6" height="2.8"/>
	<rect x="248.1" y="129.5" class="st1" width="3.6" height="2.8"/>
	<rect x="243" y="129.5" class="st1" width="3.6" height="2.8"/>
	<rect x="236.9" y="129.6" class="st1" width="3.6" height="2.8"/>
	<rect x="181.4" y="87.5" class="st1" width="4.6" height="2.8"/>
	<rect x="222.4" y="87.8" class="st1" width="4.6" height="2.8"/>
	<rect x="159.2" y="87.8" class="st1" width="3.6" height="2.3"/>
	<rect x="165.1" y="87.9" class="st1" width="3.6" height="2.3"/>
	<rect x="170.9" y="87.8" class="st1" width="3.6" height="2.3"/>
	<rect x="253.5" y="88" class="st1" width="3.6" height="2.3"/>
	<rect x="243.1" y="88" class="st1" width="3.6" height="2.3"/>
	<rect x="236.8" y="88" class="st1" width="3.6" height="2.3"/>
	<rect x="248.2" y="88.1" class="st1" width="3.6" height="2.3"/>
	<rect x="258.5" y="88" class="st1" width="3.6" height="2.3"/>
	<rect x="153.8" y="87.8" class="st1" width="3.6" height="2.3"/>
	<line class="st3" x1="107.4" y1="126" x2="146.1" y2="126"/>
	<line class="st4" x1="265" y1="125.9" x2="308.2" y2="126"/>
	<path class="st1" d="M264.6,93.1l-117.8,1.4l-0.1,7.3l118.1,1.2L264.6,93.1z M151.7,97.8h-3.6V95h3.6V97.8z M157.4,97.7h-3.6V95
		h3.6V97.7z M163.1,97.6h-3.6V95h3.6V97.6z M168.8,97.8h-3.6V95h3.6V97.8z M174.3,97.8h-3.6V95h3.6V97.8z M185.9,97.7h-4.6v-2.8h4.6
		V97.7z M200.2,97.8H195v-2.5h5.3V97.8z M208.3,97.8H203v-2.5h5.3V97.8z M215.8,97.6h-5.3V95h5.3V97.6z M227,97.8h-4.6V95h4.6V97.8z
		 M240.4,97.7h-3.6V95h3.6V97.7z M246.5,97.8h-3.6V95h3.6V97.8z M251.8,97.8h-3.6V95h3.6V97.8z M256.7,97.7h-3.6V95h3.6V97.7z
		 M261.6,97.8h-3.6V95h3.6V97.8z"/>
	<path class="st1" d="M312,101.3l-206.5-0.2l0,2.6l-1,17.5l1.8,0l0.4,4.9l0.8,0v-2.3h2.6v2.3l3,0v-2.3h5.6v2.3l27.5,0.1l0-5.1
		l165.5-0.2l-0.9-15.1l1.2,0L312,101.3z M110.1,120.3h-3.7v-2.3h3.7V120.3z M110.2,114.3h-3.7v-2.3h3.7V114.3z M110.5,108.2h-3.7
		v-2.3h3.7V108.2z M121.9,105.9h5.6v2.3h-5.6V105.9z M121.8,111.8h5.6v2.3h-5.6V111.8z M113,105.9h5.6v2.3H113V105.9z M118.7,120.3
		H113v-2.3h5.6V120.3z M118.7,114.3h-5.6v-2.3h5.6V114.3z M121.8,117.9h5.6v2.3h-5.6V117.9z M127.5,126h-5.6v-2.3h5.6V126z
		 M130.9,105.8l5.6,0v2.3h-5.6V105.8z M131,117.9h5.6v2.3H131V117.9z M136.6,126.1H131v-2.3h5.6V126.1z M136.6,114.3H131v-2.3h5.6
		V114.3z M138.8,105.8h5.6v2.3h-5.6V105.8z M138.8,111.9h5.6v2.3h-5.6V111.9z M144.5,126.2h-5.6v-2.3h5.6V126.2z M144.5,120.1h-5.6
		v-2.3h5.6V120.1z M303.4,105.9l5.6,0v2.3h-5.6V105.9z M293.7,105.9l5.6,0v2.3h-5.6V105.9z M257.9,102.7h3.6v2.8h-3.6V102.7z
		 M237.1,102.8h3.6v2.8h-3.6V102.8z M222.3,103h4.6v2.8h-4.6V103z M202.8,103.2h5.3v2.5h-5.3V103.2z M195,103.1h5.3v2.5H195V103.1z
		 M181.3,103.1h4.8v2.8h-4.8V103.1z M170.7,102.8h3.6v2.8h-3.6V102.8z M153.9,102.9h3.6v2.7h-3.6V102.9z M153.9,105.8l3.6,0v0
		L153.9,105.8L153.9,105.8z M151.7,118.1h-3.6v-2.8h3.6V118.1z M151.7,111.9h-3.6v-2.8h3.6V111.9z M151.8,105.5h-3.6v-2.8h3.6V105.5
		z M157.5,118h-3.6v-2.7h3.6V118z M157.5,112h-3.6v-2.7h3.6V112z M163,117.9h-3.6v-2.7h3.6V117.9z M163,111.9h-3.6v-2.7h3.6V111.9z
		 M163.1,105.4h-3.6v-2.7h3.6V105.4z M165.1,109.2h3.6v2.8h-3.6V109.2z M168.8,118.1h-3.6v-2.8h3.6V118.1z M168.9,105.9h-3.6v-0.1
		L168.9,105.9L168.9,105.9z M168.9,105.6h-3.6v-2.8h3.6V105.6z M170.7,105.8l3.6,0v0L170.7,105.8L170.7,105.8z M174.3,118h-3.6v-2.8
		h3.6V118z M174.4,111.9h-3.6v-2.8h3.6V111.9z M181.3,105.8l4.8,0v0.3h-4.8V105.8z M181.3,109.2h4.8v2.8h-4.8V109.2z M186.1,117.9
		h-4.8v-2.8h4.8V117.9z M195,105.8l5.3,0v0.1L195,105.8L195,105.8z M195.1,109.5h5.3v2.5h-5.3V109.5z M200.3,117.9h-5.3v-2.5h5.3
		V117.9z M202.8,105.8l5.3,0v0.2h-5.3V105.8z M202.9,109.4h5.3v2.5h-5.3V109.4z M208.3,118H203v-2.5h5.3V118z M210.6,109.4h5.3v2.5
		h-5.3V109.4z M215.9,118h-5.3v-2.5h5.3V118z M215.9,105.9h-5.3v-0.1L215.9,105.9L215.9,105.9z M215.9,105.7h-5.3v-2.5h5.3V105.7z
		 M222.3,105.9l4.6,0v0.2h-4.6V105.9z M227,117.8h-4.6V115h4.6V117.8z M227,111.8h-4.6V109h4.6V111.8z M237,109.1h3.6v2.8H237V109.1
		z M240.8,118.2h-3.6v-2.8h3.6V118.2z M242.6,102.8h3.6v2.8h-3.6V102.8z M246.3,117.9h-3.6v-2.8h3.6V117.9z M246.3,112.1h-3.6v-2.8
		h3.6V112.1z M248.2,102.8h3.6v2.8h-3.6V102.8z M248.2,109.2h3.6v2.8h-3.6V109.2z M251.9,117.8h-3.6v-2.8h3.6V117.8z M253.1,102.8
		h3.6v2.8h-3.6V102.8z M253.2,109.2h3.6v2.8h-3.6V109.2z M256.8,118.1h-3.6v-2.8h3.6V118.1z M257.8,109.1h3.6v2.8h-3.6V109.1z
		 M261.6,118.1h-3.6v-2.8h3.6V118.1z M272.7,120.3h-5.6v-2.3h5.6V120.3z M272.8,114.2h-5.6v-2.3h5.6V114.2z M273,108.1h-5.6v-2.2
		l5.6,0V108.1z M276.1,111.9h5.6v2.3h-5.6V111.9z M281.8,120.1h-5.6v-2.3h5.6V120.1z M281.8,108.2h-5.6v-2.3l5.6,0V108.2z
		 M285.5,105.9l5.6,0v2.3h-5.6V105.9z M291.1,120.2h-5.6v-2.3h5.6V120.2z M291.2,114.3h-5.6V112h5.6V114.3z M299.3,120.1h-5.6v-2.3
		h5.6V120.1z M299.4,114.3h-5.6V112h5.6V114.3z M303.4,111.9h5.6v2.3h-5.6V111.9z M309.1,120.2h-5.6v-2.3h5.6V120.2z"/>
	<line class="st7" x1="179.3" y1="157.7" x2="192.9" y2="157.9"/>
	<line class="st7" x1="219.1" y1="157.6" x2="232.6" y2="157.8"/>
	<text transform="matrix(1 0 0 1 193.5292 161.253)"><tspan x="0" y="0" class="st8 st9 st10">1</tspan><tspan x="6.7" y="0" class="st8 st9 st10">94</tspan><tspan x="20.1" y="0" class="st8 st9 st10">5</tspan></text>
	<path class="st3" d="M278.8,140.7c0,27.8-31.2,50.3-69.7,50.3s-69.7-22.5-69.7-50.3"/>
	<rect x="106.2" y="129.8" class="st11" width="3.6" height="2.4"/>
	<rect x="113.3" y="130" class="st11" width="5.4" height="1.8"/>
	<rect x="121.7" y="130.3" class="st11" width="5.4" height="1.8"/>
	<rect x="131" y="130" class="st11" width="5.4" height="1.8"/>
	<rect x="138.8" y="130" class="st11" width="5.4" height="1.8"/>
	<path class="st12" d="M230.2,201.7c0.7-0.3,0.8-0.1,1.4,0.1c0.2,0.1,0.3,0.2,0.5,0.2c0,0,0.2,0,0.2,0.1c0.1,0.1,0,0.1,0.1,0.1
		c0.1,0,0.4,0.4,0.5,0.6c0.5,0.6,0.2,0.8-0.4,1.1c-0.8,0.3-1.1-0.4-1.4-0.8c-0.2-0.3-0.4-0.3-0.6-0.6
		C230.5,202.3,230.3,202,230.2,201.7z"/>
</g>
</svg>
