<?xml version="1.0" encoding="utf-8"?>
<!-- Generator: Adobe Illustrator 21.0.0, SVG Export Plug-In . SVG Version: 6.00 Build 0)  -->
<svg version="1.1" id="图层_1" xmlns="http://www.w3.org/2000/svg" xmlns:xlink="http://www.w3.org/1999/xlink" x="0px" y="0px"
	 viewBox="0 0 34 34" style="enable-background:new 0 0 34 34;" xml:space="preserve">
<style type="text/css">
	.st0{fill-rule:evenodd;clip-rule:evenodd;fill:#CACACA;}
</style>
<g>
	<path class="st0" d="M26.9,14.2V9.9c0,0,0-9.9-9.9-9.9S7.1,9.9,7.1,9.9v4.2H2.8V34h28.3V14.2H26.9 M18.4,25.1v4.6h-2.8v-4.6
		c-0.8-0.5-1.4-1.4-1.4-2.4c0-1.6,1.3-2.8,2.8-2.8c1.6,0,2.8,1.3,2.8,2.8C19.8,23.7,19.3,24.6,18.4,25.1L18.4,25.1z M24.1,14.2H9.9
		V9.9c0-1.2,0.4-7.1,7.1-7.1c6.6,0,7.1,5.9,7.1,7.1V14.2"/>
</g>
</svg>
