<?xml version="1.0" encoding="utf-8"?>
<!-- Generator: Adobe Illustrator 21.0.0, SVG Export Plug-In . SVG Version: 6.00 Build 0)  -->
<svg version="1.1" id="图层_1" xmlns="http://www.w3.org/2000/svg" xmlns:xlink="http://www.w3.org/1999/xlink" x="0px" y="0px"
	 viewBox="0 0 34 34" style="enable-background:new 0 0 34 34;" xml:space="preserve">
<style type="text/css">
	.st0{fill:#999999;}
</style>
<g>
	<g>
		<path class="st0" d="M33.3,17l-2.1-2.5c1.1-1.3,2-2.8,2.7-4.4c0.2-0.6,0-1.3-0.6-1.5c-0.6-0.2-1.3,0-1.5,0.6
			c-2.4,5.8-8.1,9.4-14.8,9.4c-6.7,0-12.4-3.6-14.8-9.5C2,8.6,1.3,8.3,0.7,8.5C0.1,8.8-0.2,9.5,0.1,10c0.7,1.7,1.7,3.3,2.8,4.6L1,17
			c-0.4,0.5-0.3,1.2,0.1,1.6c0.2,0.2,0.5,0.3,0.7,0.3c0.3,0,0.7-0.1,0.9-0.4l1.8-2.1c1.2,1.1,2.7,2,4.2,2.8l-1.1,3
			c-0.2,0.6,0.1,1.3,0.7,1.5c0.1,0,0.3,0.1,0.4,0.1c0.5,0,0.9-0.3,1.1-0.8l1.1-3c1.6,0.5,3.2,0.8,5,0.9v3.5c0,0.6,0.5,1.2,1.2,1.2
			c0.6,0,1.2-0.5,1.2-1.2v-3.5c1.8-0.1,3.6-0.4,5.2-1l1.1,3c0.2,0.5,0.6,0.8,1.1,0.8c0.1,0,0.3,0,0.4-0.1c0.6-0.2,0.9-0.9,0.7-1.5
			L25.5,19c1.5-0.7,2.9-1.7,4.1-2.8l1.9,2.3c0.2,0.3,0.6,0.4,0.9,0.4c0.3,0,0.5-0.1,0.7-0.3C33.6,18.2,33.7,17.5,33.3,17L33.3,17z
			 M33.3,17"/>
	</g>
</g>
</svg>
